SplineFontDB: 3.0
FontName: Mikhak-Medium
FullName: Mikhak Medium
FamilyName: Mikhak Medium
Weight: Medium
Copyright: Copyright (c) 2019, Amin Abedi (www.opentypeshop.com|aminabedi68@gmail.com),\nwith Reserved Font Name Mikhak.\n\nThis Font Software is licensed under the SIL Open Font License, Version 1.1.\nThis license is available with a FAQ at: http://scripts.sil.org/OFL
Version: 2.100
ItalicAngle: 0
UnderlinePosition: -450
UnderlineWidth: 100
Ascent: 1638
Descent: 410
InvalidEm: 0
sfntRevision: 0x00021a2e
LayerCount: 2
Layer: 0 0 "Back" 1
Layer: 1 0 "Fore" 0
PreferredKerning: 4
XUID: [1021 89 1101065813 17353]
StyleMap: 0x0040
FSType: 0
OS2Version: 4
OS2_WeightWidthSlopeOnly: 0
OS2_UseTypoMetrics: 1
CreationTime: 1497005464
ModificationTime: 1553940552
PfmFamily: 33
TTFWeight: 500
TTFWidth: 5
LineGap: 0
VLineGap: 0
OS2TypoAscent: 512
OS2TypoAOffset: 1
OS2TypoDescent: -675
OS2TypoDOffset: 1
OS2TypoLinegap: 0
OS2WinAscent: -240
OS2WinAOffset: 1
OS2WinDescent: -149
OS2WinDOffset: 1
HheadAscent: -240
HheadAOffset: 1
HheadDescent: 149
HheadDOffset: 1
OS2SubXSize: 1277
OS2SubYSize: 1185
OS2SubXOff: 0
OS2SubYOff: 256
OS2SupXSize: 1277
OS2SupYSize: 1185
OS2SupXOff: 0
OS2SupYOff: 870
OS2StrikeYSize: 91
OS2StrikeYPos: 766
OS2CapHeight: 1400
OS2XHeight: 1012
OS2Vendor: 'AA68'
Lookup: 4 1 0 "'ccmp' Glyph Composition/Decomposition in Arabic lookup 0" { "'ccmp' Glyph Composition/Decomposition in Arabic lookup 0 subtable 0"  } ['ccmp' ('arab' <'FAR ' 'dflt' > ) ]
Lookup: 1 9 0 "Single Substitution 1" { "Single Substitution 1 subtable"  } []
Lookup: 2 9 0 "Multiple Substitution 2" { "Multiple Substitution 2 subtable"  } []
Lookup: 2 9 0 "Multiple Substitution 3" { "Multiple Substitution 3 subtable"  } []
Lookup: 1 9 0 "'fina' Terminal Forms in Arabic lookup 4" { "'fina' Terminal Forms in Arabic lookup 4 subtable"  } ['fina' ('arab' <'FAR ' 'dflt' > ) ]

StartChar: a
Encoding: 97 97 0
Width: 1269
VWidth: 2426
Flags: HMW
LayerCount: 2
Fore
SplineSet
844 942 m 1
 804 969 738 1001 650 1001 c 0
 343 1001 160 677 160 419 c 0
 160 204 282 15 521 15 c 0
 804 15 915 274 949 519 c 2
 1013 986 l 1
 941 463 l 2
 934 408 929 354 929 293 c 0
 929 167 955 45 1109 45 c 1033
EndSplineSet
Colour: ffff
EndChar

StartChar: c
Encoding: 99 99 1
Width: 1031
VWidth: 2426
Flags: HMW
LayerCount: 2
Fore
SplineSet
855 907 m 0
 788 965 708 1001 611 1001 c 0
 331 1001 160 669 160 411 c 0
 160 215 255 15 528 15 c 0
 668 15 775 55 871 113 c 1024
EndSplineSet
Colour: ffff
EndChar

StartChar: e
Encoding: 101 101 2
Width: 1131
VWidth: 2426
Flags: HMW
LayerCount: 2
Fore
SplineSet
150 387 m 0
 367 402 581 469 768 580 c 0
 842 624 939 694 939 805 c 0
 939 927 824 1001 703 1001 c 0
 417 1001 215 723 215 440 c 1
 220 221 390 15 620 15 c 0
 749 15 875 64 971 151 c 1024
EndSplineSet
Colour: ffff
EndChar

StartChar: f
Encoding: 102 102 3
Width: 773
VWidth: 2426
Flags: HMW
LayerCount: 2
Fore
SplineSet
612 1554 m 17
 578 1592 547 1609 519 1609 c 0
 435 1609 376 1465 363 1309 c 0
 332 963 323 348 323 -4 c 1025
160 830 m 17
 213 834 262 834 312 834 c 0
 414 834 511 828 613 816 c 1033
EndSplineSet
Colour: ffff
EndChar

StartChar: g
Encoding: 103 103 4
Width: 1177
VWidth: 2426
Flags: HMW
LayerCount: 2
Fore
SplineSet
774 954 m 0
 723 985 653 1001 593 1001 c 0
 324 1001 169 684 169 420 c 0
 169 147 328 15 524 15 c 0
 804 15 928 269 971 477 c 1025
974 971 m 1
 976 924 977 841 977 764 c 0
 977 337 974 11 896 -193 c 0
 834 -356 669 -440 503 -440 c 0
 374 -440 244 -389 160 -286 c 1024
EndSplineSet
Colour: ffff
EndChar

StartChar: o
Encoding: 111 111 5
Width: 1109
VWidth: 2426
Flags: HMW
LayerCount: 2
Fore
SplineSet
567 1001 m 0
 812 1001 949 768 949 538 c 0
 949 280 790 15 540 15 c 0
 310 15 160 238 160 486 c 0
 160 746 300 1001 567 1001 c 0
EndSplineSet
Colour: ffff
EndChar

StartChar: s
Encoding: 115 115 6
Width: 980
VWidth: 2426
Flags: HMW
LayerCount: 2
Fore
SplineSet
808 815 m 1
 773 926 653 1002 507 1002 c 0
 350 1002 218 896 207 760 c 1
 207 578 387 527 526 492 c 0
 659 459 820 401 820 239 c 0
 820 101 655 15 488 15 c 0
 348 15 206 72 160 141 c 1024
EndSplineSet
Colour: ffff
EndChar

StartChar: t
Encoding: 116 116 7
Width: 775
VWidth: 2426
Flags: HMW
LayerCount: 2
Fore
SplineSet
615 820 m 1
 543 829 467 833 388 833 c 0
 312 833 235 829 160 820 c 1025
402 1216 m 0
 369 931 343 647 343 355 c 0
 343 207 350 15 538 15 c 0
 560 15 585 17 612 22 c 1024
EndSplineSet
Colour: ffff
EndChar

StartChar: v
Encoding: 118 118 8
Width: 1084
VWidth: 2426
Flags: HMW
LayerCount: 2
Fore
SplineSet
160 971 m 0
 286 703 439 365 502 45 c 1
 670 317 827 637 924 971 c 1024
EndSplineSet
Colour: ffff
EndChar

StartChar: w
Encoding: 119 119 9
Width: 1501
VWidth: 2426
Flags: HMW
LayerCount: 2
Fore
SplineSet
302 954 m 0
 244 851 160 589 160 374 c 0
 160 194 221 15 406 15 c 0
 654 15 779 474 779 681 c 1
 783 433 792 15 1038 15 c 0
 1261 15 1341 266 1341 513 c 0
 1341 675 1305 843 1251 951 c 1024
EndSplineSet
Colour: ffff
EndChar

StartChar: x
Encoding: 120 120 10
Width: 1137
VWidth: 2426
Flags: HMW
LayerCount: 2
Fore
SplineSet
160 0 m 1
 955 971 l 1025
235 957 m 0
 399 626 721 256 977 0 c 1024
EndSplineSet
Colour: ffff
EndChar

StartChar: y
Encoding: 121 121 11
Width: 1127
VWidth: 2426
Flags: HMW
LayerCount: 2
Fore
SplineSet
226 971 m 0
 212 845 205 715 205 589 c 0
 205 313 240 15 526 15 c 0
 739 15 858 166 916 364 c 1025
921.9453125 963.657226562 m 0
 926.218733542 863.896217351 927 697.179390129 927 546 c 0
 927 82.1830643751 923.990066248 -434 462 -434 c 0
 320.067619558 -434 219.38720119 -381.101228413 160 -294 c 1024
EndSplineSet
Colour: ffff
EndChar

StartChar: z
Encoding: 122 122 12
Width: 1054
VWidth: 2426
Flags: HMW
LayerCount: 2
Fore
SplineSet
160 882 m 0
 244 896 385 914 538 914 c 0
 689 914 822 892 822 813 c 0
 822 789 812 757 778 727 c 0
 544 512 383 328 196 98 c 0
 179 76 171 56 171 37 c 0
 171 6 195 -17 246 -17 c 0
 257 -17 269 -16 282 -13 c 0
 396 5 682 25 894 29 c 1024
EndSplineSet
Colour: ffff
EndChar

StartChar: A
Encoding: 65 65 13
Width: 1416
VWidth: 1823
Flags: HMW
LayerCount: 2
Fore
SplineSet
160 32 m 0
 738 1316 l 1
 1256 0 l 1025
1088 452 m 1
 338 520 l 1025
EndSplineSet
Colour: ffff
EndChar

StartChar: B
Encoding: 66 66 14
Width: 1138
VWidth: 2426
Flags: HMW
LayerCount: 2
Fore
SplineSet
200 1280 m 1
 303 1320 423 1346 533 1346 c 0
 729 1346 897 1234 897 1028 c 0
 897 756 397 733 242 726 c 1
 310 730 467 739 536 739 c 0
 812 739 978 621 978 376 c 0
 978 109 744 15 501 15 c 0
 398 15 292 31 203 59 c 1
 218 258 225 515 225 706 c 0
 225 943 215 1096 200 1280 c 1
EndSplineSet
Colour: ffff
EndChar

StartChar: C
Encoding: 67 67 15
Width: 1271
VWidth: 2426
Flags: HMW
LayerCount: 2
Fore
SplineSet
1076 1292 m 0
 993 1329 904 1346 814 1346 c 0
 435 1346 160 1038 160 662 c 0
 160 291 434 15 810 15 c 0
 914 15 1018 40 1111 89 c 1024
EndSplineSet
Colour: ffff
EndChar

StartChar: D
Encoding: 68 68 16
Width: 1279
VWidth: 2426
Flags: HMW
LayerCount: 2
Fore
SplineSet
217 1325 m 1
 278 1339 343 1346 406 1346 c 0
 833 1346 1119 1131 1119 701 c 0
 1119 316 833 15 452 15 c 0
 366 15 280 31 200 62 c 1
 229 288 245 563 245 811 c 0
 245 1009 237 1132 217 1325 c 1
EndSplineSet
Colour: ffff
EndChar

StartChar: E
Encoding: 69 69 17
Width: 1098
VWidth: 2426
Flags: HMW
LayerCount: 2
Fore
SplineSet
160 735 m 0
 276 749 382 754 500 754 c 0
 622 754 741 747 859 733 c 1024
938 1359 m 0
 804 1328 630 1316 472 1316 c 0
 387 1316 302 1320 218 1325 c 1
 235 1191 242 1105 242 960 c 0
 242 748 227 534 201 348 c 1
 198 329 197 312 197 295 c 0
 197 47 474 45 768 45 c 0
 821 45 872 45 922 46 c 1024
EndSplineSet
Colour: ffff
EndChar

StartChar: F
Encoding: 70 70 18
Width: 1092
VWidth: 2426
Flags: HMW
LayerCount: 2
Fore
SplineSet
160 721 m 0
 269 734 379 741 489 741 c 0
 607 741 726 733 843 719 c 1024
932 1338 m 0
 798 1307 624 1296 466 1296 c 0
 381 1296 296 1299 213 1304 c 1
 242 1063 248 853 248 583 c 0
 248 378 237 178 217 0 c 1024
EndSplineSet
Colour: ffff
EndChar

StartChar: G
Encoding: 71 71 19
Width: 1349
VWidth: 2426
Flags: HMW
LayerCount: 2
Fore
SplineSet
648 649 m 0
 716 637 901 635 990 635 c 0
 1060 635 1131 640 1184 649 c 1
 1187 608 1189 569 1189 532 c 0
 1189 233 1077 15 716 15 c 0
 407 15 160 297 160 639 c 0
 160 641 160 643 160 645 c 0
 164 1015 351 1346 763 1346 c 0
 861 1346 959 1314 1037 1256 c 1024
EndSplineSet
Colour: ffff
EndChar

StartChar: H
Encoding: 72 72 20
Width: 1319
VWidth: 2426
Flags: HMW
LayerCount: 2
Fore
SplineSet
1007 1316 m 1
 1066 -21 l 1025
1119 654 m 1
 854 666 430 676 200 676 c 1025
272 1316 m 17
 268 873 251 426 208 0 c 1025
EndSplineSet
Colour: ffff
EndChar

StartChar: I
Encoding: 73 73 21
Width: 435
VWidth: 2426
Flags: HMW
LayerCount: 2
Fore
SplineSet
200 0 m 1
 235 1361 l 1025
EndSplineSet
Colour: ffff
EndChar

StartChar: J
Encoding: 74 74 22
Width: 680
VWidth: 2426
Flags: HMW
LayerCount: 2
Fore
SplineSet
173 1317 m 1
 520 1317 l 1
 419 1316 l 1
 464 975 475 666 475 300 c 0
 475 122 417 15 233 15 c 0
 209 15 184 16 160 18 c 1025
EndSplineSet
Colour: ffff
EndChar

StartChar: K
Encoding: 75 75 23
Width: 1217
VWidth: 2426
Flags: HMW
LayerCount: 2
Fore
SplineSet
200 0 m 1
 235 1360 l 1025
986 1361 m 17
 783 1087 481 878 203 720 c 1
 419 452 761 191 1057 0 c 1033
EndSplineSet
Colour: ffff
EndChar

StartChar: L
Encoding: 76 76 24
Width: 1166
VWidth: 2426
Flags: HMW
LayerCount: 2
Fore
SplineSet
218 1316 m 0
 229 1149 234 988 234 830 c 0
 234 566 220 309 200 45 c 1
 1006 22 l 1024
EndSplineSet
Colour: ffff
EndChar

StartChar: M
Encoding: 77 77 25
Width: 1599
VWidth: 2426
Flags: HMW
LayerCount: 2
Fore
SplineSet
190 0 m 1
 327 1300 l 1
 392 1063 533 758 638 577 c 0
 693 482 740 429 787 429 c 0
 830 429 874 471 927 561 c 0
 1049 766 1191 1122 1230 1316 c 1
 1248 801 1305 457 1409 12 c 1025
EndSplineSet
Colour: ffff
EndChar

StartChar: N
Encoding: 78 78 26
Width: 1307
VWidth: 2426
Flags: HMW
LayerCount: 2
Fore
SplineSet
200 0 m 0
 222 445 239 863 245 1316 c 1
 562 900 846 447 1092 4 c 1
 1107 1361 l 1025
EndSplineSet
Colour: ffff
EndChar

StartChar: O
Encoding: 79 79 27
Width: 1485
VWidth: 2426
Flags: HMW
LayerCount: 2
Fore
SplineSet
713 15 m 0
 393 15 160 259 160 613 c 0
 160 999 428 1346 799 1346 c 0
 1125 1346 1325 1028 1325 684 c 0
 1325 296 1062 15 713 15 c 0
EndSplineSet
Colour: ffff
EndChar

StartChar: P
Encoding: 80 80 28
Width: 1269
VWidth: 2426
Flags: HMW
LayerCount: 2
Fore
SplineSet
160 1167 m 1
 253 1273 462 1346 636 1346 c 0
 905 1346 1109 1131 1109 862 c 0
 1109 591 826 409 560 409 c 0
 490 409 343 421 277 447 c 1025
347 1239 m 1
 258 0 l 1025
EndSplineSet
Colour: ffff
EndChar

StartChar: Q
Encoding: 81 81 29
Width: 1485
VWidth: 1823
Flags: HMW
LayerCount: 2
Fore
SplineSet
883 439 m 0
 1016 255 1137 115 1308 -35 c 1024
EndSplineSet
Refer: 27 79 N 1 0 0 1 0 0 2
Colour: ffff
EndChar

StartChar: R
Encoding: 82 82 30
Width: 1270
VWidth: 1823
Flags: HMW
LayerCount: 2
Fore
SplineSet
160 1167 m 1
 253 1273 448 1346 622 1346 c 0
 891 1346 1077 1131 1077 862 c 0
 1077 609 839 407 560 407 c 0
 466 407 366 430 270 483 c 1
 1110 0 l 1025
353 1244 m 1
 282 0 l 1025
EndSplineSet
Colour: ffff
EndChar

StartChar: S
Encoding: 83 83 31
Width: 1182
VWidth: 2426
Flags: HMW
LayerCount: 2
Fore
SplineSet
961 1260 m 0
 859 1317 740 1346 619 1346 c 0
 384 1346 165 1215 165 996 c 0
 165 794 372.159625046 729.529654802 582 666 c 0
 800 600 1022 530 1022 343 c 0
 1022 124 805 15 578 15 c 0
 422 15 261 52 160 108 c 1024
EndSplineSet
Colour: ffff
EndChar

StartChar: T
Encoding: 84 84 32
Width: 1423
VWidth: 2426
Flags: HMW
LayerCount: 2
Fore
SplineSet
708 3 m 0
 702 186 698 368 698 551 c 0
 698 803 704 1047 716 1295 c 1024
160 1316 m 1
 1263 1297 l 1025
EndSplineSet
Colour: ffff
EndChar

StartChar: U
Encoding: 85 85 33
Width: 1310
VWidth: 2426
Flags: HMW
LayerCount: 2
Fore
SplineSet
274 1334 m 0
 232 1141 200 951 200 734 c 0
 200 370 272 15 631 15 c 0
 1080 15 1110 668 1110 1095 c 0
 1110 1184 1106 1274 1102 1361 c 1024
EndSplineSet
Colour: ffff
EndChar

StartChar: V
Encoding: 86 86 34
Width: 1368
VWidth: 2426
Flags: HMW
LayerCount: 2
Fore
SplineSet
160 1316 m 0
 600 45 l 1
 1208 1316 l 1024
EndSplineSet
Colour: ffff
EndChar

StartChar: W
Encoding: 87 87 35
Width: 2006
VWidth: 2426
Flags: HMW
LayerCount: 2
Fore
SplineSet
160 1349 m 0
 553 45 l 1
 1030 1179 l 1
 1415 45 l 1
 1846 1316 l 1024
EndSplineSet
Colour: ffff
EndChar

StartChar: X
Encoding: 88 88 36
Width: 1267
VWidth: 2426
Flags: HMW
LayerCount: 2
Fore
SplineSet
160 0 m 0
 1070 1338 l 1024
203 1277 m 0
 1107 -4 l 1024
EndSplineSet
Colour: ffff
EndChar

StartChar: Y
Encoding: 89 89 37
Width: 1267
VWidth: 2426
Flags: HMW
LayerCount: 2
Fore
SplineSet
160 1287 m 1
 625 633 l 1
 1107 1338 l 1025
636 0 m 1
 625 633 l 1025
EndSplineSet
Colour: ffff
EndChar

StartChar: Z
Encoding: 90 90 38
Width: 1422
VWidth: 2426
Flags: HMW
LayerCount: 2
Fore
SplineSet
160 1270 m 0
 360 1320 538 1346 745 1346 c 0
 878 1346 1100 1331 1100 1241 c 0
 1100 1221 1089 1197 1063 1169 c 0
 726 798 461 466 206 47 c 1
 528 83 851 104 1197 104 c 0
 1218 104 1241 104 1262 104 c 1024
EndSplineSet
Colour: ffff
EndChar

StartChar: zero
Encoding: 48 48 39
Width: 1141
VWidth: 2426
Flags: HMW
LayerCount: 2
Fore
SplineSet
160 486 m 0
 160 815 236 1346 580 1346 c 0
 835 1346 981 1099 981 843 c 0
 981 472 893 15 510 15 c 0
 254 15 160 241 160 486 c 0
EndSplineSet
Colour: ffff
EndChar

StartChar: one
Encoding: 49 49 40
Width: 715
VWidth: 2426
Flags: HMW
LayerCount: 2
Fore
SplineSet
506 0 m 1
 515 1316 l 1
 481 1316 l 1
 398 1222 279 1119 160 1048 c 1025
EndSplineSet
Colour: ffff
EndChar

StartChar: two
Encoding: 50 50 41
Width: 1171
VWidth: 2426
Flags: HMW
LayerCount: 2
Fore
SplineSet
208 904 m 0
 208 1137 366 1346 609 1346 c 0
 824 1346 953 1184 953 1021 c 0
 953 807 768 600 537 389 c 2
 160 45 l 1
 315 61 468 67 626 67 c 0
 752 67 881 62 1011 56 c 1024
EndSplineSet
Colour: ffff
EndChar

StartChar: three
Encoding: 51 51 42
Width: 1078
VWidth: 2426
Flags: HMW
LayerCount: 2
Fore
SplineSet
225 1067 m 0
 264 1241 403 1346 581 1346 c 0
 731 1346 870 1246 870 1008 c 0
 870 778 593 703 361 671 c 1
 412 680 471 690 531 690 c 0
 739 690 911 623 918 412 c 1
 918 190 721 15 484 15 c 0
 368 15 250 52 160 126 c 1024
EndSplineSet
Colour: ffff
EndChar

StartChar: four
Encoding: 52 52 43
Width: 1268
VWidth: 2426
Flags: HMW
LayerCount: 2
Fore
SplineSet
722 1316 m 1
 575 952 402 717 182 420 c 0
 172 407 160 383 160 359 c 0
 160 313 203 296 243 292 c 0
 285 286 326 284 368 284 c 0
 617 284 874 324 1108 381 c 1025
804 781 m 1
 728 0 l 1025
EndSplineSet
Colour: ffff
EndChar

StartChar: five
Encoding: 53 53 44
Width: 1113
VWidth: 2426
Flags: HMW
LayerCount: 2
Fore
SplineSet
943 1337 m 0
 877 1323 770 1316 637 1316 c 0
 492 1316 340 1324 255 1341 c 1
 199 774 l 1
 292 857 408 896 518 896 c 0
 742 896 953 787 953 470 c 0
 953 179 740 15 496 15 c 0
 378 15 258 54 160 132 c 1024
EndSplineSet
Colour: ffff
EndChar

StartChar: six
Encoding: 54 54 45
Width: 1099
VWidth: 2426
Flags: HMW
LayerCount: 2
Fore
SplineSet
844 1281 m 0
 760 1306 685 1317 619 1317 c 0
 255 1317 160 915 160 475 c 0
 160 218 280 15 548 15 c 0
 776 15 943 195 939 417 c 0
 934 686 761 811 576 811 c 0
 393 811 219 686 170 606 c 1024
EndSplineSet
Colour: ffff
EndChar

StartChar: eight
Encoding: 56 56 46
Width: 1079
VWidth: 2426
Flags: HMW
LayerCount: 2
Fore
SplineSet
896 1029 m 0
 820 1228 703 1346 523 1346 c 0
 296 1346 160 1203.10058594 160 1024 c 0
 160 849 325.930664062 704.827148438 453 654 c 0
 618 588 806 466 806 295 c 0
 806 138.900390625 668 15 488 15 c 0
 304 15 164 139.90234375 164 324 c 0
 164 631 638 1013 919 1135 c 1024
EndSplineSet
Colour: ffff
EndChar

StartChar: period
Encoding: 46 46 47
Width: 478
VWidth: 2517
Flags: HMW
LayerCount: 2
Fore
SplineSet
170 87 m 0
 170 75 181 53 201 53 c 0
 217 53 230 65 230 94 c 0
 230 105 222 120 206 120 c 0
 181 120 170 105 170 87 c 0
EndSplineSet
Colour: ffff
EndChar

StartChar: comma
Encoding: 44 44 49
Width: 478
VWidth: 1823
Flags: HMW
LayerCount: 2
Fore
SplineSet
112 -207 m 1
 342 189 l 1025
EndSplineSet
Colour: ffff
EndChar

StartChar: bracketleft
Encoding: 91 91 51
Width: 715
VWidth: 2426
Flags: HMW
LayerCount: 2
Fore
SplineSet
515 1321 m 0
 465 1317 414 1316 361 1316 c 0
 308 1316 257 1317 204 1321 c 1
 218 1204 224 1088 224 972 c 0
 224 829 216 687 208 549 c 0
 200 418 200 389 200 266 c 0
 200 80 311 54 510 45 c 1024
EndSplineSet
Colour: ffff
EndChar

StartChar: bracketright
Encoding: 93 93 52
Width: 726
VWidth: 2426
Flags: HMW
LayerCount: 2
Fore
SplineSet
200 1343 m 0
 295 1328 403 1318 510 1316 c 1
 474 1151 472 1063 472 875 c 0
 472 777 484 678 499 579 c 0
 514 480 526 381 526 285 c 0
 526 86 389 45 207 45 c 1024
EndSplineSet
PairPos2: "'kern' Horizontal Kerning in Arabic lookup 2 per glyph data 0" uni0622 dx=300 dy=0 dh=300 dv=0 dx=0 dy=0 dh=0 dv=0
Colour: ffff
EndChar

StartChar: braceleft
Encoding: 123 123 53
Width: 695
VWidth: 1839
Flags: HMW
LayerCount: 2
Fore
SplineSet
495 45 m 0
 350 45 295 101 295 215 c 0
 295 237 297 261 301 288 c 0
 306 323 309 367 309 413 c 0
 309 566 280 749 212 749 c 0
 208 749 204 749 200 747 c 1
 209 742 218 739 226 739 c 0
 288 739 304 844 304 983 c 0
 304 1028 304 1103 300 1138 c 0
 298 1155 298 1171 298 1186 c 0
 298 1297 346 1361 492 1361 c 1024
EndSplineSet
Colour: ffff
EndChar

StartChar: braceright
Encoding: 125 125 54
Width: 695
VWidth: 0
Flags: HMW
LayerCount: 2
Fore
SplineSet
200 1360 m 0
 345 1360 400 1304 400 1190 c 0
 400 1168 398 1144 394 1117 c 0
 389 1082 386 1038 386 992 c 0
 386 839 415 656 483 656 c 0
 487 656 491 656 495 658 c 1
 486 663 477 666 469 666 c 0
 407 666 391 561 391 422 c 0
 391 377 391 302 395 267 c 0
 397 250 397 234 397 219 c 0
 397 108 349 44 203 44 c 1024
EndSplineSet
PairPos2: "'kern' Horizontal Kerning in Arabic lookup 2 per glyph data 0" uni0622 dx=300 dy=0 dh=300 dv=0 dx=0 dy=0 dh=0 dv=0
Colour: ffff
EndChar

StartChar: grave
Encoding: 96 96 55
Width: 539
VWidth: 2426
Flags: HMW
LayerCount: 2
Fore
SplineSet
180 1482 m 1
 239 1407 313 1271 359 1169 c 1025
EndSplineSet
Colour: ffff
EndChar

StartChar: bar
Encoding: 124 124 56
Width: 417
VWidth: 2426
Flags: HMW
LayerCount: 2
Fore
SplineSet
217 1459 m 0
 217 1040 207 367 200 0 c 1024
EndSplineSet
Colour: ffff
EndChar

StartChar: asciicircum
Encoding: 94 94 57
Width: 718
VWidth: 2426
Flags: HMW
LayerCount: 2
Fore
SplineSet
180 1169 m 25
 346 1438 l 1
 538 1197 l 1049
EndSplineSet
Colour: ffff
EndChar

StartChar: hyphen
Encoding: 45 45 58
Width: 1037
VWidth: 2426
Flags: HMW
LayerCount: 2
Fore
SplineSet
160 437 m 0
 413 459 632 461 877 461 c 1024
EndSplineSet
Colour: ffff
EndChar

StartChar: plus
Encoding: 43 43 59
Width: 1033
VWidth: 2426
Flags: HMW
LayerCount: 2
Fore
SplineSet
467 1053 m 0
 499 911 516 722 516 566 c 0
 516 450 507 350 487 293 c 1024
160 641 m 0
 317 660 466 667 618 667 c 0
 702 667 787 665 873 661 c 1024
EndSplineSet
Colour: ffff
EndChar

StartChar: exclam
Encoding: 33 33 60
Width: 583
VWidth: 0
Flags: HMW
LayerCount: 2
Fore
SplineSet
250 1361 m 0
 286 1097 295 836 295 547 c 0
 295 508 295 466 294 424 c 1024
333 85 m 0
 333 60 323 45 298 45 c 0
 273 45 250 59 250 84 c 0
 250 109 269 128 294 128 c 0
 319 128 333 110 333 85 c 0
EndSplineSet
Colour: ffff
EndChar

StartChar: quotesingle
Encoding: 39 39 62
Width: 331
VWidth: 2426
Flags: HMW
LayerCount: 2
Fore
SplineSet
160 910 m 0
 167 974 171 1049 171 1126 c 0
 171 1205 167 1287 160 1361 c 1032
EndSplineSet
Colour: ffff00
EndChar

StartChar: parenleft
Encoding: 40 40 63
Width: 606
VWidth: 1839
Flags: HMW
LayerCount: 2
Fore
SplineSet
360 1412 m 1
 232 1149 200 967 200 682 c 0
 200 397 278 217 406 -46 c 1025
EndSplineSet
Colour: ffff
EndChar

StartChar: parenright
Encoding: 41 41 64
Width: 606
VWidth: 1839
Flags: HMW
LayerCount: 2
Fore
SplineSet
246 -46 m 1
 374 217 406 399 406 684 c 0
 406 969 328 1149 200 1412 c 1025
EndSplineSet
PairPos2: "'kern' Horizontal Kerning in Arabic lookup 2 per glyph data 0" uni0622 dx=320 dy=0 dh=320 dv=0 dx=0 dy=0 dh=0 dv=0
Colour: ffff
EndChar

StartChar: less
Encoding: 60 60 65
Width: 645
VWidth: 1839
Flags: HMW
LayerCount: 2
Fore
SplineSet
485 413 m 1
 411 535 322 640 220 729 c 1
 322 814 412 917 485 1045 c 1025
EndSplineSet
Colour: ffff
EndChar

StartChar: backslash
Encoding: 92 92 66
Width: 1105
VWidth: 2426
Flags: HMW
LayerCount: 2
Fore
SplineSet
180 1316 m 17
 493 895 734 545 925 0 c 1025
EndSplineSet
Colour: ffff
EndChar

StartChar: asterisk
Encoding: 42 42 67
Width: 1108
VWidth: 1839
Flags: HMW
LayerCount: 2
Fore
SplineSet
907 670 m 0
 793 764 675 845 554 915 c 0
 428 989 296 1050 160 1101 c 1024
200 670 m 0
 314 764 433 845 554 915 c 0
 680 989 812 1050 948 1101 c 1024
517 1345 m 0
 543 1198 554 1055 554 915 c 0
 554 768 541 625 517 482 c 1024
EndSplineSet
Colour: ffff
EndChar

StartChar: numbersign
Encoding: 35 35 68
Width: 1734
VWidth: 1823
Flags: HMW
LayerCount: 2
Fore
SplineSet
160 496 m 1
 1510 445 l 1025
252 922 m 1
 1574 961 l 1025
1053 0 m 1
 1313 1361 l 1025
388 0 m 1
 795 1361 l 1025
EndSplineSet
Colour: ffff
EndChar

StartChar: slash
Encoding: 47 47 70
Width: 965
VWidth: 1839
Flags: HMW
LayerCount: 2
Fore
SplineSet
200 0 m 1
 471 450 667 891 765 1361 c 1025
EndSplineSet
Colour: ffff
EndChar

StartChar: greater
Encoding: 62 62 71
Width: 645
VWidth: 1823
Flags: HMW
LayerCount: 2
Fore
SplineSet
160 1046 m 1
 234 924 323 819 425 730 c 1
 323 645 233 542 160 414 c 1025
EndSplineSet
Colour: ffff
EndChar

StartChar: equal
Encoding: 61 61 72
Width: 1037
VWidth: 1839
Flags: HMW
LayerCount: 2
Fore
SplineSet
160 875 m 1
 275 865 465 861 557 861 c 0
 668 861 784 867 877 875 c 1025
160 471 m 1
 216 460 393 456 498 456 c 0
 605 456 747 461 877 471 c 1025
EndSplineSet
Colour: ffff
EndChar

StartChar: AE
Encoding: 198 198 75
Width: 1908
VWidth: 2426
Flags: HMW
LayerCount: 2
Fore
SplineSet
1025 1316 m 0
 1026 1259 1027 1191 1027 1119 c 0
 1027 828 1024 451 983 217 c 0
 980 202 978 186 978 173 c 0
 978 55 1105 8 1246 0 c 0
 1372 -8 1474 -13 1602 -13 c 0
 1644 -13 1684 -13 1726 -12 c 1033
1748 1374 m 17
 1582 1335 1407 1317 1224 1317 c 0
 1152 1317 567 1321 492 1325 c 1
 492 890 429 318 160 0 c 1025
388 692 m 0
 548 705 922 711 1119 711 c 0
 1319 711 1516 705 1663 693 c 1033
EndSplineSet
Colour: ffff
EndChar

StartChar: cedilla
Encoding: 184 184 77
Width: 717
VWidth: 2426
Flags: HMW
LayerCount: 2
Fore
SplineSet
327 0 m 0
 416 -72 557 -239 557 -361 c 0
 557 -441 495 -501 319 -501 c 0
 258 -501 199 -492 160 -481 c 1025
EndSplineSet
Colour: ffff
EndChar

StartChar: Oslash
Encoding: 216 216 78
Width: 1494
VWidth: 1823
Flags: HMW
LayerCount: 2
Fore
SplineSet
170 0 m 1
 520 525 894 917 1334 1316 c 1025
EndSplineSet
Refer: 27 79 N 1 0 0 1 0 0 2
Colour: ffff
EndChar

StartChar: uni0627
Encoding: 1575 1575 80
Width: 445
VWidth: 1839
Flags: HMW
AnchorPoint: "Anchor-3" 200 1169 basechar 0
AnchorPoint: "Anchor-1" 218 0 basechar 0
LayerCount: 2
Fore
SplineSet
200 1166 m 0
 232 926 245 794 245 531 c 0
 245 366 238 166 224 1 c 1024
EndSplineSet
PairPos2: "'kern' Horizontal Kerning in Arabic lookup 2 per glyph data 0" uni063A dx=-267 dy=0 dh=-267 dv=0 dx=0 dy=0 dh=0 dv=0
PairPos2: "'kern' Horizontal Kerning in Arabic lookup 2 per glyph data 0" uni0639 dx=-267 dy=0 dh=-267 dv=0 dx=0 dy=0 dh=0 dv=0
Substitution2: "'fina' Terminal Forms in Arabic lookup 4 subtable" uniFE8E
PairPos2: "'kern' Horizontal Kerning in Arabic lookup 2 per glyph data 1" uni0639 dx=-200 dy=0 dh=-200 dv=0 dx=0 dy=0 dh=0 dv=0
PairPos2: "'kern' Horizontal Kerning in Arabic lookup 2 per glyph data 1" uni063A dx=-200 dy=0 dh=-200 dv=0 dx=0 dy=0 dh=0 dv=0
Colour: ffff
EndChar

StartChar: uni066E
Encoding: 1646 1646 81
Width: 1726
VWidth: 2370
Flags: HMW
AnchorPoint: "Anchor-3" 838 489 basechar 0
AnchorPoint: "Anchor-1" 803 -30 basechar 0
LayerCount: 2
Fore
SplineSet
1508 627 m 0
 1540 571 1566 471 1566 383 c 0
 1566 67 1132 15 843 15 c 0
 532 15 160 61 160 373 c 0
 160 444 177 540 200 586 c 1024
EndSplineSet
Substitution2: "'fina' Terminal Forms in Arabic lookup 4 subtable" uniFBE8
Colour: ffff
EndChar

StartChar: uni0631
Encoding: 1585 1585 82
Width: 807
VWidth: 2370
Flags: HMW
AnchorPoint: "Anchor-1" 425 -394 basechar 0
AnchorPoint: "Anchor-3" 522 566 basechar 0
LayerCount: 2
Fore
SplineSet
542 484 m 1
 584 326 607 189 607 71 c 0
 607 -220 479 -391 160 -457 c 1024
EndSplineSet
PairPos2: "'kern' Horizontal Kerning in Arabic lookup 2 per glyph data 2" uniFC3E dx=-400 dy=0 dh=-400 dv=0 dx=0 dy=0 dh=0 dv=0
PairPos2: "'kern' Horizontal Kerning in Arabic lookup 2 per glyph data 2" uniFC3D dx=-400 dy=0 dh=-400 dv=0 dx=0 dy=0 dh=0 dv=0
PairPos2: "'kern' Horizontal Kerning in Arabic lookup 2 per glyph data 2" uniE028 dx=-400 dy=0 dh=-400 dv=0 dx=0 dy=0 dh=0 dv=0
PairPos2: "'kern' Horizontal Kerning in Arabic lookup 2 per glyph data 2" uniE027 dx=-234 dy=0 dh=-234 dv=0 dx=0 dy=0 dh=0 dv=0
PairPos2: "'kern' Horizontal Kerning in Arabic lookup 2 per glyph data 2" uniE026 dx=-234 dy=0 dh=-234 dv=0 dx=0 dy=0 dh=0 dv=0
PairPos2: "'kern' Horizontal Kerning in Arabic lookup 2 per glyph data 2" uniE023 dx=-400 dy=0 dh=-400 dv=0 dx=0 dy=0 dh=0 dv=0
PairPos2: "'kern' Horizontal Kerning in Arabic lookup 2 per glyph data 2" uniFC37 dx=-400 dy=0 dh=-400 dv=0 dx=0 dy=0 dh=0 dv=0
PairPos2: "'kern' Horizontal Kerning in Arabic lookup 2 per glyph data 2" uniFC36 dx=-234 dy=0 dh=-234 dv=0 dx=0 dy=0 dh=0 dv=0
PairPos2: "'kern' Horizontal Kerning in Arabic lookup 2 per glyph data 2" uniFC35 dx=-234 dy=0 dh=-234 dv=0 dx=0 dy=0 dh=0 dv=0
PairPos2: "'kern' Horizontal Kerning in Arabic lookup 2 per glyph data 2" uniFC32 dx=-234 dy=0 dh=-234 dv=0 dx=0 dy=0 dh=0 dv=0
PairPos2: "'kern' Horizontal Kerning in Arabic lookup 2 per glyph data 2" uniFC31 dx=-234 dy=0 dh=-234 dv=0 dx=0 dy=0 dh=0 dv=0
PairPos2: "'kern' Horizontal Kerning in Arabic lookup 2 per glyph data 2" uniFD08 dx=-234 dy=0 dh=-234 dv=0 dx=0 dy=0 dh=0 dv=0
PairPos2: "'kern' Horizontal Kerning in Arabic lookup 2 per glyph data 2" uniFD07 dx=-234 dy=0 dh=-234 dv=0 dx=0 dy=0 dh=0 dv=0
PairPos2: "'kern' Horizontal Kerning in Arabic lookup 2 per glyph data 2" uniFD06 dx=-234 dy=0 dh=-234 dv=0 dx=0 dy=0 dh=0 dv=0
PairPos2: "'kern' Horizontal Kerning in Arabic lookup 2 per glyph data 2" uniFD05 dx=-234 dy=0 dh=-234 dv=0 dx=0 dy=0 dh=0 dv=0
PairPos2: "'kern' Horizontal Kerning in Arabic lookup 2 per glyph data 2" uniFCFE dx=-234 dy=0 dh=-234 dv=0 dx=0 dy=0 dh=0 dv=0
PairPos2: "'kern' Horizontal Kerning in Arabic lookup 2 per glyph data 2" uniFCFD dx=-234 dy=0 dh=-234 dv=0 dx=0 dy=0 dh=0 dv=0
PairPos2: "'kern' Horizontal Kerning in Arabic lookup 2 per glyph data 2" uniFCFC dx=-234 dy=0 dh=-234 dv=0 dx=0 dy=0 dh=0 dv=0
PairPos2: "'kern' Horizontal Kerning in Arabic lookup 2 per glyph data 2" uniFCFB dx=-234 dy=0 dh=-234 dv=0 dx=0 dy=0 dh=0 dv=0
PairPos2: "'kern' Horizontal Kerning in Arabic lookup 2 per glyph data 2" uniE01B dx=-150 dy=0 dh=-150 dv=0 dx=0 dy=0 dh=0 dv=0
PairPos2: "'kern' Horizontal Kerning in Arabic lookup 2 per glyph data 2" uniE019 dx=-150 dy=0 dh=-150 dv=0 dx=0 dy=0 dh=0 dv=0
PairPos2: "'kern' Horizontal Kerning in Arabic lookup 2 per glyph data 2" uniE017 dx=-150 dy=0 dh=-150 dv=0 dx=0 dy=0 dh=0 dv=0
Substitution2: "Single Substitution 1 subtable" uniE017
PairPos2: "'kern' Horizontal Kerning in Arabic lookup 2 per glyph data 0" period dx=-250 dy=0 dh=-250 dv=0 dx=0 dy=0 dh=0 dv=0
PairPos2: "'kern' Horizontal Kerning in Arabic lookup 2 per glyph data 0" uni060C dx=-250 dy=0 dh=-250 dv=0 dx=0 dy=0 dh=0 dv=0
PairPos2: "'kern' Horizontal Kerning in Arabic lookup 2 per glyph data 0" uni061B dx=-250 dy=0 dh=-250 dv=0 dx=0 dy=0 dh=0 dv=0
PairPos2: "'kern' Horizontal Kerning in Arabic lookup 2 per glyph data 0" parenleft dx=-250 dy=0 dh=-250 dv=0 dx=0 dy=0 dh=0 dv=0
PairPos2: "'kern' Horizontal Kerning in Arabic lookup 2 per glyph data 0" braceleft dx=-250 dy=0 dh=-250 dv=0 dx=0 dy=0 dh=0 dv=0
PairPos2: "'kern' Horizontal Kerning in Arabic lookup 2 per glyph data 0" bracketleft dx=-250 dy=0 dh=-250 dv=0 dx=0 dy=0 dh=0 dv=0
PairPos2: "'kern' Horizontal Kerning in Arabic lookup 2 per glyph data 5" space dx=-372 dy=0 dh=-372 dv=0 dx=0 dy=0 dh=0 dv=0
PairPos2: "'kern' Horizontal Kerning in Arabic lookup 2 per glyph data 2" uni0626 dx=-50 dy=0 dh=-50 dv=0 dx=0 dy=0 dh=0 dv=0
PairPos2: "'kern' Horizontal Kerning in Arabic lookup 2 per glyph data 2" uni064A dx=-50 dy=0 dh=-50 dv=0 dx=0 dy=0 dh=0 dv=0
PairPos2: "'kern' Horizontal Kerning in Arabic lookup 2 per glyph data 2" uni0649 dx=-50 dy=0 dh=-50 dv=0 dx=0 dy=0 dh=0 dv=0
PairPos2: "'kern' Horizontal Kerning in Arabic lookup 2 per glyph data 2" uni06CC dx=-50 dy=0 dh=-50 dv=0 dx=0 dy=0 dh=0 dv=0
PairPos2: "'kern' Horizontal Kerning in Arabic lookup 2 per glyph data 2" uniFBFE dx=-40 dy=0 dh=-40 dv=0 dx=0 dy=0 dh=0 dv=0
PairPos2: "'kern' Horizontal Kerning in Arabic lookup 2 per glyph data 2" uniFEF3 dx=-40 dy=0 dh=-40 dv=0 dx=0 dy=0 dh=0 dv=0
PairPos2: "'kern' Horizontal Kerning in Arabic lookup 2 per glyph data 2" uniFB58 dx=-40 dy=0 dh=-40 dv=0 dx=0 dy=0 dh=0 dv=0
Substitution2: "'fina' Terminal Forms in Arabic lookup 4 subtable" uniFEAE
PairPos2: "'kern' Horizontal Kerning in Arabic lookup 2 per glyph data 2" uni0622 dx=-167 dy=0 dh=-167 dv=0 dx=0 dy=0 dh=0 dv=0
PairPos2: "'kern' Horizontal Kerning in Arabic lookup 2 per glyph data 2" uni0623 dx=-167 dy=0 dh=-167 dv=0 dx=0 dy=0 dh=0 dv=0
PairPos2: "'kern' Horizontal Kerning in Arabic lookup 2 per glyph data 2" uni0624 dx=-133 dy=0 dh=-133 dv=0 dx=0 dy=0 dh=0 dv=0
PairPos2: "'kern' Horizontal Kerning in Arabic lookup 2 per glyph data 2" uni0627 dx=-167 dy=0 dh=-167 dv=0 dx=0 dy=0 dh=0 dv=0
PairPos2: "'kern' Horizontal Kerning in Arabic lookup 2 per glyph data 2" uni0628 dx=-234 dy=0 dh=-234 dv=0 dx=0 dy=0 dh=0 dv=0
PairPos2: "'kern' Horizontal Kerning in Arabic lookup 2 per glyph data 2" uni0629 dx=-234 dy=0 dh=-234 dv=0 dx=0 dy=0 dh=0 dv=0
PairPos2: "'kern' Horizontal Kerning in Arabic lookup 2 per glyph data 2" uni062A dx=-234 dy=0 dh=-234 dv=0 dx=0 dy=0 dh=0 dv=0
PairPos2: "'kern' Horizontal Kerning in Arabic lookup 2 per glyph data 2" uni062B dx=-234 dy=0 dh=-234 dv=0 dx=0 dy=0 dh=0 dv=0
PairPos2: "'kern' Horizontal Kerning in Arabic lookup 2 per glyph data 2" uni062F dx=-250 dy=0 dh=-250 dv=0 dx=0 dy=0 dh=0 dv=0
PairPos2: "'kern' Horizontal Kerning in Arabic lookup 2 per glyph data 2" uni0630 dx=-250 dy=0 dh=-250 dv=0 dx=0 dy=0 dh=0 dv=0
PairPos2: "'kern' Horizontal Kerning in Arabic lookup 2 per glyph data 2" uni0631 dx=-150 dy=0 dh=-150 dv=0 dx=0 dy=0 dh=0 dv=0
PairPos2: "'kern' Horizontal Kerning in Arabic lookup 2 per glyph data 2" uni0632 dx=-150 dy=0 dh=-150 dv=0 dx=0 dy=0 dh=0 dv=0
PairPos2: "'kern' Horizontal Kerning in Arabic lookup 2 per glyph data 2" uni0633 dx=-234 dy=0 dh=-234 dv=0 dx=0 dy=0 dh=0 dv=0
PairPos2: "'kern' Horizontal Kerning in Arabic lookup 2 per glyph data 2" uni0634 dx=-234 dy=0 dh=-234 dv=0 dx=0 dy=0 dh=0 dv=0
PairPos2: "'kern' Horizontal Kerning in Arabic lookup 2 per glyph data 2" uni0635 dx=-234 dy=0 dh=-234 dv=0 dx=0 dy=0 dh=0 dv=0
PairPos2: "'kern' Horizontal Kerning in Arabic lookup 2 per glyph data 2" uni0636 dx=-234 dy=0 dh=-234 dv=0 dx=0 dy=0 dh=0 dv=0
PairPos2: "'kern' Horizontal Kerning in Arabic lookup 2 per glyph data 2" uni0637 dx=-234 dy=0 dh=-234 dv=0 dx=0 dy=0 dh=0 dv=0
PairPos2: "'kern' Horizontal Kerning in Arabic lookup 2 per glyph data 2" uni0638 dx=-234 dy=0 dh=-234 dv=0 dx=0 dy=0 dh=0 dv=0
PairPos2: "'kern' Horizontal Kerning in Arabic lookup 2 per glyph data 2" uni0641 dx=-234 dy=0 dh=-234 dv=0 dx=0 dy=0 dh=0 dv=0
PairPos2: "'kern' Horizontal Kerning in Arabic lookup 2 per glyph data 2" uni0642 dx=-40 dy=0 dh=-40 dv=0 dx=0 dy=0 dh=0 dv=0
PairPos2: "'kern' Horizontal Kerning in Arabic lookup 2 per glyph data 2" uni0643 dx=-234 dy=0 dh=-234 dv=0 dx=0 dy=0 dh=0 dv=0
PairPos2: "'kern' Horizontal Kerning in Arabic lookup 2 per glyph data 2" uni0644 dx=-100 dy=0 dh=-100 dv=0 dx=0 dy=0 dh=0 dv=0
PairPos2: "'kern' Horizontal Kerning in Arabic lookup 2 per glyph data 2" uni0645 dx=-234 dy=0 dh=-234 dv=0 dx=0 dy=0 dh=0 dv=0
PairPos2: "'kern' Horizontal Kerning in Arabic lookup 2 per glyph data 2" uni0646 dx=-40 dy=0 dh=-40 dv=0 dx=0 dy=0 dh=0 dv=0
PairPos2: "'kern' Horizontal Kerning in Arabic lookup 2 per glyph data 2" uni0647 dx=-234 dy=0 dh=-234 dv=0 dx=0 dy=0 dh=0 dv=0
PairPos2: "'kern' Horizontal Kerning in Arabic lookup 2 per glyph data 2" uni0648 dx=-133 dy=0 dh=-133 dv=0 dx=0 dy=0 dh=0 dv=0
PairPos2: "'kern' Horizontal Kerning in Arabic lookup 2 per glyph data 2" uni067E dx=-234 dy=0 dh=-234 dv=0 dx=0 dy=0 dh=0 dv=0
PairPos2: "'kern' Horizontal Kerning in Arabic lookup 2 per glyph data 2" uni0698 dx=-150 dy=0 dh=-150 dv=0 dx=0 dy=0 dh=0 dv=0
PairPos2: "'kern' Horizontal Kerning in Arabic lookup 2 per glyph data 2" uni06A9 dx=-400 dy=0 dh=-400 dv=0 dx=0 dy=0 dh=0 dv=0
PairPos2: "'kern' Horizontal Kerning in Arabic lookup 2 per glyph data 2" uni06AF dx=-400 dy=0 dh=-400 dv=0 dx=0 dy=0 dh=0 dv=0
PairPos2: "'kern' Horizontal Kerning in Arabic lookup 2 per glyph data 2" uni06C0 dx=-234 dy=0 dh=-234 dv=0 dx=0 dy=0 dh=0 dv=0
PairPos2: "'kern' Horizontal Kerning in Arabic lookup 2 per glyph data 2" uni06CA dx=-133 dy=0 dh=-133 dv=0 dx=0 dy=0 dh=0 dv=0
PairPos2: "'kern' Horizontal Kerning in Arabic lookup 2 per glyph data 2" uniFB7C dx=-234 dy=0 dh=-234 dv=0 dx=0 dy=0 dh=0 dv=0
PairPos2: "'kern' Horizontal Kerning in Arabic lookup 2 per glyph data 2" uniFB90 dx=-400 dy=0 dh=-400 dv=0 dx=0 dy=0 dh=0 dv=0
PairPos2: "'kern' Horizontal Kerning in Arabic lookup 2 per glyph data 2" uniFB94 dx=-400 dy=0 dh=-400 dv=0 dx=0 dy=0 dh=0 dv=0
PairPos2: "'kern' Horizontal Kerning in Arabic lookup 2 per glyph data 2" uniFE8B dx=-200 dy=0 dh=-200 dv=0 dx=0 dy=0 dh=0 dv=0
PairPos2: "'kern' Horizontal Kerning in Arabic lookup 2 per glyph data 2" uniFE91 dx=-200 dy=0 dh=-200 dv=0 dx=0 dy=0 dh=0 dv=0
PairPos2: "'kern' Horizontal Kerning in Arabic lookup 2 per glyph data 2" uniFE97 dx=-200 dy=0 dh=-200 dv=0 dx=0 dy=0 dh=0 dv=0
PairPos2: "'kern' Horizontal Kerning in Arabic lookup 2 per glyph data 2" uniFE9B dx=-200 dy=0 dh=-200 dv=0 dx=0 dy=0 dh=0 dv=0
PairPos2: "'kern' Horizontal Kerning in Arabic lookup 2 per glyph data 2" uniFE9F dx=-134 dy=0 dh=-134 dv=0 dx=0 dy=0 dh=0 dv=0
PairPos2: "'kern' Horizontal Kerning in Arabic lookup 2 per glyph data 2" uniFEA3 dx=-134 dy=0 dh=-134 dv=0 dx=0 dy=0 dh=0 dv=0
PairPos2: "'kern' Horizontal Kerning in Arabic lookup 2 per glyph data 2" uniFEA7 dx=-134 dy=0 dh=-134 dv=0 dx=0 dy=0 dh=0 dv=0
PairPos2: "'kern' Horizontal Kerning in Arabic lookup 2 per glyph data 2" uniFEB3 dx=-234 dy=0 dh=-234 dv=0 dx=0 dy=0 dh=0 dv=0
PairPos2: "'kern' Horizontal Kerning in Arabic lookup 2 per glyph data 2" uniFEB7 dx=-234 dy=0 dh=-234 dv=0 dx=0 dy=0 dh=0 dv=0
PairPos2: "'kern' Horizontal Kerning in Arabic lookup 2 per glyph data 2" uniFEBB dx=-234 dy=0 dh=-234 dv=0 dx=0 dy=0 dh=0 dv=0
PairPos2: "'kern' Horizontal Kerning in Arabic lookup 2 per glyph data 2" uniFEBF dx=-234 dy=0 dh=-234 dv=0 dx=0 dy=0 dh=0 dv=0
PairPos2: "'kern' Horizontal Kerning in Arabic lookup 2 per glyph data 2" uniFEC3 dx=-234 dy=0 dh=-234 dv=0 dx=0 dy=0 dh=0 dv=0
PairPos2: "'kern' Horizontal Kerning in Arabic lookup 2 per glyph data 2" uniFEC7 dx=-234 dy=0 dh=-234 dv=0 dx=0 dy=0 dh=0 dv=0
PairPos2: "'kern' Horizontal Kerning in Arabic lookup 2 per glyph data 2" uniFECB dx=-234 dy=0 dh=-234 dv=0 dx=0 dy=0 dh=0 dv=0
PairPos2: "'kern' Horizontal Kerning in Arabic lookup 2 per glyph data 2" uniFECF dx=-234 dy=0 dh=-234 dv=0 dx=0 dy=0 dh=0 dv=0
PairPos2: "'kern' Horizontal Kerning in Arabic lookup 2 per glyph data 2" uniFED3 dx=-234 dy=0 dh=-234 dv=0 dx=0 dy=0 dh=0 dv=0
PairPos2: "'kern' Horizontal Kerning in Arabic lookup 2 per glyph data 2" uniFED7 dx=-234 dy=0 dh=-234 dv=0 dx=0 dy=0 dh=0 dv=0
PairPos2: "'kern' Horizontal Kerning in Arabic lookup 2 per glyph data 2" uniFEDB dx=-400 dy=0 dh=-400 dv=0 dx=0 dy=0 dh=0 dv=0
PairPos2: "'kern' Horizontal Kerning in Arabic lookup 2 per glyph data 2" uniFEDF dx=-234 dy=0 dh=-234 dv=0 dx=0 dy=0 dh=0 dv=0
PairPos2: "'kern' Horizontal Kerning in Arabic lookup 2 per glyph data 2" uniFEE3 dx=-234 dy=0 dh=-234 dv=0 dx=0 dy=0 dh=0 dv=0
PairPos2: "'kern' Horizontal Kerning in Arabic lookup 2 per glyph data 2" uniFEE7 dx=-234 dy=0 dh=-234 dv=0 dx=0 dy=0 dh=0 dv=0
PairPos2: "'kern' Horizontal Kerning in Arabic lookup 2 per glyph data 2" uniFEEB dx=-234 dy=0 dh=-234 dv=0 dx=0 dy=0 dh=0 dv=0
PairPos2: "'kern' Horizontal Kerning in Arabic lookup 2 per glyph data 2" uniFEF5 dx=-234 dy=0 dh=-234 dv=0 dx=0 dy=0 dh=0 dv=0
PairPos2: "'kern' Horizontal Kerning in Arabic lookup 2 per glyph data 2" uniFEF7 dx=-234 dy=0 dh=-234 dv=0 dx=0 dy=0 dh=0 dv=0
PairPos2: "'kern' Horizontal Kerning in Arabic lookup 2 per glyph data 2" uniFEF9 dx=-234 dy=0 dh=-234 dv=0 dx=0 dy=0 dh=0 dv=0
PairPos2: "'kern' Horizontal Kerning in Arabic lookup 2 per glyph data 2" uniFEFB dx=-234 dy=0 dh=-234 dv=0 dx=0 dy=0 dh=0 dv=0
PairPos2: "'kern' Horizontal Kerning in Arabic lookup 2 per glyph data 1" uni0639 dx=-90 dy=0 dh=-90 dv=0 dx=0 dy=0 dh=0 dv=0
PairPos2: "'kern' Horizontal Kerning in Arabic lookup 2 per glyph data 1" uni063A dx=-90 dy=0 dh=-90 dv=0 dx=0 dy=0 dh=0 dv=0
Colour: ffff
EndChar

StartChar: uni0633
Encoding: 1587 1587 83
Width: 2260
VWidth: 2279
Flags: HMW
AnchorPoint: "Anchor-1" 644 -563 basechar 0
AnchorPoint: "Anchor-3" 1542 533 basechar 0
LayerCount: 2
Fore
SplineSet
256 359 m 17
 199 221 160 74 160 -58 c 0
 160 -290 309 -473 644 -473 c 0
 967 -473 1120 -278 1120 -23 c 0
 1120 103 1090 243 1038 382 c 1
 1112 185 1177 20 1364 20 c 0
 1523 20 1608 112 1643 420 c 1
 1635 362 1631 329 1631 275 c 0
 1631 192 1654 126 1696 81 c 0
 1736 39 1794 16 1867 16 c 0
 1937 16 1994 41 2034 87 c 0
 2077 136 2100 208 2100 298 c 0
 2100 400 2081 489 2060 567 c 1033
EndSplineSet
Substitution2: "'init' Initial Forms in Arabic lookup 6 subtable" uniFEB3
Substitution2: "'medi' Medial Forms in Arabic lookup 5 subtable" uniFEB4
Substitution2: "'fina' Terminal Forms in Arabic lookup 4 subtable" uniFEB2
Colour: ffff
EndChar

StartChar: uni066F
Encoding: 1647 1647 84
Width: 1439
VWidth: 2370
Flags: HMW
AnchorPoint: "Anchor-1" 710 -526 basechar 0
AnchorPoint: "Anchor-3" 987 823 basechar 0
LayerCount: 2
Fore
SplineSet
1244 70 m 0
 1175 33 1097 14 996 14 c 0
 821 14 723 86 723 260 c 0
 723 456 834 643 998 643 c 0
 1229 643 1279 314 1279 91 c 0
 1279 -255 1103 -466 717 -466 c 0
 333 -466 160 -295 160 -40 c 0
 160 104 211 274 304 455 c 1025
EndSplineSet
Substitution2: "'fina' Terminal Forms in Arabic lookup 4 subtable" uniE005
Colour: ffff
EndChar

StartChar: uni06BA
Encoding: 1722 1722 85
Width: 1384
VWidth: 2370
Flags: HMW
AnchorPoint: "Anchor-3" 692 493 basechar 0
AnchorPoint: "Anchor-1" 709 -476 basechar 0
LayerCount: 2
Back
SplineSet
251 404 m 17
 203 285 160 148 160 -2 c 0
 160 -298 390 -425 702 -425 c 0
 1019 -425 1224 -277 1224 27 c 0
 1224 188 1179 332 1127 459 c 1033
EndSplineSet
Fore
SplineSet
234 404 m 16
 186 279 160 129 160 16 c 0
 160 -258 329 -425 697 -425 c 0
 1073 -425 1224 -240 1224 23 c 0
 1224 158 1188 319 1128 459 c 1032
EndSplineSet
Colour: ffff
EndChar

StartChar: uni06A1
Encoding: 1697 1697 86
Width: 1719
VWidth: 2370
Flags: HMW
AnchorPoint: "Anchor-1" 811 -30 basechar 0
AnchorPoint: "Anchor-3" 1302 1200 basechar 0
LayerCount: 2
Fore
SplineSet
1548 453 m 0
 1471 419 1362 393 1259 393 c 0
 1058 393 994 498 994 658 c 0
 994 840 1096 1032 1280 1032 c 0
 1482 1032 1559 755 1559 406 c 0
 1559 74 1188 11 829 11 c 0
 506 11 160 68 160 367 c 0
 160 439 175 507 193 570 c 1024
EndSplineSet
Substitution2: "'medi' Medial Forms in Arabic lookup 5 subtable" uniE006
Substitution2: "'fina' Terminal Forms in Arabic lookup 4 subtable" uniE005
Colour: ffff
EndChar

StartChar: uni0644
Encoding: 1604 1604 87
Width: 1256
VWidth: 2370
Flags: HMW
AnchorPoint: "Anchor-3" 510 596 basechar 0
AnchorPoint: "Anchor-1" 623 -526 basechar 0
LayerCount: 2
Fore
SplineSet
1047 1211 m 17
 1075 821 1096 494 1096 148 c 0
 1096 -189 995 -424 619 -424 c 0
 329 -424 160 -257 160 -15 c 0
 160 113 205 258 255 358 c 1033
EndSplineSet
Substitution2: "'init' Initial Forms in Arabic lookup 6 subtable" uniFEDF
Substitution2: "'medi' Medial Forms in Arabic lookup 5 subtable" uniFEE0
Substitution2: "'fina' Terminal Forms in Arabic lookup 4 subtable" uniFEDE
Colour: ffff
EndChar

StartChar: uni0645
Encoding: 1605 1605 88
Width: 1177
VWidth: 2370
Flags: HMW
AnchorPoint: "Anchor-3" 739 649 basechar 0
AnchorPoint: "Anchor-1" 615 -170 basechar 0
LayerCount: 2
Fore
SplineSet
191 -804 m 25
 161 -219 l 2
 160 -200 160 -183 160 -166 c 0
 160 27 234 80 332 80 c 0
 385 80 450 67 520 52 c 0
 606 34 701 15 796 15 c 0
 931 15 1017 80 1017 221 c 0
 1017 452 889 573 724 573 c 0
 513 573 440 312 421 196 c 1033
EndSplineSet
Substitution2: "'init' Initial Forms in Arabic lookup 6 subtable" uniFEE3
Substitution2: "'medi' Medial Forms in Arabic lookup 5 subtable" uniFEE4
Substitution2: "'fina' Terminal Forms in Arabic lookup 4 subtable" uniFEE2
Colour: ffff
EndChar

StartChar: uni0635
Encoding: 1589 1589 89
Width: 2305
VWidth: 2279
Flags: HMW
AnchorPoint: "Anchor-1" 589 -563 basechar 0
AnchorPoint: "Anchor-3" 1879 791 basechar 0
LayerCount: 2
Fore
SplineSet
1328 151 m 0
 1456 422 1627 610 1873 610 c 0
 2021 610 2145 522 2145 378 c 0
 2145 136 1877 15 1650 15 c 0
 1282 15 1137 159 1051 366 c 1
 1096 228 1119 102 1119 -7 c 0
 1119 -298 953 -473 589 -473 c 0
 368 -473 160 -364 160 -117 c 0
 160 43 237 229 334 381 c 1033
EndSplineSet
Substitution2: "'init' Initial Forms in Arabic lookup 6 subtable" uniFEBB
Substitution2: "'medi' Medial Forms in Arabic lookup 5 subtable" uniFEBC
Substitution2: "'fina' Terminal Forms in Arabic lookup 4 subtable" uniFEBA
Colour: ffff
EndChar

StartChar: uni0648
Encoding: 1608 1608 90
Width: 878
VWidth: 2370
Flags: HMW
AnchorPoint: "Anchor-1" 464 -437 basechar 0
AnchorPoint: "Anchor-3" 444 721 basechar 0
LayerCount: 2
Fore
SplineSet
605 36 m 0
 548 22 497 15 452 15 c 0
 289 15 204 102 204 260 c 0
 204 473 303 646 444 646 c 0
 659 646 718 324 718 108 c 0
 718 -245 495 -398 160 -461 c 1024
EndSplineSet
PairPos2: "'kern' Horizontal Kerning in Arabic lookup 2 per glyph data 3" uniE028 dx=-233 dy=0 dh=-233 dv=0 dx=0 dy=0 dh=0 dv=0
PairPos2: "'kern' Horizontal Kerning in Arabic lookup 2 per glyph data 3" uniFC3E dx=-233 dy=0 dh=-233 dv=0 dx=0 dy=0 dh=0 dv=0
PairPos2: "'kern' Horizontal Kerning in Arabic lookup 2 per glyph data 3" uniFC3D dx=-233 dy=0 dh=-233 dv=0 dx=0 dy=0 dh=0 dv=0
PairPos2: "'kern' Horizontal Kerning in Arabic lookup 2 per glyph data 3" uniFC37 dx=-233 dy=0 dh=-233 dv=0 dx=0 dy=0 dh=0 dv=0
PairPos2: "'kern' Horizontal Kerning in Arabic lookup 2 per glyph data 3" uniE023 dx=-233 dy=0 dh=-233 dv=0 dx=0 dy=0 dh=0 dv=0
PairPos2: "'kern' Horizontal Kerning in Arabic lookup 2 per glyph data 4" uni0625 dx=223 dy=0 dh=223 dv=0 dx=0 dy=0 dh=0 dv=0
Substitution2: "'fina' Terminal Forms in Arabic lookup 4 subtable" uniFEEE
PairPos2: "'kern' Horizontal Kerning in Arabic lookup 2 per glyph data 3" uni06A9 dx=-233 dy=0 dh=-233 dv=0 dx=0 dy=0 dh=0 dv=0
PairPos2: "'kern' Horizontal Kerning in Arabic lookup 2 per glyph data 3" uni06AF dx=-233 dy=0 dh=-233 dv=0 dx=0 dy=0 dh=0 dv=0
PairPos2: "'kern' Horizontal Kerning in Arabic lookup 2 per glyph data 3" uniFB90 dx=-233 dy=0 dh=-233 dv=0 dx=0 dy=0 dh=0 dv=0
PairPos2: "'kern' Horizontal Kerning in Arabic lookup 2 per glyph data 3" uniFB94 dx=-233 dy=0 dh=-233 dv=0 dx=0 dy=0 dh=0 dv=0
PairPos2: "'kern' Horizontal Kerning in Arabic lookup 2 per glyph data 3" uniFEDB dx=-233 dy=0 dh=-233 dv=0 dx=0 dy=0 dh=0 dv=0
Colour: ffff
EndChar

StartChar: uni0637
Encoding: 1591 1591 91
Width: 1511
VWidth: 2370
Flags: HMW
AnchorPoint: "Anchor-3" 1135 781 basechar 0
AnchorPoint: "Anchor-1" 397 -30 basechar 0
LayerCount: 2
Fore
SplineSet
160 45 m 1
 308 25 447 15 574 15 c 0
 1049 15 1351 158 1351 449 c 0
 1351 598 1238 703 1087 703 c 0
 790 703 491 336 388 -72 c 1
 481 217 529 543 529 892 c 0
 529 996 525 1103 516 1211 c 1024
EndSplineSet
Substitution2: "'init' Initial Forms in Arabic lookup 6 subtable" uniFEC3
Substitution2: "'medi' Medial Forms in Arabic lookup 5 subtable" uniFEC4
Substitution2: "'fina' Terminal Forms in Arabic lookup 4 subtable" uniFEC2
Colour: ffff
EndChar

StartChar: uni06A9
Encoding: 1705 1705 92
Width: 1870
VWidth: 2370
Flags: HMW
AnchorPoint: "Anchor-3" 1305 1197 basechar 0
AnchorPoint: "Anchor-1" 768 -65 basechar 0
LayerCount: 2
Fore
SplineSet
1710 1311 m 1
 976 951 l 1
 1163 760 1388 522 1388 303 c 0
 1388 97 1190 15 768 15 c 0
 400 15 160 76 160 340 c 0
 160 393 169 455 190 526 c 1024
EndSplineSet
Substitution2: "'init' Initial Forms in Arabic lookup 6 subtable" uniFB90
Substitution2: "'medi' Medial Forms in Arabic lookup 5 subtable" uniFB91
Substitution2: "'fina' Terminal Forms in Arabic lookup 4 subtable" uniFB8F
Colour: ffff
EndChar

StartChar: uni062F
Encoding: 1583 1583 93
Width: 900
VWidth: 2370
Flags: HMW
AnchorPoint: "Anchor-3" 493 976 basechar 0
AnchorPoint: "Anchor-1" 377 -30 basechar 0
LayerCount: 2
Fore
SplineSet
416 771 m 1
 552 650 740 457 740 245 c 0
 740 107 594 15 397 15 c 0
 324 15 243 27 160 55 c 1024
EndSplineSet
PairPos2: "'kern' Horizontal Kerning in Arabic lookup 2 per glyph data 3" uniE028 dx=-267 dy=0 dh=-267 dv=0 dx=0 dy=0 dh=0 dv=0
PairPos2: "'kern' Horizontal Kerning in Arabic lookup 2 per glyph data 3" uniFC3E dx=-267 dy=0 dh=-267 dv=0 dx=0 dy=0 dh=0 dv=0
PairPos2: "'kern' Horizontal Kerning in Arabic lookup 2 per glyph data 3" uniFC3D dx=-267 dy=0 dh=-267 dv=0 dx=0 dy=0 dh=0 dv=0
PairPos2: "'kern' Horizontal Kerning in Arabic lookup 2 per glyph data 3" uniFC37 dx=-267 dy=0 dh=-267 dv=0 dx=0 dy=0 dh=0 dv=0
PairPos2: "'kern' Horizontal Kerning in Arabic lookup 2 per glyph data 3" uniE023 dx=-267 dy=0 dh=-267 dv=0 dx=0 dy=0 dh=0 dv=0
Substitution2: "'fina' Terminal Forms in Arabic lookup 4 subtable" uniFEAA
PairPos2: "'kern' Horizontal Kerning in Arabic lookup 2 per glyph data 3" uni06A9 dx=-267 dy=0 dh=-267 dv=0 dx=0 dy=0 dh=0 dv=0
PairPos2: "'kern' Horizontal Kerning in Arabic lookup 2 per glyph data 3" uni06AF dx=-267 dy=0 dh=-267 dv=0 dx=0 dy=0 dh=0 dv=0
PairPos2: "'kern' Horizontal Kerning in Arabic lookup 2 per glyph data 3" uniFB90 dx=-267 dy=0 dh=-267 dv=0 dx=0 dy=0 dh=0 dv=0
PairPos2: "'kern' Horizontal Kerning in Arabic lookup 2 per glyph data 3" uniFB94 dx=-267 dy=0 dh=-267 dv=0 dx=0 dy=0 dh=0 dv=0
PairPos2: "'kern' Horizontal Kerning in Arabic lookup 2 per glyph data 3" uniFEDB dx=-267 dy=0 dh=-267 dv=0 dx=0 dy=0 dh=0 dv=0
PairPos2: "'kern' Horizontal Kerning in Arabic lookup 2 per glyph data 1" uni0639 dx=-334 dy=0 dh=-334 dv=0 dx=0 dy=0 dh=0 dv=0
PairPos2: "'kern' Horizontal Kerning in Arabic lookup 2 per glyph data 1" uni063A dx=-334 dy=0 dh=-334 dv=0 dx=0 dy=0 dh=0 dv=0
Colour: ffff
EndChar

StartChar: uni062D
Encoding: 1581 1581 94
Width: 1252
VWidth: 2370
Flags: HMW
AnchorPoint: "Anchor-3" 444 811 basechar 0
AnchorPoint: "Anchor-1" 709 -714 basechar 0
LayerCount: 2
Fore
SplineSet
1088 -496 m 0
 967 -560 830 -593 693 -593 c 0
 428 -593 160 -470 160 -201 c 0
 160 299 968 492 1092 506 c 1
 1012 522 917.84765625 570.71484375 820 623 c 0
 689 693 552 765 433 765 c 0
 328 765 239 708 181 543 c 1033
EndSplineSet
Substitution2: "'init' Initial Forms in Arabic lookup 6 subtable" uniFEA3
Substitution2: "'medi' Medial Forms in Arabic lookup 5 subtable" uniFEA4
Substitution2: "'fina' Terminal Forms in Arabic lookup 4 subtable" uniFEA2
Colour: ffff
EndChar

StartChar: uni0639
Encoding: 1593 1593 95
Width: 1275
VWidth: 2370
Flags: HMW
AnchorPoint: "Anchor-3" 640 1199 basechar 0
AnchorPoint: "Anchor-1" 717 -699 basechar 0
LayerCount: 2
Fore
SplineSet
853 1001 m 0
 798 1060 721 1094 632 1094 c 0
 458 1094 283 944 283 745 c 0
 283 539 462 457 687 457 c 0
 731 457 775 460 818 463 c 0
 841.03125 464.606445312 864 466 886 467 c 1
 566 467 160 202 160 -172 c 0
 160 -469 424 -599 717 -599 c 0
 860 -599 1004 -566 1115 -509 c 1024
EndSplineSet
PairPos2: "'kern' Horizontal Kerning in Arabic lookup 2 per glyph data 2" uniFEEE dx=-100 dy=0 dh=-100 dv=0 dx=0 dy=0 dh=0 dv=0
PairPos2: "'kern' Horizontal Kerning in Arabic lookup 2 per glyph data 2" uniFE86 dx=-100 dy=0 dh=-100 dv=0 dx=0 dy=0 dh=0 dv=0
PairPos2: "'kern' Horizontal Kerning in Arabic lookup 2 per glyph data 2" uni06CA dx=-100 dy=0 dh=-100 dv=0 dx=0 dy=0 dh=0 dv=0
PairPos2: "'kern' Horizontal Kerning in Arabic lookup 2 per glyph data 2" uni0648 dx=-100 dy=0 dh=-100 dv=0 dx=0 dy=0 dh=0 dv=0
PairPos2: "'kern' Horizontal Kerning in Arabic lookup 2 per glyph data 2" uni0624 dx=-100 dy=0 dh=-100 dv=0 dx=0 dy=0 dh=0 dv=0
Substitution2: "'init' Initial Forms in Arabic lookup 6 subtable" uniFECB
Substitution2: "'medi' Medial Forms in Arabic lookup 5 subtable" uniFECC
Substitution2: "'fina' Terminal Forms in Arabic lookup 4 subtable" uniFECA
Colour: ffff
EndChar

StartChar: uni0622
Encoding: 1570 1570 97
Width: 522
VWidth: 1839
Flags: HMW
AnchorPoint: "Anchor-3" 342 1626 basechar 0
AnchorPoint: "Anchor-1" 220 0 basechar 0
LayerCount: 2
Fore
SplineSet
-90 1437 m 0
 -30 1593 59 1681 179 1681 c 0
 239 1681 306 1660 382 1612 c 0
 442 1574 512 1538 602 1538 c 0
 687 1538 765 1595 765 1736 c 1024
280 1146 m 0
 309 930 324 702 324 468 c 0
 324 314 317 158 304 1 c 1024
EndSplineSet
PairPos2: "'kern' Horizontal Kerning in Arabic lookup 2 per glyph data 0" uni0622 dx=300 dy=0 dh=300 dv=0 dx=0 dy=0 dh=0 dv=0
PairPos2: "'kern' Horizontal Kerning in Arabic lookup 2 per glyph data 0" uniE00A dx=300 dy=0 dh=300 dv=0 dx=0 dy=0 dh=0 dv=0
PairPos2: "'kern' Horizontal Kerning in Arabic lookup 2 per glyph data 0" bracketleft dx=250 dy=0 dh=250 dv=0 dx=0 dy=0 dh=0 dv=0
PairPos2: "'kern' Horizontal Kerning in Arabic lookup 2 per glyph data 0" braceleft dx=250 dy=0 dh=250 dv=0 dx=0 dy=0 dh=0 dv=0
PairPos2: "'kern' Horizontal Kerning in Arabic lookup 2 per glyph data 0" parenleft dx=250 dy=0 dh=250 dv=0 dx=0 dy=0 dh=0 dv=0
Substitution2: "Single Substitution 1 subtable" uniE00A
PairPos2: "'kern' Horizontal Kerning in Arabic lookup 2 per glyph data 0" uni063A dx=-267 dy=0 dh=-267 dv=0 dx=0 dy=0 dh=0 dv=0
PairPos2: "'kern' Horizontal Kerning in Arabic lookup 2 per glyph data 0" uni0639 dx=-267 dy=0 dh=-267 dv=0 dx=0 dy=0 dh=0 dv=0
Ligature2: "'liga' Standard Ligatures in Arabic lookup 12 subtable" uni0627 uni0653
Substitution2: "'fina' Terminal Forms in Arabic lookup 4 subtable" uniFE82
PairPos2: "'kern' Horizontal Kerning in Arabic lookup 2 per glyph data 1" uni0639 dx=-200 dy=0 dh=-200 dv=0 dx=0 dy=0 dh=0 dv=0
PairPos2: "'kern' Horizontal Kerning in Arabic lookup 2 per glyph data 1" uni063A dx=-200 dy=0 dh=-200 dv=0 dx=0 dy=0 dh=0 dv=0
LCarets2: 1 0
Colour: ffff
EndChar

StartChar: uni0647
Encoding: 1607 1607 113
Width: 865
VWidth: 2370
Flags: HMW
AnchorPoint: "Anchor-1" 233 59 basechar 0
AnchorPoint: "Anchor-3" 376 976 basechar 0
LayerCount: 2
Fore
SplineSet
335 833 m 17
 558 640 705 412 705 257 c 0
 705 116 597 15 429 15 c 0
 263 15 160 116 160 242 c 0
 160 385 265 590 429 730 c 1033
EndSplineSet
Substitution2: "'init' Initial Forms in Arabic lookup 6 subtable" uniFEEB
Substitution2: "'medi' Medial Forms in Arabic lookup 5 subtable" uniFEEC
Substitution2: "'fina' Terminal Forms in Arabic lookup 4 subtable" uniFEEA
Colour: ffff
EndChar

StartChar: uniFEB3
Encoding: 65203 65203 114
Width: 1545
VWidth: 2370
Flags: HMW
AnchorPoint: "Anchor-1" 844 0 basechar 0
AnchorPoint: "Anchor-3" 908 535 basechar 0
LayerCount: 2
Fore
SplineSet
1324 619 m 1
 1356 510 1385 403 1385 286 c 0
 1385 211.66038015 1371 145 1332 98 c 0
 1295 54 1236.52673311 27 1148 27 c 0
 1076.49554634 27 1019.90788136 53.0518562948 979.585202573 103.999971024 c 0
 931.936607283 164.204455758 907 259.173404258 907 387 c 0
 907 430 907 438 915 488 c 1
 895 282 818 25 583 25 c 0
 517.397002823 25 464.781663348 52.5032751343 428.752295242 97.9999964291 c 0
 393.385262949 142.66034147 374 204.658658455 374 275 c 0
 374 358 378 394 391 482 c 1
 369 229 271 45 0 45 c 1033
EndSplineSet
Colour: ffff
EndChar

StartChar: uniFEB4
Encoding: 65204 65204 115
Width: 1767
VWidth: 2370
Flags: HMW
AnchorPoint: "Anchor-3" 900 535 basechar 0
AnchorPoint: "Anchor-1" 858 0 basechar 0
LayerCount: 2
Fore
SplineSet
1767 45 m 17
 1540 45 1482 130 1434 569 c 1
 1439 483 l 2
 1440 462 1441 440 1441 419 c 0
 1441 299.129281749 1417.15418003 191.495234269 1365.24451418 120.000004454 c 0
 1324.48210253 63.8578979483 1266.41473639 30 1189 30 c 0
 1108.56675836 30 1050.87309779 62.6762047442 1011.40828649 115.999996053 c 0
 960.59294581 184.660317285 940 287.553162205 940 399 c 0
 940 430 941 460 943 490 c 1
 912 270 848 26 612 26 c 0
 540.345961779 26 490 49 457 92 c 0
 415 147 399 233.039874649 399 344 c 0
 399 383 402 453 405 493 c 1
 378 188 286 45 0 45 c 1033
EndSplineSet
Colour: ffff
EndChar

StartChar: uniFEB2
Encoding: 65202 65202 116
Width: 2402
VWidth: 2370
Flags: HMW
AnchorPoint: "Anchor-3" 1607 559 basechar 0
AnchorPoint: "Anchor-1" 644 -564 basechar 0
LayerCount: 2
Fore
SplineSet
256 359 m 17
 199 221 160 74 160 -58 c 0
 160 -290 309 -473 644 -473 c 0
 967 -473 1120 -278 1120 -23 c 0
 1120 103 1090 243 1038 382 c 1
 1128 142 1217 20 1371 20 c 0
 1542 20 1627 112 1662 420 c 1
 1654 362 1650 319 1650 265 c 0
 1650 182 1668 118 1705 76 c 0
 1740 36 1793 16 1866 16 c 0
 1945 16 1997 49 2029 102 c 0
 2061 155 2074 228 2074 309 c 0
 2074 375 2066 445 2053 513 c 1
 2105 208 2149 45 2402 45 c 1025
EndSplineSet
Colour: ffff
EndChar

StartChar: uniFE8E
Encoding: 65166 65166 134
Width: 531
VWidth: 2370
Flags: HMW
AnchorPoint: "Anchor-3" 213 1211 basechar 0
AnchorPoint: "Anchor-1" 337 0 basechar 0
LayerCount: 2
Fore
SplineSet
213 1211 m 0
 205 996 200 748 200 555 c 0
 200 497 200 444 201 398 c 0
 204 282 212 191 264 131 c 0
 312 75 378 45 531 45 c 1024
EndSplineSet
PairPos2: "'kern' Horizontal Kerning in Arabic lookup 2 per glyph data 1" uni0639 dx=-200 dy=0 dh=-200 dv=0 dx=0 dy=0 dh=0 dv=0
PairPos2: "'kern' Horizontal Kerning in Arabic lookup 2 per glyph data 1" uni063A dx=-200 dy=0 dh=-200 dv=0 dx=0 dy=0 dh=0 dv=0
Colour: ffff
EndChar

StartChar: uniFEA2
Encoding: 65186 65186 142
Width: 1332
VWidth: 1255
Flags: HMW
AnchorPoint: "Anchor-3" 449 811 basechar 0
AnchorPoint: "Anchor-1" 714 -744 basechar 0
LayerCount: 2
Fore
SplineSet
1332 45 m 0
 1077 45 892 186 892 458 c 1025
EndSplineSet
Refer: 94 1581 N 1 0 0 1 0 0 2
Colour: ffff
EndChar

StartChar: uniFEA3
Encoding: 65187 65187 143
Width: 1302
VWidth: 2370
Flags: HMW
AnchorPoint: "Anchor-1" 609 0 basechar 0
AnchorPoint: "Anchor-3" 424 811 basechar 0
LayerCount: 2
Fore
SplineSet
150 532 m 1
 191 690 307 767 415 767 c 0
 521 767 665 686 815 601 c 0
 925.616210938 538.317382812 1039 475 1142 441 c 1
 1016.46875 418.728515625 900.142578125 352.990234375 774 281 c 0
 576 168 331 45 0 45 c 1024
EndSplineSet
Colour: ffff
EndChar

StartChar: uniFEA4
Encoding: 65188 65188 144
Width: 1351
VWidth: 1373
Flags: HMW
AnchorPoint: "Anchor-3" 396 811 basechar 0
AnchorPoint: "Anchor-1" 510 0 basechar 0
LayerCount: 2
Fore
SplineSet
953 377 m 1
 953 169 1120 45 1351 45 c 1025
EndSplineSet
Refer: 143 65187 N 1 0 0 1 0 0 2
Colour: ffff
EndChar

StartChar: uniFEAA
Encoding: 65194 65194 148
Width: 1120
VWidth: 1437
Flags: HMW
AnchorPoint: "Anchor-1" 391 -106 basechar 0
AnchorPoint: "Anchor-3" 587 877 basechar 0
LayerCount: 2
Fore
SplineSet
1120 45 m 0
 880 45 806 235 741 420 c 0
 692 564 653 645 585 781 c 1024
750 400 m 0
 762 367 768 333 768 297 c 0
 768 93 594 15 389 15 c 0
 311 15 234 27 160 55 c 1024
EndSplineSet
PairPos2: "'kern' Horizontal Kerning in Arabic lookup 2 per glyph data 3" uniE028 dx=-267 dy=0 dh=-267 dv=0 dx=0 dy=0 dh=0 dv=0
PairPos2: "'kern' Horizontal Kerning in Arabic lookup 2 per glyph data 3" uniFC3E dx=-267 dy=0 dh=-267 dv=0 dx=0 dy=0 dh=0 dv=0
PairPos2: "'kern' Horizontal Kerning in Arabic lookup 2 per glyph data 3" uniFC3D dx=-267 dy=0 dh=-267 dv=0 dx=0 dy=0 dh=0 dv=0
PairPos2: "'kern' Horizontal Kerning in Arabic lookup 2 per glyph data 3" uniFC37 dx=-267 dy=0 dh=-267 dv=0 dx=0 dy=0 dh=0 dv=0
PairPos2: "'kern' Horizontal Kerning in Arabic lookup 2 per glyph data 3" uniE023 dx=-267 dy=0 dh=-267 dv=0 dx=0 dy=0 dh=0 dv=0
PairPos2: "'kern' Horizontal Kerning in Arabic lookup 2 per glyph data 3" uni06A9 dx=-267 dy=0 dh=-267 dv=0 dx=0 dy=0 dh=0 dv=0
PairPos2: "'kern' Horizontal Kerning in Arabic lookup 2 per glyph data 3" uni06AF dx=-267 dy=0 dh=-267 dv=0 dx=0 dy=0 dh=0 dv=0
PairPos2: "'kern' Horizontal Kerning in Arabic lookup 2 per glyph data 3" uniFB90 dx=-267 dy=0 dh=-267 dv=0 dx=0 dy=0 dh=0 dv=0
PairPos2: "'kern' Horizontal Kerning in Arabic lookup 2 per glyph data 3" uniFB94 dx=-267 dy=0 dh=-267 dv=0 dx=0 dy=0 dh=0 dv=0
PairPos2: "'kern' Horizontal Kerning in Arabic lookup 2 per glyph data 3" uniFEDB dx=-267 dy=0 dh=-267 dv=0 dx=0 dy=0 dh=0 dv=0
PairPos2: "'kern' Horizontal Kerning in Arabic lookup 2 per glyph data 1" uni0639 dx=-334 dy=0 dh=-334 dv=0 dx=0 dy=0 dh=0 dv=0
PairPos2: "'kern' Horizontal Kerning in Arabic lookup 2 per glyph data 1" uni063A dx=-334 dy=0 dh=-334 dv=0 dx=0 dy=0 dh=0 dv=0
Colour: ffff
EndChar

StartChar: uniFEAE
Encoding: 65198 65198 150
Width: 917
VWidth: 2234
Flags: HMW
AnchorPoint: "Anchor-1" 493 -394 basechar 0
AnchorPoint: "Anchor-3" 472 566 basechar 0
LayerCount: 2
Fore
SplineSet
917 45 m 16
 788 45 708 76 652 134 c 0
 580 209 549 329 512 484 c 1
 554 326 577 189 577 71 c 0
 577 -169 437 -350 160 -457 c 1024
EndSplineSet
PairPos2: "'kern' Horizontal Kerning in Arabic lookup 2 per glyph data 2" uniFC3E dx=-400 dy=0 dh=-400 dv=0 dx=0 dy=0 dh=0 dv=0
PairPos2: "'kern' Horizontal Kerning in Arabic lookup 2 per glyph data 2" uniFC3D dx=-400 dy=0 dh=-400 dv=0 dx=0 dy=0 dh=0 dv=0
PairPos2: "'kern' Horizontal Kerning in Arabic lookup 2 per glyph data 2" uniE028 dx=-400 dy=0 dh=-400 dv=0 dx=0 dy=0 dh=0 dv=0
PairPos2: "'kern' Horizontal Kerning in Arabic lookup 2 per glyph data 2" uniE027 dx=-234 dy=0 dh=-234 dv=0 dx=0 dy=0 dh=0 dv=0
PairPos2: "'kern' Horizontal Kerning in Arabic lookup 2 per glyph data 2" uniE026 dx=-234 dy=0 dh=-234 dv=0 dx=0 dy=0 dh=0 dv=0
PairPos2: "'kern' Horizontal Kerning in Arabic lookup 2 per glyph data 2" uniE023 dx=-400 dy=0 dh=-400 dv=0 dx=0 dy=0 dh=0 dv=0
PairPos2: "'kern' Horizontal Kerning in Arabic lookup 2 per glyph data 2" uniFC37 dx=-400 dy=0 dh=-400 dv=0 dx=0 dy=0 dh=0 dv=0
PairPos2: "'kern' Horizontal Kerning in Arabic lookup 2 per glyph data 2" uniFC36 dx=-234 dy=0 dh=-234 dv=0 dx=0 dy=0 dh=0 dv=0
PairPos2: "'kern' Horizontal Kerning in Arabic lookup 2 per glyph data 2" uniFC35 dx=-234 dy=0 dh=-234 dv=0 dx=0 dy=0 dh=0 dv=0
PairPos2: "'kern' Horizontal Kerning in Arabic lookup 2 per glyph data 2" uniFC32 dx=-234 dy=0 dh=-234 dv=0 dx=0 dy=0 dh=0 dv=0
PairPos2: "'kern' Horizontal Kerning in Arabic lookup 2 per glyph data 2" uniFC31 dx=-234 dy=0 dh=-234 dv=0 dx=0 dy=0 dh=0 dv=0
PairPos2: "'kern' Horizontal Kerning in Arabic lookup 2 per glyph data 2" uniFD08 dx=-234 dy=0 dh=-234 dv=0 dx=0 dy=0 dh=0 dv=0
PairPos2: "'kern' Horizontal Kerning in Arabic lookup 2 per glyph data 2" uniFD07 dx=-234 dy=0 dh=-234 dv=0 dx=0 dy=0 dh=0 dv=0
PairPos2: "'kern' Horizontal Kerning in Arabic lookup 2 per glyph data 2" uniFD06 dx=-234 dy=0 dh=-234 dv=0 dx=0 dy=0 dh=0 dv=0
PairPos2: "'kern' Horizontal Kerning in Arabic lookup 2 per glyph data 2" uniFD05 dx=-234 dy=0 dh=-234 dv=0 dx=0 dy=0 dh=0 dv=0
PairPos2: "'kern' Horizontal Kerning in Arabic lookup 2 per glyph data 2" uniFCFE dx=-234 dy=0 dh=-234 dv=0 dx=0 dy=0 dh=0 dv=0
PairPos2: "'kern' Horizontal Kerning in Arabic lookup 2 per glyph data 2" uniFCFD dx=-234 dy=0 dh=-234 dv=0 dx=0 dy=0 dh=0 dv=0
PairPos2: "'kern' Horizontal Kerning in Arabic lookup 2 per glyph data 2" uniFCFC dx=-234 dy=0 dh=-234 dv=0 dx=0 dy=0 dh=0 dv=0
PairPos2: "'kern' Horizontal Kerning in Arabic lookup 2 per glyph data 2" uniFCFB dx=-234 dy=0 dh=-234 dv=0 dx=0 dy=0 dh=0 dv=0
PairPos2: "'kern' Horizontal Kerning in Arabic lookup 2 per glyph data 2" uniE01B dx=-150 dy=0 dh=-150 dv=0 dx=0 dy=0 dh=0 dv=0
PairPos2: "'kern' Horizontal Kerning in Arabic lookup 2 per glyph data 2" uniE019 dx=-150 dy=0 dh=-150 dv=0 dx=0 dy=0 dh=0 dv=0
PairPos2: "'kern' Horizontal Kerning in Arabic lookup 2 per glyph data 2" uniE017 dx=-150 dy=0 dh=-150 dv=0 dx=0 dy=0 dh=0 dv=0
Substitution2: "Single Substitution 1 subtable" uniE018
PairPos2: "'kern' Horizontal Kerning in Arabic lookup 2 per glyph data 0" period dx=-250 dy=0 dh=-250 dv=0 dx=0 dy=0 dh=0 dv=0
PairPos2: "'kern' Horizontal Kerning in Arabic lookup 2 per glyph data 0" uni060C dx=-250 dy=0 dh=-250 dv=0 dx=0 dy=0 dh=0 dv=0
PairPos2: "'kern' Horizontal Kerning in Arabic lookup 2 per glyph data 0" uni061B dx=-250 dy=0 dh=-250 dv=0 dx=0 dy=0 dh=0 dv=0
PairPos2: "'kern' Horizontal Kerning in Arabic lookup 2 per glyph data 0" parenleft dx=-250 dy=0 dh=-250 dv=0 dx=0 dy=0 dh=0 dv=0
PairPos2: "'kern' Horizontal Kerning in Arabic lookup 2 per glyph data 0" braceleft dx=-250 dy=0 dh=-250 dv=0 dx=0 dy=0 dh=0 dv=0
PairPos2: "'kern' Horizontal Kerning in Arabic lookup 2 per glyph data 0" bracketleft dx=-250 dy=0 dh=-250 dv=0 dx=0 dy=0 dh=0 dv=0
PairPos2: "'kern' Horizontal Kerning in Arabic lookup 2 per glyph data 5" space dx=-342 dy=0 dh=-342 dv=0 dx=0 dy=0 dh=0 dv=0
PairPos2: "'kern' Horizontal Kerning in Arabic lookup 2 per glyph data 2" uni0626 dx=-50 dy=0 dh=-50 dv=0 dx=0 dy=0 dh=0 dv=0
PairPos2: "'kern' Horizontal Kerning in Arabic lookup 2 per glyph data 2" uni064A dx=-50 dy=0 dh=-50 dv=0 dx=0 dy=0 dh=0 dv=0
PairPos2: "'kern' Horizontal Kerning in Arabic lookup 2 per glyph data 2" uni0649 dx=-50 dy=0 dh=-50 dv=0 dx=0 dy=0 dh=0 dv=0
PairPos2: "'kern' Horizontal Kerning in Arabic lookup 2 per glyph data 2" uni06CC dx=-50 dy=0 dh=-50 dv=0 dx=0 dy=0 dh=0 dv=0
PairPos2: "'kern' Horizontal Kerning in Arabic lookup 2 per glyph data 2" uniFBFE dx=-40 dy=0 dh=-40 dv=0 dx=0 dy=0 dh=0 dv=0
PairPos2: "'kern' Horizontal Kerning in Arabic lookup 2 per glyph data 2" uniFEF3 dx=-40 dy=0 dh=-40 dv=0 dx=0 dy=0 dh=0 dv=0
PairPos2: "'kern' Horizontal Kerning in Arabic lookup 2 per glyph data 2" uniFB58 dx=-40 dy=0 dh=-40 dv=0 dx=0 dy=0 dh=0 dv=0
PairPos2: "'kern' Horizontal Kerning in Arabic lookup 2 per glyph data 2" uni0622 dx=-167 dy=0 dh=-167 dv=0 dx=0 dy=0 dh=0 dv=0
PairPos2: "'kern' Horizontal Kerning in Arabic lookup 2 per glyph data 2" uni0623 dx=-167 dy=0 dh=-167 dv=0 dx=0 dy=0 dh=0 dv=0
PairPos2: "'kern' Horizontal Kerning in Arabic lookup 2 per glyph data 2" uni0624 dx=-133 dy=0 dh=-133 dv=0 dx=0 dy=0 dh=0 dv=0
PairPos2: "'kern' Horizontal Kerning in Arabic lookup 2 per glyph data 2" uni0627 dx=-167 dy=0 dh=-167 dv=0 dx=0 dy=0 dh=0 dv=0
PairPos2: "'kern' Horizontal Kerning in Arabic lookup 2 per glyph data 2" uni0628 dx=-234 dy=0 dh=-234 dv=0 dx=0 dy=0 dh=0 dv=0
PairPos2: "'kern' Horizontal Kerning in Arabic lookup 2 per glyph data 2" uni0629 dx=-234 dy=0 dh=-234 dv=0 dx=0 dy=0 dh=0 dv=0
PairPos2: "'kern' Horizontal Kerning in Arabic lookup 2 per glyph data 2" uni062A dx=-234 dy=0 dh=-234 dv=0 dx=0 dy=0 dh=0 dv=0
PairPos2: "'kern' Horizontal Kerning in Arabic lookup 2 per glyph data 2" uni062B dx=-234 dy=0 dh=-234 dv=0 dx=0 dy=0 dh=0 dv=0
PairPos2: "'kern' Horizontal Kerning in Arabic lookup 2 per glyph data 2" uni062F dx=-250 dy=0 dh=-250 dv=0 dx=0 dy=0 dh=0 dv=0
PairPos2: "'kern' Horizontal Kerning in Arabic lookup 2 per glyph data 2" uni0630 dx=-250 dy=0 dh=-250 dv=0 dx=0 dy=0 dh=0 dv=0
PairPos2: "'kern' Horizontal Kerning in Arabic lookup 2 per glyph data 2" uni0631 dx=-150 dy=0 dh=-150 dv=0 dx=0 dy=0 dh=0 dv=0
PairPos2: "'kern' Horizontal Kerning in Arabic lookup 2 per glyph data 2" uni0632 dx=-150 dy=0 dh=-150 dv=0 dx=0 dy=0 dh=0 dv=0
PairPos2: "'kern' Horizontal Kerning in Arabic lookup 2 per glyph data 2" uni0633 dx=-234 dy=0 dh=-234 dv=0 dx=0 dy=0 dh=0 dv=0
PairPos2: "'kern' Horizontal Kerning in Arabic lookup 2 per glyph data 2" uni0634 dx=-234 dy=0 dh=-234 dv=0 dx=0 dy=0 dh=0 dv=0
PairPos2: "'kern' Horizontal Kerning in Arabic lookup 2 per glyph data 2" uni0635 dx=-234 dy=0 dh=-234 dv=0 dx=0 dy=0 dh=0 dv=0
PairPos2: "'kern' Horizontal Kerning in Arabic lookup 2 per glyph data 2" uni0636 dx=-234 dy=0 dh=-234 dv=0 dx=0 dy=0 dh=0 dv=0
PairPos2: "'kern' Horizontal Kerning in Arabic lookup 2 per glyph data 2" uni0637 dx=-234 dy=0 dh=-234 dv=0 dx=0 dy=0 dh=0 dv=0
PairPos2: "'kern' Horizontal Kerning in Arabic lookup 2 per glyph data 2" uni0638 dx=-234 dy=0 dh=-234 dv=0 dx=0 dy=0 dh=0 dv=0
PairPos2: "'kern' Horizontal Kerning in Arabic lookup 2 per glyph data 2" uni0641 dx=-234 dy=0 dh=-234 dv=0 dx=0 dy=0 dh=0 dv=0
PairPos2: "'kern' Horizontal Kerning in Arabic lookup 2 per glyph data 2" uni0642 dx=-40 dy=0 dh=-40 dv=0 dx=0 dy=0 dh=0 dv=0
PairPos2: "'kern' Horizontal Kerning in Arabic lookup 2 per glyph data 2" uni0643 dx=-234 dy=0 dh=-234 dv=0 dx=0 dy=0 dh=0 dv=0
PairPos2: "'kern' Horizontal Kerning in Arabic lookup 2 per glyph data 2" uni0644 dx=-100 dy=0 dh=-100 dv=0 dx=0 dy=0 dh=0 dv=0
PairPos2: "'kern' Horizontal Kerning in Arabic lookup 2 per glyph data 2" uni0645 dx=-234 dy=0 dh=-234 dv=0 dx=0 dy=0 dh=0 dv=0
PairPos2: "'kern' Horizontal Kerning in Arabic lookup 2 per glyph data 2" uni0646 dx=-40 dy=0 dh=-40 dv=0 dx=0 dy=0 dh=0 dv=0
PairPos2: "'kern' Horizontal Kerning in Arabic lookup 2 per glyph data 2" uni0647 dx=-234 dy=0 dh=-234 dv=0 dx=0 dy=0 dh=0 dv=0
PairPos2: "'kern' Horizontal Kerning in Arabic lookup 2 per glyph data 2" uni0648 dx=-133 dy=0 dh=-133 dv=0 dx=0 dy=0 dh=0 dv=0
PairPos2: "'kern' Horizontal Kerning in Arabic lookup 2 per glyph data 2" uni067E dx=-234 dy=0 dh=-234 dv=0 dx=0 dy=0 dh=0 dv=0
PairPos2: "'kern' Horizontal Kerning in Arabic lookup 2 per glyph data 2" uni0698 dx=-150 dy=0 dh=-150 dv=0 dx=0 dy=0 dh=0 dv=0
PairPos2: "'kern' Horizontal Kerning in Arabic lookup 2 per glyph data 2" uni06A9 dx=-400 dy=0 dh=-400 dv=0 dx=0 dy=0 dh=0 dv=0
PairPos2: "'kern' Horizontal Kerning in Arabic lookup 2 per glyph data 2" uni06AF dx=-400 dy=0 dh=-400 dv=0 dx=0 dy=0 dh=0 dv=0
PairPos2: "'kern' Horizontal Kerning in Arabic lookup 2 per glyph data 2" uni06C0 dx=-234 dy=0 dh=-234 dv=0 dx=0 dy=0 dh=0 dv=0
PairPos2: "'kern' Horizontal Kerning in Arabic lookup 2 per glyph data 2" uni06CA dx=-133 dy=0 dh=-133 dv=0 dx=0 dy=0 dh=0 dv=0
PairPos2: "'kern' Horizontal Kerning in Arabic lookup 2 per glyph data 2" uniFB7C dx=-234 dy=0 dh=-234 dv=0 dx=0 dy=0 dh=0 dv=0
PairPos2: "'kern' Horizontal Kerning in Arabic lookup 2 per glyph data 2" uniFB90 dx=-400 dy=0 dh=-400 dv=0 dx=0 dy=0 dh=0 dv=0
PairPos2: "'kern' Horizontal Kerning in Arabic lookup 2 per glyph data 2" uniFB94 dx=-400 dy=0 dh=-400 dv=0 dx=0 dy=0 dh=0 dv=0
PairPos2: "'kern' Horizontal Kerning in Arabic lookup 2 per glyph data 2" uniFE8B dx=-200 dy=0 dh=-200 dv=0 dx=0 dy=0 dh=0 dv=0
PairPos2: "'kern' Horizontal Kerning in Arabic lookup 2 per glyph data 2" uniFE91 dx=-200 dy=0 dh=-200 dv=0 dx=0 dy=0 dh=0 dv=0
PairPos2: "'kern' Horizontal Kerning in Arabic lookup 2 per glyph data 2" uniFE97 dx=-200 dy=0 dh=-200 dv=0 dx=0 dy=0 dh=0 dv=0
PairPos2: "'kern' Horizontal Kerning in Arabic lookup 2 per glyph data 2" uniFE9B dx=-200 dy=0 dh=-200 dv=0 dx=0 dy=0 dh=0 dv=0
PairPos2: "'kern' Horizontal Kerning in Arabic lookup 2 per glyph data 2" uniFE9F dx=-234 dy=0 dh=-234 dv=0 dx=0 dy=0 dh=0 dv=0
PairPos2: "'kern' Horizontal Kerning in Arabic lookup 2 per glyph data 2" uniFEA3 dx=-234 dy=0 dh=-234 dv=0 dx=0 dy=0 dh=0 dv=0
PairPos2: "'kern' Horizontal Kerning in Arabic lookup 2 per glyph data 2" uniFEA7 dx=-234 dy=0 dh=-234 dv=0 dx=0 dy=0 dh=0 dv=0
PairPos2: "'kern' Horizontal Kerning in Arabic lookup 2 per glyph data 2" uniFEB3 dx=-234 dy=0 dh=-234 dv=0 dx=0 dy=0 dh=0 dv=0
PairPos2: "'kern' Horizontal Kerning in Arabic lookup 2 per glyph data 2" uniFEB7 dx=-234 dy=0 dh=-234 dv=0 dx=0 dy=0 dh=0 dv=0
PairPos2: "'kern' Horizontal Kerning in Arabic lookup 2 per glyph data 2" uniFEBB dx=-234 dy=0 dh=-234 dv=0 dx=0 dy=0 dh=0 dv=0
PairPos2: "'kern' Horizontal Kerning in Arabic lookup 2 per glyph data 2" uniFEBF dx=-234 dy=0 dh=-234 dv=0 dx=0 dy=0 dh=0 dv=0
PairPos2: "'kern' Horizontal Kerning in Arabic lookup 2 per glyph data 2" uniFEC3 dx=-234 dy=0 dh=-234 dv=0 dx=0 dy=0 dh=0 dv=0
PairPos2: "'kern' Horizontal Kerning in Arabic lookup 2 per glyph data 2" uniFEC7 dx=-234 dy=0 dh=-234 dv=0 dx=0 dy=0 dh=0 dv=0
PairPos2: "'kern' Horizontal Kerning in Arabic lookup 2 per glyph data 2" uniFECB dx=-234 dy=0 dh=-234 dv=0 dx=0 dy=0 dh=0 dv=0
PairPos2: "'kern' Horizontal Kerning in Arabic lookup 2 per glyph data 2" uniFECF dx=-234 dy=0 dh=-234 dv=0 dx=0 dy=0 dh=0 dv=0
PairPos2: "'kern' Horizontal Kerning in Arabic lookup 2 per glyph data 2" uniFED3 dx=-234 dy=0 dh=-234 dv=0 dx=0 dy=0 dh=0 dv=0
PairPos2: "'kern' Horizontal Kerning in Arabic lookup 2 per glyph data 2" uniFED7 dx=-234 dy=0 dh=-234 dv=0 dx=0 dy=0 dh=0 dv=0
PairPos2: "'kern' Horizontal Kerning in Arabic lookup 2 per glyph data 2" uniFEDB dx=-400 dy=0 dh=-400 dv=0 dx=0 dy=0 dh=0 dv=0
PairPos2: "'kern' Horizontal Kerning in Arabic lookup 2 per glyph data 2" uniFEDF dx=-234 dy=0 dh=-234 dv=0 dx=0 dy=0 dh=0 dv=0
PairPos2: "'kern' Horizontal Kerning in Arabic lookup 2 per glyph data 2" uniFEE3 dx=-234 dy=0 dh=-234 dv=0 dx=0 dy=0 dh=0 dv=0
PairPos2: "'kern' Horizontal Kerning in Arabic lookup 2 per glyph data 2" uniFEE7 dx=-234 dy=0 dh=-234 dv=0 dx=0 dy=0 dh=0 dv=0
PairPos2: "'kern' Horizontal Kerning in Arabic lookup 2 per glyph data 2" uniFEEB dx=-134 dy=0 dh=-134 dv=0 dx=0 dy=0 dh=0 dv=0
PairPos2: "'kern' Horizontal Kerning in Arabic lookup 2 per glyph data 2" uniFEF5 dx=-234 dy=0 dh=-234 dv=0 dx=0 dy=0 dh=0 dv=0
PairPos2: "'kern' Horizontal Kerning in Arabic lookup 2 per glyph data 2" uniFEF7 dx=-234 dy=0 dh=-234 dv=0 dx=0 dy=0 dh=0 dv=0
PairPos2: "'kern' Horizontal Kerning in Arabic lookup 2 per glyph data 2" uniFEF9 dx=-234 dy=0 dh=-234 dv=0 dx=0 dy=0 dh=0 dv=0
PairPos2: "'kern' Horizontal Kerning in Arabic lookup 2 per glyph data 2" uniFEFB dx=-234 dy=0 dh=-234 dv=0 dx=0 dy=0 dh=0 dv=0
PairPos2: "'kern' Horizontal Kerning in Arabic lookup 2 per glyph data 1" uni0639 dx=-90 dy=0 dh=-90 dv=0 dx=0 dy=0 dh=0 dv=0
PairPos2: "'kern' Horizontal Kerning in Arabic lookup 2 per glyph data 1" uni063A dx=-90 dy=0 dh=-90 dv=0 dx=0 dy=0 dh=0 dv=0
Colour: ffff
EndChar

StartChar: uniFEBA
Encoding: 65210 65210 155
Width: 2424
VWidth: 2279
Flags: HMW
AnchorPoint: "Anchor-3" 1879 811 basechar 0
AnchorPoint: "Anchor-1" 589 -563 basechar 0
LayerCount: 2
Fore
SplineSet
1328 181 m 0
 1456 452 1627 640 1873 640 c 0
 2021 640 2145 552 2145 408 c 0
 2145 166 1877 45 1650 45 c 0
 1282 45 1137 159 1051 366 c 1
 1096 228 1119 102 1119 -7 c 0
 1119 -298 953 -473 589 -473 c 0
 368 -473 160 -364 160 -117 c 0
 160 43 237 229 334 381 c 1033
2083.63085938 225.208984375 m 17
 2144 113 2239 45 2424 45 c 1025
EndSplineSet
Colour: ffff
EndChar

StartChar: uniFEBB
Encoding: 65211 65211 156
Width: 1546
VWidth: 2370
Flags: HMW
AnchorPoint: "Anchor-3" 1101 811 basechar 0
AnchorPoint: "Anchor-1" 818 -2 basechar 0
LayerCount: 2
Fore
SplineSet
434 -43 m 1
 550 270 806 710 1106 710 c 0
 1268 710 1386 596 1386 434 c 0
 1386 172 1072 45 809 45 c 0
 440 45 350 136 350 374 c 0
 350 408 351 445 353 485 c 1
 353 485 l 1
 353 138 262 45 0 45 c 1024
EndSplineSet
Colour: ffff
EndChar

StartChar: uniFEBC
Encoding: 65212 65212 157
Width: 1671
VWidth: 1839
Flags: HMW
AnchorPoint: "Anchor-1" 818 0 basechar 0
AnchorPoint: "Anchor-3" 1101 811 basechar 0
LayerCount: 2
Fore
SplineSet
501 121 m 1
 665 453 875 710 1103 710 c 0
 1245 710 1379 596 1379 434 c 0
 1379 172 1043 45 780 45 c 0
 502 45 342 88 342 359 c 0
 342 397 346 439 352 485 c 1
 352 485 l 1
 328 178 260 45 0 45 c 1025
1321 257 m 17
 1374 114 1466 45 1671 45 c 1025
EndSplineSet
Colour: ffff
EndChar

StartChar: uniFEC2
Encoding: 65218 65218 161
Width: 1656
VWidth: 2370
Flags: HMW
AnchorPoint: "Anchor-1" 450 0 basechar 0
AnchorPoint: "Anchor-3" 1128 811 basechar 0
LayerCount: 2
Fore
SplineSet
160 45 m 1
 646 45 1354 45 1354 449 c 0
 1354 598 1241 713 1090 713 c 0
 793 713 556 344 448 58 c 1
 517 233 542 464 542 716 c 0
 542 875 532 1043 516 1211 c 1024
1290 266 m 1
 1355 113 1492 45 1656 45 c 1025
EndSplineSet
Colour: ffff
EndChar

StartChar: uniFEC3
Encoding: 65219 65219 162
Width: 1250
VWidth: 2370
Flags: HMW
AnchorPoint: "Anchor-3" 815 811 basechar 0
AnchorPoint: "Anchor-1" 596 0 basechar 0
LayerCount: 2
Fore
SplineSet
248 1211 m 1
 263 1080 271 945 271 747 c 0
 271 469 225 164 101 -56 c 1
 213 201 466 719 816 719 c 0
 967 719 1090 615 1090 466 c 0
 1090 86 442 45 0 45 c 1033
EndSplineSet
Colour: ffff
EndChar

StartChar: uniFEC4
Encoding: 65220 65220 163
Width: 1338
VWidth: 2370
Flags: HMW
AnchorPoint: "Anchor-1" 596 0 basechar 0
AnchorPoint: "Anchor-3" 885 841 basechar 0
LayerCount: 2
Fore
SplineSet
326 1211 m 0
 342 1043 352 875 352 716 c 0
 352 464 327 233 258 58 c 1
 354 302 579 711 872 711 c 0
 1072 711 1157 569 1157 444 c 0
 1157 70 573 45 0 45 c 1025
1039 206 m 1
 1096 85 1187 45 1338 45 c 1025
EndSplineSet
Colour: ffff
EndChar

StartChar: uniFECA
Encoding: 65226 65226 167
Width: 1092
VWidth: 2370
Flags: HMW
AnchorPoint: "Anchor-3" 552 821 basechar 0
AnchorPoint: "Anchor-1" 676 -740 basechar 0
LayerCount: 2
Fore
SplineSet
1092 45 m 1
 743 45 371 369 190 634 c 1
 262 706 429 776 575 776 c 0
 713 776 851 712 851 586 c 0
 851 465 760 393 590.798828125 298.561523438 c 0
 393.033203125 188.181640625 160 0 160 -285 c 0
 160 -544 400 -645 674 -645 c 0
 750 -645 828 -637 905 -623 c 1025
EndSplineSet
Colour: ffff
EndChar

StartChar: uniFECB
Encoding: 65227 65227 168
Width: 1020
VWidth: 2370
Flags: HMW
AnchorPoint: "Anchor-3" 565 973 basechar 0
AnchorPoint: "Anchor-1" 438 0 basechar 0
LayerCount: 2
Fore
SplineSet
733 714 m 0
 677 765 601 792 525 792 c 0
 343 792 177 631 177 437 c 0
 177 254 326 149 510 149 c 0
 574 149 638 156 699 166 c 0
 752 174 806 181 860 183 c 1
 738 183 651 157 551 127 c 0
 421 88 272 45 0 45 c 1024
EndSplineSet
Colour: ffff
EndChar

StartChar: uniFECC
Encoding: 65228 65228 169
Width: 1040
VWidth: 2370
Flags: HMW
AnchorPoint: "Anchor-3" 506 821 basechar 0
AnchorPoint: "Anchor-1" 515 0 basechar 0
LayerCount: 2
Fore
SplineSet
1040 45 m 1
 613 45 281 353 134 559 c 1
 223 644 398 722 521 722 c 0
 670 722 842 634 842 483 c 0
 842 214 303 45 0 45 c 1025
EndSplineSet
Colour: ffff
EndChar

StartChar: uniFED2
Encoding: 65234 65234 173
Width: 1829
VWidth: 2189
Flags: HMW
AnchorPoint: "Anchor-3" 1484 1323 basechar 0
AnchorPoint: "Anchor-1" 780 -30 basechar 0
LayerCount: 2
Fore
SplineSet
1829 45 m 1
 1459 45 1135 159 1135 472 c 0
 1135 657 1248 782 1399 782 c 0
 1574 782 1664 662 1664 484 c 0
 1664 112 1257 15 840 15 c 0
 469 15 160 50 160 336 c 0
 160 402 176 482 211 577 c 1024
EndSplineSet
Refer: 223 57344 N 1 0 0 1 1253 1190 2
Colour: ffff
EndChar

StartChar: uniFED6
Encoding: 65238 65238 176
Width: 1461
VWidth: 2270
Flags: HMW
AnchorPoint: "Anchor-3" 979 1152 basechar 0
AnchorPoint: "Anchor-1" 712 -526 basechar 0
LayerCount: 2
Fore
SplineSet
261 394 m 0
 196 247 160 106 160 -17 c 0
 160 -279 327 -462 704 -462 c 0
 1044 -462 1261 -260 1261 121 c 0
 1261 373 1208 670 977 670 c 0
 811 670 708 481 708 316 c 0
 708 111 814 44 1018 44 c 2
 1461 45 l 1024
EndSplineSet
Refer: 224 57345 N 1 0 0 1 639 1022 2
Colour: ffff
EndChar

StartChar: uniFEDA
Encoding: 65242 65242 179
Width: 1772
VWidth: 1478
Flags: HMW
AnchorPoint: "Anchor-3" 781 863 basechar 0
AnchorPoint: "Anchor-1" 716 -30 basechar 0
LayerCount: 2
Fore
SplineSet
1772 45 m 0
 1557 45 1390 163 1390 431 c 1024
1346 1211 m 0
 1374 996 1390 668 1390 431 c 0
 1390 133 1082 16 786 16 c 0
 481 16 160 58 160 363 c 0
 160 430 180 505 211 574 c 1033
EndSplineSet
Refer: 452 57362 N 1 0 0 1 559 -635 2
Colour: ffff
EndChar

StartChar: uniFEDB
Encoding: 65243 65243 180
Width: 1054
VWidth: 2234
Flags: HMW
AnchorPoint: "Anchor-3" 489 1197 basechar 0
AnchorPoint: "Anchor-1" 268 0 basechar 0
LayerCount: 2
Fore
SplineSet
0 45 m 1
 396 45 572 123 572 312 c 0
 572 522 347 760 160 951 c 1
 894 1311 l 1025
EndSplineSet
Colour: ffff
EndChar

StartChar: uniFEDC
Encoding: 65244 65244 181
Width: 1113
VWidth: 2370
Flags: HMW
AnchorPoint: "Anchor-3" 489 1197 basechar 0
AnchorPoint: "Anchor-1" 268 0 basechar 0
LayerCount: 2
Fore
SplineSet
160 951 m 1
 894 1311 l 1025
0 45 m 1
 396 45 572 123 572 312 c 0
 572 522 347 760 160 951 c 1
 329 779 490 604 554 427 c 0
 682.619048267 71.2879446367 781 45 1113 45 c 1025
EndSplineSet
Colour: ffff
EndChar

StartChar: uniFEDE
Encoding: 65246 65246 182
Width: 1450
VWidth: 2370
Flags: HMW
AnchorPoint: "Anchor-1" 623 -526 basechar 0
AnchorPoint: "Anchor-3" 510 596 basechar 0
LayerCount: 2
Fore
SplineSet
1092 372 m 1
 1109 100 1221 45 1450 45 c 1025
1047 1211 m 17
 1075 821 1096 494 1096 148 c 0
 1096 -189 985 -424 609 -424 c 0
 319 -424 160 -257 160 -15 c 0
 160 113 205 258 255 358 c 1033
EndSplineSet
Colour: ffff
EndChar

StartChar: uniFEDF
Encoding: 65247 65247 183
Width: 494
VWidth: 2370
Flags: HMW
AnchorPoint: "Anchor-1" 223 0 basechar 0
AnchorPoint: "Anchor-3" 245 1212 basechar 0
LayerCount: 2
Fore
SplineSet
245 1211 m 0
 283 922 294 760 294 444 c 0
 294 320.890443173 278 224 236 156 c 0
 191 84 116.939416129 45 0 45 c 1024
EndSplineSet
Colour: ffff
EndChar

StartChar: uniFEE0
Encoding: 65248 65248 184
Width: 674
VWidth: 2370
Flags: HMW
AnchorPoint: "Anchor-3" 293 1211 basechar 0
AnchorPoint: "Anchor-1" 247 0 basechar 0
LayerCount: 2
Fore
SplineSet
674 45 m 0
 476 45 337 142 337 369 c 1024
293 1211 m 0
 320 923 337 679 337 369 c 0
 337 142 219 45 0 45 c 1024
EndSplineSet
Colour: ffff
EndChar

StartChar: uniFEE2
Encoding: 65250 65250 185
Width: 1365
VWidth: 2370
Flags: HMW
AnchorPoint: "Anchor-3" 724 663 basechar 0
AnchorPoint: "Anchor-1" 690 -169 basechar 0
LayerCount: 2
Fore
SplineSet
1008 321 m 1
 1046.86425781 152.06640625 1140 45 1365 45 c 1025
EndSplineSet
Refer: 88 1605 N 1 0 0 1 0 0 2
Substitution2: "'ss01' Style Set 1 lookup 14 subtable" uniE01F
Colour: ffff
EndChar

StartChar: uniFEE4
Encoding: 65252 65252 186
Width: 1199
VWidth: 1350
Flags: HMW
AnchorPoint: "Anchor-1" 561 0 basechar 0
AnchorPoint: "Anchor-3" 589 675 basechar 0
LayerCount: 2
Back
SplineSet
881 366 m 1
 927 173 1089 45 1219 45 c 1025
EndSplineSet
Fore
SplineSet
1199 45 m 17
 966 45 921 154 875 285 c 0
 841.794414783 379.563731813 773 475 653 598 c 1
 754 494 870 332 870 205 c 0
 870 103 777 15 569 15 c 0
 379 15 318 99 318 195 c 0
 318 329 457 517 518 599 c 1
 473 545 412.447265625 463.509765625 376 392 c 0
 297 237 186 45 0 45 c 1033
EndSplineSet
Colour: ffff
EndChar

StartChar: uniFEE6
Encoding: 65254 65254 187
Width: 1504
VWidth: 2286
Flags: HMW
AnchorPoint: "Anchor-3" 666 600 basechar 0
AnchorPoint: "Anchor-1" 651 -526 basechar 0
LayerCount: 2
Fore
SplineSet
1169 349 m 0
 1200 246 1225 168 1275 117 c 0
 1321 69 1390 45 1504 45 c 1024
EndSplineSet
Refer: 223 57344 N 1 0 0 1 462 225 2
Refer: 85 1722 N 1 0 0 1 0 0 2
Colour: ffff
EndChar

StartChar: uniFEEA
Encoding: 65258 65258 188
Width: 1081
VWidth: 2370
Flags: HMW
AnchorPoint: "Anchor-3" 443 936 basechar 0
AnchorPoint: "Anchor-1" 425 2 basechar 0
LayerCount: 2
Fore
SplineSet
603 204 m 1
 574 200 547 197 518 197 c 0
 329 197 180 281 180 414 c 0
 180 538 275 630 432 704 c 0
 554 761 676 825 676 928 c 0
 676 933 675 948 674 953 c 1
 724 406 l 0
 751 113 861 45 1081 45 c 1025
EndSplineSet
Colour: ffff
EndChar

StartChar: uniFEEB
Encoding: 65259 65259 189
Width: 1283
VWidth: 2370
Flags: HMW
AnchorPoint: "Anchor-3" 625 872 basechar 0
AnchorPoint: "Anchor-1" 585 0 basechar 0
LayerCount: 2
Fore
SplineSet
199 898 m 0
 342 821 516 757 661 704 c 0
 900.207474524 616.565543795 1103 495 1103 286 c 0
 1103 142 980 45 800 45 c 0
 515 45 142 183 142 430 c 0
 142 604 277 756 436 756 c 0
 591 756 683 602 683 450 c 0
 683 131 362 45 0 45 c 1024
EndSplineSet
Colour: ffff
EndChar

StartChar: uniFEEC
Encoding: 65260 65260 190
Width: 930
VWidth: 2370
Flags: HMW
AnchorPoint: "Anchor-3" 465 782 basechar 0
AnchorPoint: "Anchor-1" 418 -557 basechar 0
LayerCount: 2
Fore
SplineSet
930 45 m 9
 663 45 l 1
 697 -26 723 -133 723 -232 c 0
 723 -359 680 -472 554 -472 c 0
 349 -472 180 -143 180 136 c 0
 180 437 294 737 534 737 c 0
 652 737 704 648 704 546 c 0
 704 323 468 45 0 45 c 1025
EndSplineSet
Colour: ffff
EndChar

StartChar: uniFEEE
Encoding: 65262 65262 191
Width: 931
VWidth: 2370
Flags: HMW
AnchorPoint: "Anchor-3" 464 721 basechar 0
AnchorPoint: "Anchor-1" 459 -408 basechar 0
LayerCount: 2
Fore
SplineSet
931 45 m 1
 855 45 731 40 658 29 c 0
 591 19 528 15 470 15 c 0
 375 15 310 34 268 75 c 0
 228 115 210 175 210 257 c 0
 210 472 313 656 460 656 c 0
 627 656 731 446 731 134 c 0
 731 -203 519 -397 160 -466 c 1024
EndSplineSet
PairPos2: "'kern' Horizontal Kerning in Arabic lookup 2 per glyph data 3" uniE028 dx=-233 dy=0 dh=-233 dv=0 dx=0 dy=0 dh=0 dv=0
PairPos2: "'kern' Horizontal Kerning in Arabic lookup 2 per glyph data 3" uniFC3E dx=-233 dy=0 dh=-233 dv=0 dx=0 dy=0 dh=0 dv=0
PairPos2: "'kern' Horizontal Kerning in Arabic lookup 2 per glyph data 3" uniFC3D dx=-233 dy=0 dh=-233 dv=0 dx=0 dy=0 dh=0 dv=0
PairPos2: "'kern' Horizontal Kerning in Arabic lookup 2 per glyph data 3" uniFC37 dx=-233 dy=0 dh=-233 dv=0 dx=0 dy=0 dh=0 dv=0
PairPos2: "'kern' Horizontal Kerning in Arabic lookup 2 per glyph data 3" uniE023 dx=-233 dy=0 dh=-233 dv=0 dx=0 dy=0 dh=0 dv=0
PairPos2: "'kern' Horizontal Kerning in Arabic lookup 2 per glyph data 4" uni0625 dx=178 dy=0 dh=178 dv=0 dx=0 dy=0 dh=0 dv=0
PairPos2: "'kern' Horizontal Kerning in Arabic lookup 2 per glyph data 3" uni06A9 dx=-233 dy=0 dh=-233 dv=0 dx=0 dy=0 dh=0 dv=0
PairPos2: "'kern' Horizontal Kerning in Arabic lookup 2 per glyph data 3" uni06AF dx=-233 dy=0 dh=-233 dv=0 dx=0 dy=0 dh=0 dv=0
PairPos2: "'kern' Horizontal Kerning in Arabic lookup 2 per glyph data 3" uniFB90 dx=-233 dy=0 dh=-233 dv=0 dx=0 dy=0 dh=0 dv=0
PairPos2: "'kern' Horizontal Kerning in Arabic lookup 2 per glyph data 3" uniFB94 dx=-233 dy=0 dh=-233 dv=0 dx=0 dy=0 dh=0 dv=0
PairPos2: "'kern' Horizontal Kerning in Arabic lookup 2 per glyph data 3" uniFEDB dx=-233 dy=0 dh=-233 dv=0 dx=0 dy=0 dh=0 dv=0
Colour: ffff
EndChar

StartChar: uniFEFB
Encoding: 65275 65275 199
Width: 1231
VWidth: 1839
Flags: HMW
AnchorPoint: "Anchor-2" 1025 1187 baselig 0
AnchorPoint: "Anchor-2" 390 1128 baselig 1
AnchorPoint: "Anchor-0" 286 0 baselig 1
AnchorPoint: "Anchor-0" 897 -3 baselig 0
LayerCount: 2
Fore
SplineSet
1023 1203 m 1
 1042 992 1051 838 1051 520 c 0
 1051 160 958 45 593 45 c 0
 442 45 316 54 180 74 c 1025
384 1148 m 17
 462 930 496 707 496 363 c 1033
EndSplineSet
Ligature2: "'rlig' Required Ligatures in Arabic lookup 7 subtable" uniFEDF uniFE8E
PairPos2: "'kern' Horizontal Kerning in Arabic lookup 2 per glyph data 0" uni062C dx=-134 dy=0 dh=-134 dv=0 dx=0 dy=0 dh=0 dv=0
PairPos2: "'kern' Horizontal Kerning in Arabic lookup 2 per glyph data 0" uni062D dx=-134 dy=0 dh=-134 dv=0 dx=0 dy=0 dh=0 dv=0
PairPos2: "'kern' Horizontal Kerning in Arabic lookup 2 per glyph data 0" uni062E dx=-134 dy=0 dh=-134 dv=0 dx=0 dy=0 dh=0 dv=0
PairPos2: "'kern' Horizontal Kerning in Arabic lookup 2 per glyph data 0" uni0639 dx=-350 dy=0 dh=-350 dv=0 dx=0 dy=0 dh=0 dv=0
PairPos2: "'kern' Horizontal Kerning in Arabic lookup 2 per glyph data 0" uni063A dx=-350 dy=0 dh=-350 dv=0 dx=0 dy=0 dh=0 dv=0
PairPos2: "'kern' Horizontal Kerning in Arabic lookup 2 per glyph data 0" uni0686 dx=-134 dy=0 dh=-134 dv=0 dx=0 dy=0 dh=0 dv=0
LCarets2: 1 0
Colour: ffff
EndChar

StartChar: uniFEFC
Encoding: 65276 65276 200
Width: 1282
VWidth: 1839
Flags: HMW
AnchorPoint: "Anchor-0" 369 0 baselig 1
AnchorPoint: "Anchor-2" 350 1118 baselig 1
AnchorPoint: "Anchor-2" 919 1157 baselig 0
AnchorPoint: "Anchor-0" 901 -1 baselig 0
LayerCount: 2
Fore
SplineSet
925 1166 m 1
 955 916 968 753 968 514 c 0
 968 124 759 45 446 45 c 0
 364 45 274 52 180 61 c 1024
441 437 m 16
 453 498 458 562 458 627 c 0
 458 834 405 996 347 1124 c 1032
968 514 m 0
 968 192 1060 45 1282 45 c 1024
EndSplineSet
Ligature2: "'rlig' Required Ligatures in Arabic lookup 7 subtable" uniFEE0 uniFE8E
PairPos2: "'kern' Horizontal Kerning in Arabic lookup 2 per glyph data 0" uni062C dx=-134 dy=0 dh=-134 dv=0 dx=0 dy=0 dh=0 dv=0
PairPos2: "'kern' Horizontal Kerning in Arabic lookup 2 per glyph data 0" uni062D dx=-134 dy=0 dh=-134 dv=0 dx=0 dy=0 dh=0 dv=0
PairPos2: "'kern' Horizontal Kerning in Arabic lookup 2 per glyph data 0" uni062E dx=-134 dy=0 dh=-134 dv=0 dx=0 dy=0 dh=0 dv=0
PairPos2: "'kern' Horizontal Kerning in Arabic lookup 2 per glyph data 0" uni0639 dx=-350 dy=0 dh=-350 dv=0 dx=0 dy=0 dh=0 dv=0
PairPos2: "'kern' Horizontal Kerning in Arabic lookup 2 per glyph data 0" uni063A dx=-350 dy=0 dh=-350 dv=0 dx=0 dy=0 dh=0 dv=0
PairPos2: "'kern' Horizontal Kerning in Arabic lookup 2 per glyph data 0" uni0686 dx=-134 dy=0 dh=-134 dv=0 dx=0 dy=0 dh=0 dv=0
LCarets2: 1 0
Colour: ffff
EndChar

StartChar: uni06CC
Encoding: 1740 1740 201
Width: 1347
VWidth: 2370
Flags: HMW
AnchorPoint: "Anchor-3" 382 628 basechar 0
AnchorPoint: "Anchor-1" 719 -559 basechar 0
LayerCount: 2
Back
SplineSet
159 300 m 0
 138 174 127 68 127 -20 c 0
 127 -334 369 -450 691 -450 c 0
 936 -450 1179 -333 1179 -134 c 0
 1179 57 1024 70 876 78 c 0
 687 88 555 136 555 325 c 0
 555 553 718 706 927 706 c 0
 983 706 1041 697 1100 673 c 1024
EndSplineSet
Fore
SplineSet
1135 638 m 0
 1074 680 1008 698 944 698 c 0
 751 698 573 529 573 324 c 0
 573 114 742.9765625 82.6943359375 928 80 c 0
 1134 77 1197 28 1197 -116 c 0
 1197 -294 995 -425 671 -425 c 0
 325 -425 170 -306 170 -13 c 0
 170 70 181 167 203 278 c 1024
EndSplineSet
Substitution2: "'init' Initial Forms in Arabic lookup 6 subtable" uniFBFE
Substitution2: "'medi' Medial Forms in Arabic lookup 5 subtable" uniFBFF
Substitution2: "'fina' Terminal Forms in Arabic lookup 4 subtable" uniFBFD
Colour: ffff
EndChar

StartChar: uniFBFD
Encoding: 64509 64509 202
Width: 1382
VWidth: 1839
Flags: HMW
AnchorPoint: "Anchor-3" 724 206 basechar 0
AnchorPoint: "Anchor-1" 690 -549 basechar 0
LayerCount: 2
Fore
SplineSet
1382 45 m 1
 775 45 l 1
 1067 10 1201 -104 1201 -234 c 0
 1201 -378 1024 -510 703 -510 c 0
 315 -510 180 -323 180 -62 c 0
 180 82 221 249 283 419 c 1024
EndSplineSet
Colour: ffff
EndChar

StartChar: uniFB8F
Encoding: 64399 64399 205
Width: 1921
VWidth: 1478
Flags: HMW
AnchorPoint: "Anchor-1" 768 -65 basechar 0
AnchorPoint: "Anchor-3" 1305 1197 basechar 0
LayerCount: 2
Fore
SplineSet
1710 1311 m 1
 976 951 l 1025
190 526 m 0
 169 455 160 393 160 340 c 0
 160 76 400 15 768 15 c 0
 1190 15 1388 97 1388 303 c 0
 1388 522 1163 760 976 951 c 1
 1151 774 1307 598 1370 427 c 0
 1500.76344654 72.0706451173 1589 45 1921 45 c 1025
EndSplineSet
Colour: ffff
EndChar

StartChar: uniFBE8
Encoding: 64488 64488 218
Width: 532
VWidth: 1437
Flags: HMW
AnchorPoint: "Anchor-3" 276 732 basechar 0
AnchorPoint: "Anchor-1" 274 45 basechar 0
LayerCount: 2
Fore
SplineSet
292 666 m 1
 330 545 352 438 352 349 c 0
 352 256.204297591 333 183 283 131 c 0
 229 75 139.7110654 45 0 45 c 1033
EndSplineSet
Colour: ffff
EndChar

StartChar: uniFBE9
Encoding: 64489 64489 219
Width: 811
VWidth: 1437
Flags: HMW
AnchorPoint: "Anchor-3" 233 565 basechar 0
AnchorPoint: "Anchor-1" 211 0 basechar 0
LayerCount: 2
Fore
SplineSet
0 45 m 1
 174 45 277 78 336 152 c 0
 385 213 402 303 402 425 c 0
 402 459 399 495 395 532 c 1
 416 324 439 195 518 122 c 0
 577 68 667 45 811 45 c 1025
EndSplineSet
Colour: ffff
EndChar

StartChar: uniFEE3
Encoding: 65251 65251 222
Width: 996
VWidth: 2370
Flags: HMW
AnchorPoint: "Anchor-3" 573 677 basechar 0
AnchorPoint: "Anchor-1" 563 -28 basechar 0
LayerCount: 2
Fore
SplineSet
321 101 m 0
 391 47 486 15 576 15 c 0
 713 15 836 88 836 278 c 0
 836 478 708 618 573 618 c 0
 422 618 359 543 293 337 c 0
 241.562742075 176.453407083 194 45 0 45 c 1024
EndSplineSet
Colour: ffff
EndChar

StartChar: uniE000
Encoding: 57344 57344 223
Width: 509
VWidth: 2498
Flags: HMW
LayerCount: 2
Fore
SplineSet
179 141 m 1
 179 120 187 101 209 101 c 0
 234 101 240 119 240 141 c 0
 240 155 238.000007567 167.9921875 212 167.9921875 c 0
 188 167.9921875 179 153 179 141 c 1
EndSplineSet
Colour: ffff
EndChar

StartChar: uniE001
Encoding: 57345 57345 224
Width: 660
VWidth: 1823
Flags: HMW
LayerCount: 2
Fore
SplineSet
118 99 m 0
 186 149 275 183 380 183 c 0
 469 183 540 160 540 99 c 0
 540 95 539 88 538 84 c 1024
EndSplineSet
Colour: ffff
EndChar

StartChar: uniE002
Encoding: 57346 57346 225
Width: 696
VWidth: 1823
Flags: HMW
LayerCount: 2
Fore
SplineSet
85 381 m 0
 130 414 284 464 402 464 c 0
 484 464 549 439 549 370 c 0
 549 277 415 145 321 118 c 1024
EndSplineSet
Colour: ffff
EndChar

StartChar: uniE003
Encoding: 57347 57347 226
Width: 696
VWidth: 1823
Flags: HMW
LayerCount: 2
Fore
SplineSet
475 126 m 0
 493 153 503 186 503 230 c 0
 503 337 417 406 308 406 c 0
 210 406 122 329 122 234 c 0
 122 139 176 88 233 36 c 1024
EndSplineSet
Colour: ffff
EndChar

StartChar: uniE004
Encoding: 57348 57348 227
Width: 1959
VWidth: 2370
Flags: HMW
AnchorPoint: "Anchor-3" 852 553 basechar 0
AnchorPoint: "Anchor-1" 796 -25 basechar 0
LayerCount: 2
Fore
SplineSet
1959 45 m 16
 1688 45 1563 164 1563 465 c 0
 1563 494 1564 524 1566 556 c 1
 1492 191 1192 15 711 15 c 0
 357 15 160 161 160 414 c 0
 160 476 172 546 196 623 c 1024
EndSplineSet
Colour: ffff
EndChar

StartChar: uniE005
Encoding: 57349 57349 228
Width: 852
VWidth: 2370
Flags: HMW
AnchorPoint: "Anchor-3" 438 1141 basechar 0
AnchorPoint: "Anchor-1" 380 0 basechar 0
LayerCount: 2
Fore
SplineSet
627 454 m 1
 571 431 506 415 435 415 c 0
 258 415 150 488 150 665 c 0
 150 830 231 1046 418 1046 c 0
 628 1046 692 714 692 399 c 0
 692 128 443 45 0 45 c 1025
EndSplineSet
Colour: ffff
EndChar

StartChar: uniE006
Encoding: 57350 57350 229
Width: 945
VWidth: 2370
Flags: HMW
AnchorPoint: "Anchor-3" 552 921 basechar 0
AnchorPoint: "Anchor-1" 367 0 basechar 0
LayerCount: 2
Fore
SplineSet
945 45 m 17
 577 45 193 192 193 504 c 0
 193 672 316 808 483 808 c 0
 650 808 752 670 752 499 c 0
 752 190 347 45 0 45 c 1025
EndSplineSet
Colour: ffff
EndChar

StartChar: uni064E
Encoding: 1614 1614 230
Width: 0
VWidth: -1171
Flags: HMW
AnchorPoint: "Anchor-5" 206 944 mark 0
AnchorPoint: "Anchor-2" 206 944 mark 0
AnchorPoint: "Anchor-3" 206 944 mark 0
AnchorPoint: "Anchor-5" 206 1404 basemark 0
LayerCount: 2
Fore
SplineSet
15 1341 m 1
 420 1485 l 1025
EndSplineSet
Colour: ffff00
EndChar

StartChar: uni064F
Encoding: 1615 1615 234
Width: 0
VWidth: 2274
Flags: HMW
AnchorPoint: "Anchor-5" 162 858 mark 0
AnchorPoint: "Anchor-5" 171 1537 basemark 0
AnchorPoint: "Anchor-3" 162 858 mark 0
AnchorPoint: "Anchor-2" 162 858 mark 0
LayerCount: 2
Fore
SplineSet
355 1383 m 0
 247 1383 57 1399 57 1508 c 0
 57 1582 106 1678 191 1678 c 0
 274 1678 280 1571 280 1488 c 0
 280 1301 167 1239 -35 1228 c 1024
EndSplineSet
Colour: ffff00
EndChar

StartChar: uni0651
Encoding: 1617 1617 235
Width: 0
VWidth: 2279
Flags: HMW
AnchorPoint: "Anchor-5" 239 858 mark 0
AnchorPoint: "Anchor-5" 239 1330 basemark 0
AnchorPoint: "Anchor-3" 239 858 mark 0
AnchorPoint: "Anchor-2" 239 858 mark 0
LayerCount: 2
Fore
SplineSet
418 1560 m 0
 438 1515 463 1439 463 1374 c 0
 463 1297 422 1263 364 1263 c 0
 295 1263 245 1332 239 1442 c 1
 234 1332 179 1264 110 1264 c 0
 57 1264 16 1294 16 1360 c 0
 16 1413 43 1475 76 1518 c 1024
EndSplineSet
Colour: ffff00
EndChar

StartChar: uni0670
Encoding: 1648 1648 236
Width: 0
VWidth: 1823
Flags: HMW
AnchorPoint: "Anchor-5" 33 861 mark 0
AnchorPoint: "Anchor-5" 33 1413 basemark 0
AnchorPoint: "Anchor-3" 33 861 mark 0
AnchorPoint: "Anchor-2" 33 861 mark 0
LayerCount: 2
Fore
SplineSet
14 1623 m 17
 22 1546 26 1477 26 1409 c 0
 26 1338 19 1268 -4 1199 c 1033
EndSplineSet
Colour: ffff00
EndChar

StartChar: uni064C
Encoding: 1612 1612 237
Width: 0
VWidth: 2274
Flags: HMW
AnchorPoint: "Anchor-5" 180 858 mark 0
AnchorPoint: "Anchor-5" 187 1497 basemark 0
AnchorPoint: "Anchor-3" 180 858 mark 0
AnchorPoint: "Anchor-2" 180 858 mark 0
LayerCount: 2
Fore
SplineSet
132 1888 m 0
 -2 1878 -155 1728 -155 1561 c 0
 -155 1528 -149 1495 -136 1462 c 1024
EndSplineSet
Refer: 234 1615 N 1 0 0 1 0 0 2
Colour: ffff00
EndChar

StartChar: uni0652
Encoding: 1618 1618 238
Width: 0
VWidth: 2274
Flags: HMW
AnchorPoint: "Anchor-5" 183 944 mark 0
AnchorPoint: "Anchor-5" 167 1441 basemark 0
AnchorPoint: "Anchor-3" 183 944 mark 0
AnchorPoint: "Anchor-2" 183 944 mark 0
LayerCount: 2
Fore
SplineSet
176 1589 m 0
 259 1589 313 1521 313 1452 c 0
 313 1360 249 1297 175 1297 c 0
 95 1297 37 1365 37 1434 c 0
 37 1523 104 1589 176 1589 c 0
EndSplineSet
Colour: ffff00
EndChar

StartChar: uni0653
Encoding: 1619 1619 239
Width: 0
VWidth: 1823
Flags: HMW
AnchorPoint: "Anchor-5" 308 858 mark 0
AnchorPoint: "Anchor-5" 316 1325 basemark 0
AnchorPoint: "Anchor-3" 308 858 mark 0
AnchorPoint: "Anchor-2" 308 858 mark 0
LayerCount: 2
Fore
SplineSet
571 1416 m 0
 538 1347 490 1288 419 1288 c 0
 387 1288 349 1300 306 1329 c 0
 267 1356 230 1369 194 1369 c 0
 126 1369 67 1324 29 1258 c 1024
EndSplineSet
Colour: ffff00
EndChar

StartChar: uni0654
Encoding: 1620 1620 240
Width: 0
VWidth: 2280
Flags: HMW
AnchorPoint: "Anchor-5" 236 858 mark 0
AnchorPoint: "Anchor-5" 236 1503 basemark 0
AnchorPoint: "Anchor-3" 236 858 mark 0
AnchorPoint: "Anchor-2" 236 858 mark 0
LayerCount: 2
Fore
SplineSet
352 1587 m 1
 317 1634 273 1654 228 1654 c 0
 138 1654 50 1571 50 1463 c 0
 50 1361 123 1323 221 1323 c 0
 282 1323 350 1337 419 1361 c 1
 14 1220 l 1041
EndSplineSet
Colour: ffff00
EndChar

StartChar: uni0615
Encoding: 1557 1557 244
Width: 0
VWidth: 1839
Flags: HMW
AnchorPoint: "Anchor-5" 256 768 mark 0
AnchorPoint: "Anchor-5" 247 1347 basemark 0
AnchorPoint: "Anchor-3" 256 768 mark 0
AnchorPoint: "Anchor-2" 256 768 mark 0
LayerCount: 2
Fore
SplineSet
151 1719 m 0
 166 1629 174 1536 174 1441 c 0
 174 1352 167 1260 152 1164 c 1
 186 1284 263 1422 393 1422 c 0
 460 1422 515 1375 515 1309 c 0
 515 1191 373 1157 258 1157 c 0
 171 1157 90 1169 8 1191 c 1024
EndSplineSet
Colour: ffff00
EndChar

StartChar: uniE007
Encoding: 57351 57351 251
Width: 1067
VWidth: 1839
Flags: HMW
LayerCount: 2
Fore
SplineSet
167 1413 m 1
 761 1730 l 1025
EndSplineSet
Colour: ffff
EndChar

StartChar: uni0643
Encoding: 1603 1603 261
Width: 1610
VWidth: 1478
Flags: HMW
AnchorPoint: "Anchor-3" 781 863 basechar 0
AnchorPoint: "Anchor-1" 713 -30 basechar 0
LayerCount: 2
Fore
SplineSet
1363 1136 m 0
 1390 895 1410 704 1410 441 c 0
 1410 110 1184 15 823 15 c 0
 476 15 160 65 160 382 c 0
 160 444 171 516 194 599 c 1024
EndSplineSet
Refer: 452 57362 N 1 0 0 1 559 -635 2
Substitution2: "'init' Initial Forms in Arabic lookup 6 subtable" uniFEDB
Substitution2: "'medi' Medial Forms in Arabic lookup 5 subtable" uniFEDC
Substitution2: "'fina' Terminal Forms in Arabic lookup 4 subtable" uniFEDA
Colour: ffff
EndChar

StartChar: uni065A
Encoding: 1626 1626 265
Width: 0
VWidth: -365
Flags: HMW
AnchorPoint: "Anchor-5" 240 826 mark 0
AnchorPoint: "Anchor-5" 240 1381 basemark 0
AnchorPoint: "Anchor-3" 240 826 mark 0
AnchorPoint: "Anchor-2" 240 826 mark 0
LayerCount: 2
Fore
SplineSet
460 1524 m 0
 329 1398 243 1134 243 1004 c 1
 243 1134 157 1398 26 1524 c 1024
EndSplineSet
Colour: ffff00
EndChar

StartChar: uni0621
Encoding: 1569 1569 266
Width: 883
VWidth: 2280
Flags: HMW
AnchorPoint: "Anchor-3" 447 703 basechar 0
AnchorPoint: "Anchor-1" 437 117 basechar 0
LayerCount: 2
Fore
SplineSet
642 625 m 0
 589 681 526 704 457 704 c 0
 323 704 186 572 186 414 c 0
 186 299 256 201 445 201 c 0
 515 201 635 210 723 221 c 1
 529 184 342 111 160 0 c 1024
EndSplineSet
Colour: ff00
EndChar

StartChar: uni0640
Encoding: 1600 1600 267
Width: 668
VWidth: 1437
Flags: HMW
AnchorPoint: "Anchor-1" 334 -169 basechar 0
AnchorPoint: "Anchor-3" 334 520 basechar 0
LayerCount: 2
Fore
SplineSet
0 45 m 9
 668 45 l 1025
EndSplineSet
Colour: ffff
EndChar

StartChar: uni0660
Encoding: 1632 1632 275
Width: 737
VWidth: 2694
Flags: HMW
LayerCount: 2
Fore
SplineSet
160 475 m 0
 160 589 266 679 392 679 c 0
 500 679 577 594 577 484 c 0
 577 365 490 260 380 260 c 0
 260 260 160 361 160 475 c 0
EndSplineSet
PairPos2: "'kern' Horizontal Kerning in Arabic lookup 3 per glyph data 0" uni0667 dx=-89 dy=0 dh=-89 dv=0 dx=0 dy=0 dh=0 dv=0
PairPos2: "'kern' Horizontal Kerning in Arabic lookup 3 per glyph data 0" uni0666 dx=-89 dy=0 dh=-89 dv=0 dx=0 dy=0 dh=0 dv=0
PairPos2: "'kern' Horizontal Kerning in Arabic lookup 3 per glyph data 0" uni0662 dx=-111 dy=0 dh=-111 dv=0 dx=0 dy=0 dh=0 dv=0
Colour: ff00
EndChar

StartChar: uni0661
Encoding: 1633 1633 276
Width: 580
VWidth: 1823
Flags: HMW
LayerCount: 2
Fore
SplineSet
180 1171 m 17
 325 748 400 484 400 0 c 1025
EndSplineSet
Colour: ffff
EndChar

StartChar: uni0662
Encoding: 1634 1634 277
Width: 1014
VWidth: 1823
Flags: HMW
LayerCount: 2
Fore
SplineSet
854 1196 m 0
 854 903.384765625 766.044921875 669 578 669 c 0
 368 669 249 981 180 1165 c 1
 314 843 453 489 453 98 c 0
 453 66 453 32 451 0 c 1024
EndSplineSet
Colour: ffff
EndChar

StartChar: uni0663
Encoding: 1635 1635 278
Width: 1285
VWidth: 2315
Flags: HMW
LayerCount: 2
Fore
SplineSet
1113 1186 m 0
 1122 1131 1125 1078 1125 1035 c 0
 1125 854 1074 673 940 668 c 1
 746 668 715 975 705 1166 c 1
 710 1125 712 1081 712 1038 c 0
 712 839 656 668 478 668 c 0
 349 668 308 744 248 953 c 0
 229 1020 211 1072 180 1160 c 1
 305 800 411 493 411 110 c 0
 411 77 410 33 409 0 c 1024
EndSplineSet
Colour: ffff
EndChar

StartChar: uni0664
Encoding: 1636 1636 279
Width: 1037
VWidth: 2315
Flags: HMW
LayerCount: 2
Fore
SplineSet
650 1182 m 0
 463 1182 184 1099 184 905 c 0
 184 810 282 749 358 702 c 0
 419.2421875 664.126953125 465 619 465 579 c 0
 465 534 417.547851562 484.10546875 353 439 c 0
 270 381 160 302 160 199 c 0
 160 57 369 15 562 15 c 0
 670 15 777 37 877 80 c 1024
EndSplineSet
Colour: ffff
EndChar

StartChar: uni0665
Encoding: 1637 1637 280
Width: 1150
VWidth: 2370
Flags: HMW
LayerCount: 2
Fore
SplineSet
312 1186 m 0
 575 999 990 682 990 332 c 0
 990 116 817 15 583 15 c 0
 333 15 160 132 160 348 c 0
 160 627 447 899 614 1035 c 1024
EndSplineSet
PairPos2: "'kern' Horizontal Kerning in Arabic lookup 3 per glyph data 0" uni0667 dx=-89 dy=0 dh=-89 dv=0 dx=0 dy=0 dh=0 dv=0
PairPos2: "'kern' Horizontal Kerning in Arabic lookup 3 per glyph data 0" uni0666 dx=-45 dy=0 dh=-45 dv=0 dx=0 dy=0 dh=0 dv=0
Colour: ffff
EndChar

StartChar: uni0666
Encoding: 1638 1638 281
Width: 1136
VWidth: 2315
Flags: HMW
LayerCount: 2
Fore
SplineSet
160 1156 m 0
 244 1170 328 1176 412 1176 c 0
 653 1176 802 1107 802 856 c 0
 802 416 824 284 956 0 c 1025
EndSplineSet
PairPos2: "'kern' Horizontal Kerning in Arabic lookup 3 per glyph data 0" uni0660 dx=-89 dy=0 dh=-89 dv=0 dx=0 dy=0 dh=0 dv=0
PairPos2: "'kern' Horizontal Kerning in Arabic lookup 3 per glyph data 0" uni066B dx=-134 dy=0 dh=-134 dv=0 dx=0 dy=0 dh=0 dv=0
PairPos2: "'kern' Horizontal Kerning in Arabic lookup 3 per glyph data 0" uni0668 dx=-89 dy=0 dh=-89 dv=0 dx=0 dy=0 dh=0 dv=0
Colour: ffff
EndChar

StartChar: uni0667
Encoding: 1639 1639 282
Width: 1158
VWidth: 2370
Flags: HMW
LayerCount: 2
Fore
SplineSet
160 1166 m 0
 392 799 544 516 597 0 c 1
 650 516 783 817 998 1197 c 1024
EndSplineSet
PairPos2: "'kern' Horizontal Kerning in Arabic lookup 3 per glyph data 0" uni0660 dx=-89 dy=0 dh=-89 dv=0 dx=0 dy=0 dh=0 dv=0
PairPos2: "'kern' Horizontal Kerning in Arabic lookup 3 per glyph data 0" uni0665 dx=-89 dy=0 dh=-89 dv=0 dx=0 dy=0 dh=0 dv=0
PairPos2: "'kern' Horizontal Kerning in Arabic lookup 3 per glyph data 0" uni0668 dx=-134 dy=0 dh=-134 dv=0 dx=0 dy=0 dh=0 dv=0
PairPos2: "'kern' Horizontal Kerning in Arabic lookup 3 per glyph data 0" uni066B dx=-1002 dy=0 dh=-111 dv=0 dx=0 dy=0 dh=0 dv=0
Colour: ffff
EndChar

StartChar: uni0668
Encoding: 1640 1640 283
Width: 1168
VWidth: 1823
Flags: HMW
LayerCount: 2
Fore
SplineSet
1008 -14 m 0
 773 366 631 650 578 1166 c 1
 525 650 396 380 160 0 c 1024
EndSplineSet
PairPos2: "'kern' Horizontal Kerning in Arabic lookup 3 per glyph data 0" uni0663 dx=-89 dy=0 dh=-89 dv=0 dx=0 dy=0 dh=0 dv=0
PairPos2: "'kern' Horizontal Kerning in Arabic lookup 3 per glyph data 0" uni0662 dx=-89 dy=0 dh=-89 dv=0 dx=0 dy=0 dh=0 dv=0
PairPos2: "'kern' Horizontal Kerning in Arabic lookup 3 per glyph data 0" uni0667 dx=-134 dy=0 dh=-134 dv=0 dx=0 dy=0 dh=0 dv=0
Colour: ffff
EndChar

StartChar: uni0669
Encoding: 1641 1641 284
Width: 1022
VWidth: 2315
Flags: HMW
LayerCount: 2
Fore
SplineSet
602.991210938 572.0703125 m 1
 586 570 533 565 484 565 c 0
 306 565 160 632 160 823 c 0
 160 996 257 1199 451 1199 c 0
 656 1199 715 1006 723.44140625 771.822265625 c 0
 735.576171875 435.172851562 752 172 842 0 c 1025
EndSplineSet
PairPos2: "'kern' Horizontal Kerning in Arabic lookup 3 per glyph data 0" uni066B dx=-67 dy=0 dh=-67 dv=0 dx=0 dy=0 dh=0 dv=0
PairPos2: "'kern' Horizontal Kerning in Arabic lookup 3 per glyph data 0" uni0668 dx=-134 dy=0 dh=-134 dv=0 dx=0 dy=0 dh=0 dv=0
PairPos2: "'kern' Horizontal Kerning in Arabic lookup 3 per glyph data 0" uni0665 dx=-45 dy=0 dh=-45 dv=0 dx=0 dy=0 dh=0 dv=0
Colour: ffff
EndChar

StartChar: uni06F4
Encoding: 1780 1780 290
Width: 1118
VWidth: 2370
Flags: HMW
LayerCount: 2
Fore
SplineSet
822 1243 m 0
 561 1172 459 957 459 688 c 1024
938 603 m 0
 898 599 860 598 824 598 c 0
 475 598 302 759 180 930 c 1
 360 650 408 352 408 0 c 1032
EndSplineSet
PairPos2: "'kern' Horizontal Kerning in Arabic lookup 3 per glyph data 1" uni06F0 dx=100 dy=0 dh=100 dv=0 dx=0 dy=0 dh=0 dv=0
PairPos2: "'kern' Horizontal Kerning in Arabic lookup 3 per glyph data 1" uni06F8 dx=-111 dy=0 dh=-111 dv=0 dx=0 dy=0 dh=0 dv=0
Colour: ffff
EndChar

StartChar: uni06F5
Encoding: 1781 1781 291
Width: 1155
VWidth: 2370
Flags: HMW
LayerCount: 2
Fore
SplineSet
365.895507812 1168.828125 m 0
 552 1045 995 699 995 342 c 0
 995 138 894 11 772 11 c 0
 707 11 632 61 572 135 c 1
 519 53 447 13 378 13 c 0
 265 13 160 110 160 317 c 0
 160 645 435 896 650 1015 c 1024
EndSplineSet
PairPos2: "'kern' Horizontal Kerning in Arabic lookup 3 per glyph data 1" uni06F2 dx=-22 dy=0 dh=-22 dv=0 dx=0 dy=0 dh=0 dv=0
PairPos2: "'kern' Horizontal Kerning in Arabic lookup 3 per glyph data 1" uni06F3 dx=-22 dy=0 dh=-22 dv=0 dx=0 dy=0 dh=0 dv=0
PairPos2: "'kern' Horizontal Kerning in Arabic lookup 3 per glyph data 1" uni06F7 dx=-89 dy=0 dh=-89 dv=0 dx=0 dy=0 dh=0 dv=0
PairPos2: "'kern' Horizontal Kerning in Arabic lookup 3 per glyph data 1" uni06F9 dx=-67 dy=0 dh=-67 dv=0 dx=0 dy=0 dh=0 dv=0
Colour: ffff
EndChar

StartChar: uni06F6
Encoding: 1782 1782 292
Width: 976
VWidth: 2370
Flags: HMW
LayerCount: 2
Fore
SplineSet
683 1136 m 16
 624 1180 561 1199 501 1199 c 0
 322 1199 160 1030 160 839 c 0
 160 643 339 555 528 555 c 0
 637 555 729 583 816 620 c 1
 519 470 332 267 186 0 c 1024
EndSplineSet
Colour: ffff
EndChar

StartChar: uni066B
Encoding: 1643 1643 296
Width: 454
VWidth: 1823
Flags: HMW
LayerCount: 2
Fore
SplineSet
354 504 m 1
 -28 -383 l 1025
EndSplineSet
PairPos2: "'kern' Horizontal Kerning in Arabic lookup 3 per glyph data 1" uni06F7 dx=-89 dy=0 dh=-89 dv=0 dx=0 dy=0 dh=0 dv=0
PairPos2: "'kern' Horizontal Kerning in Arabic lookup 3 per glyph data 1" uni06F0 dx=-45 dy=0 dh=-45 dv=0 dx=0 dy=0 dh=0 dv=0
PairPos2: "'kern' Horizontal Kerning in Arabic lookup 3 per glyph data 1" uni06F3 dx=-67 dy=0 dh=-67 dv=0 dx=0 dy=0 dh=0 dv=0
PairPos2: "'kern' Horizontal Kerning in Arabic lookup 3 per glyph data 1" uni06F2 dx=-89 dy=0 dh=-89 dv=0 dx=0 dy=0 dh=0 dv=0
PairPos2: "'kern' Horizontal Kerning in Arabic lookup 3 per glyph data 0" uni0663 dx=-134 dy=0 dh=-134 dv=0 dx=0 dy=0 dh=0 dv=0
PairPos2: "'kern' Horizontal Kerning in Arabic lookup 3 per glyph data 0" uni0662 dx=-89 dy=0 dh=-89 dv=0 dx=0 dy=0 dh=0 dv=0
PairPos2: "'kern' Horizontal Kerning in Arabic lookup 3 per glyph data 1" uni066B dx=-45 dy=0 dh=-45 dv=0 dx=0 dy=0 dh=0 dv=0
PairPos2: "'kern' Horizontal Kerning in Arabic lookup 3 per glyph data 0" uni0667 dx=-89 dy=0 dh=-89 dv=0 dx=0 dy=0 dh=0 dv=0
Colour: ffff
EndChar

StartChar: uni060C
Encoding: 1548 1548 298
Width: 644
VWidth: 1839
Flags: HMW
LayerCount: 2
Fore
SplineSet
249 283 m 0
 266 314 306 327 335 327 c 0
 415 327 464 246 464 168 c 0
 464 89 423 15 335 15 c 0
 243 15 180 84 180 204 c 0
 180 358 250 506 351 604 c 1024
EndSplineSet
Colour: ffff00
EndChar

StartChar: quoteleft
Encoding: 8216 8216 300
Width: 644
VWidth: 1424
Flags: HMW
LayerCount: 2
Fore
SplineSet
249 1146 m 0
 266 1115 306 1102 335 1102 c 0
 415 1102 464 1183 464 1261 c 0
 464 1340 423 1414 335 1414 c 0
 243 1414 180 1345 180 1225 c 0
 180 1071 250 923 351 825 c 1024
EndSplineSet
Colour: ffff00
EndChar

StartChar: uni061F
Encoding: 1567 1567 311
Width: 1105
VWidth: 0
Flags: HMW
LayerCount: 2
Fore
SplineSet
818.072265625 908.276367188 m 17
 838 942 855 1007 855 1066 c 0
 855 1209 753 1316 617 1316 c 0
 385 1316 250 1124 250 983 c 0
 250 892 338 816 423 743 c 0
 523 657 596 579 599 466 c 1033
543 89 m 0
 543 114 562 134 587 134 c 0
 612 134 632 114 632 89 c 0
 632 64 612 45 587 45 c 0
 562 45 543 64 543 89 c 0
EndSplineSet
Colour: ffff
EndChar

StartChar: section
Encoding: 167 167 313
Width: 916
VWidth: 2426
Flags: HMW
LayerCount: 2
Fore
SplineSet
469 872 m 17
 319 872 158 788 158 673 c 1
 158 532 306 479 443 465 c 1
 579 451 766 371 766 209 c 0
 766 65 597 15 457 15 c 0
 327 15 227 62 150 123 c 1025
760 1159 m 1
 732 1287 604 1346 472 1346 c 0
 322 1346 170 1240 159 1104 c 1
 159 922 313.835277278 888.276019866 469 872 c 0
 612 857 766 788 766 632 c 0
 766 488 583 465 443 465 c 1025
EndSplineSet
Colour: ffff
EndChar

StartChar: uni00B2
Encoding: 178 178 314
Width: 718
VWidth: 2426
Flags: HMW
LayerCount: 2
Fore
SplineSet
180 1298 m 0
 180 1393 244 1477 343 1477 c 0
 430 1477 488 1411 488 1327 c 0
 488 1213 425 1151 338 1067 c 2
 187 921 l 1
 538 940 l 1024
EndSplineSet
Colour: ffff00
EndChar

StartChar: uni00B3
Encoding: 179 179 315
Width: 664
VWidth: 2426
Flags: HMW
LayerCount: 2
Fore
SplineSet
209 1348 m 0
 222 1407 272 1459 343 1459 c 0
 413 1459 468 1397 468 1326 c 0
 468 1233 349 1196 258 1177 c 1
 283 1183 313 1189 343 1189 c 0
 419 1189 481 1150 484 1076 c 1
 484 979 404 920 310 920 c 0
 264 920 216 935 180 964 c 1024
EndSplineSet
Colour: ffff00
EndChar

StartChar: eth
Encoding: 240 240 316
Width: 1089
VWidth: 2426
Flags: HMW
LayerCount: 2
Fore
SplineSet
228 1000 m 0
 330 1113 700 1360 842 1406 c 1024
257 1420 m 0
 791 1215 939 777 939 525 c 0
 939 195 748 15 523 15 c 0
 316 15 150 204 150 427 c 0
 150 661 325 854 565 854 c 1024
EndSplineSet
Colour: ffff
EndChar

StartChar: uni06DD
Encoding: 1757 1757 327
Width: 2048
VWidth: 0
Flags: H
LayerCount: 2
Back
SplineSet
236 -240 m 0
 1971 -240 l 1032
933 -410 m 0
 933 -316 1009 -240 1103 -240 c 0
 1197 -240 1273 -316 1273 -410 c 0
 1273 -504 1197 -580 1103 -580 c 0
 1009 -580 933 -504 933 -410 c 0
1103 -580 m 1024
427 -580 m 0
 1779 -580 l 1024
933 -750 m 0
 933 -656 1009 -580 1103 -580 c 0
 1197 -580 1273 -656 1273 -750 c 0
 1273 -844 1197 -920 1103 -920 c 0
 1009 -920 933 -844 933 -750 c 0
156 213 m 0
 156 838 580 1346 1103 1346 c 0
 1626 1346 2050 838 2050 213 c 0
 2050 -412 1626 -920 1103 -920 c 0
 580 -920 156 -412 156 213 c 0
EndSplineSet
EndChar

StartChar: uni06DE
Encoding: 1758 1758 328
Width: 2048
VWidth: 0
Flags: H
LayerCount: 2
Back
SplineSet
888 716 m 4
 888 860 1004 976 1148 976 c 4
 1292 976 1408 860 1408 716 c 4
 1408 572 1292 456 1148 456 c 4
 1004 456 888 572 888 716 c 4
1136 1694 m 5
 2134 696 l 5
 1144 -294 l 5
 146 704 l 5
 1136 1694 l 5
434 1400 m 5
 1846 1400 l 5
 1846 0 l 5
 434 0 l 5
 434 1400 l 5
EndSplineSet
EndChar

StartChar: uniE008
Encoding: 57352 57352 329
Width: 250
VWidth: 1437
Flags: HMW
LayerCount: 2
Fore
SplineSet
0 45 m 25
 250 45 l 1025
EndSplineSet
Colour: ffff
EndChar

StartChar: uniE009
Encoding: 57353 57353 330
Width: 150
VWidth: 1437
Flags: HMW
LayerCount: 2
Fore
SplineSet
0 45 m 25
 150 45 l 1025
EndSplineSet
Colour: ffff
EndChar

StartChar: underscore
Encoding: 95 95 331
Width: 600
VWidth: 1823
Flags: HMW
LayerCount: 2
Fore
SplineSet
600 45 m 25
 0 45 l 1049
EndSplineSet
Colour: ffff
EndChar

StartChar: seven
Encoding: 55 55 332
Width: 1080
VWidth: 2426
Flags: HMW
LayerCount: 2
Fore
SplineSet
160 1265 m 1
 792 1316 l 2
 809 1319 826 1320 843 1320 c 0
 885 1320 920 1309 920 1265 c 0
 920 1246 915 1224 905 1204 c 0
 722 838 616 454 542 0 c 1025
EndSplineSet
Colour: ffff
EndChar

StartChar: nine
Encoding: 57 57 333
Width: 1208
VWidth: 2426
Flags: HMW
LayerCount: 2
Fore
SplineSet
1048 659 m 0
 944 559 770 482 575 482 c 0
 362 482 160 595 160 886 c 0
 160 1107 306 1313 556 1313 c 0
 761 1313 959 1161 959 795 c 0
 959 489 797 128 489 -5 c 1024
EndSplineSet
Colour: ffff
EndChar

StartChar: uniFD3E
Encoding: 64830 64830 334
Width: 866
VWidth: 0
Flags: HMW
LayerCount: 2
Fore
SplineSet
402 685 m 0
 432 790 517 863 629 863 c 0
 681 863 716 827 716 774 c 0
 716 717 625 699 518 686 c 0
 369 667 190 632 190 476 c 0
 190 448 209 430 237 430 c 0
 347 430 405 519 405 637 c 0
 405 728 375 879 234 879 c 0
 195 879 150 865 150 819 c 0
 150 696 322 671 424 659 c 0
 507 649 634 606 634 524 c 0
 634 471 580 467 554 467 c 0
 447 467 421 564 399 667 c 1024
568 1368 m 1
 454 1136 398 933 398 681 c 0
 398 448 454 176 568 -56 c 1025
EndSplineSet
Colour: ffff
EndChar

StartChar: uniFD3F
Encoding: 64831 64831 335
Width: 861
VWidth: 0
Flags: HMW
LayerCount: 2
Fore
SplineSet
456 685 m 0
 426 790 359 874 247 874 c 0
 195 874 150 834 150 781 c 0
 150 724 233 699 340 686 c 0
 489 667 667 632 667 493 c 0
 667 448 621 431 593 431 c 0
 497 431 447 528 447 630 c 0
 447 743 508 863 630 863 c 0
 669 863 711 838 711 792 c 0
 711 685 579 673 477 663 c 0
 379 654 230 623 230 526 c 0
 230 473 279 441 305 441 c 0
 412 441 458 547 458 667 c 1024
290 1368 m 1
 404 1136 460 933 460 681 c 0
 460 429 404 176 290 -56 c 1025
EndSplineSet
Colour: ffff
EndChar

StartChar: dollar
Encoding: 36 36 336
Width: 1182
VWidth: 1823
Flags: HMW
LayerCount: 2
Fore
SplineSet
575 1619 m 1
 575 -142 l 1025
EndSplineSet
Refer: 31 83 N 1 0 0 1 0 0 2
Colour: ffff
EndChar

StartChar: ampersand
Encoding: 38 38 337
Width: 1374
VWidth: 2426
Flags: HMW
LayerCount: 2
Fore
SplineSet
1124 45 m 1
 849 263 347 703 347 1063 c 0
 347 1258 505 1361 659 1361 c 0
 807 1361 953 1266 953 1095 c 0
 953 877 774 800 598 725 c 0
 420 650 250 575 250 364 c 0
 250 139 436 15 639 15 c 0
 832 15 1041 100 1115 240 c 1024
EndSplineSet
Colour: ffff
EndChar

StartChar: question
Encoding: 63 63 338
Width: 1155
VWidth: 0
Flags: HMW
LayerCount: 2
Fore
SplineSet
297 923 m 0
 265 985 250 1044 250 1097 c 0
 250 1254 379 1361 581 1361 c 0
 776 1361 905 1234 905 1058 c 0
 905 925 794 830 683 738 c 0
 578 650 529 601 529 469 c 0
 529 452 531 436 537 417 c 1024
574 89 m 0
 574 64 555 45 530 45 c 0
 505 45 485 64 485 89 c 0
 485 114 505 134 530 134 c 0
 555 134 574 114 574 89 c 0
EndSplineSet
Colour: ffff
EndChar

StartChar: at
Encoding: 64 64 339
Width: 2213
VWidth: 2426
Flags: HMW
LayerCount: 2
Fore
SplineSet
1620 -324 m 1
 1477 -413 1309 -465 1129 -465 c 0
 616 -465 200 -113 200 400 c 0
 200 913 649 1395 1162 1395 c 0
 1623 1395 2013 1035 2013 564 c 0
 2013 341 1896 26 1674 26 c 0
 1534 26 1431 203 1431 362 c 0
 1431 391 1433 424 1437 454 c 1026
1489 811 m 1
 1437 454 l 2
 1409 263 1294 15 1021 15 c 0
 810 15 668 167 668 372 c 0
 668 705 896 924 1152 924 c 0
 1265 924 1382 888 1489 811 c 1
EndSplineSet
Colour: ffff
EndChar

StartChar: b
Encoding: 98 98 340
Width: 1163
VWidth: 1823
Flags: HMW
LayerCount: 2
Fore
SplineSet
242 1361 m 0
 200 45 l 1025
232 725 m 1
 315 910 450.469008928 1001 618 1001 c 0
 891 1001 1003 749 1003 495 c 0
 1003 233 795 15 515 15 c 0
 468 15 420 21 374 33 c 1024
EndSplineSet
Colour: ffff
EndChar

StartChar: d
Encoding: 100 100 341
Width: 1197
VWidth: 2426
Flags: HMW
LayerCount: 2
Fore
SplineSet
835 871 m 0
 751 961 657 999 567 999 c 0
 311 999 160 720 160 465 c 0
 160 204 297 15 537 15 c 0
 755 15 891.892578125 182.397460938 950 357 c 1025
950 610 m 2
 970 1361 l 1
 951 511 l 0
 951 214 956 119 1017 45 c 1024
EndSplineSet
Colour: ffff
EndChar

StartChar: h
Encoding: 104 104 342
Width: 1126
VWidth: 2426
Flags: HMW
LayerCount: 2
Fore
SplineSet
297 1386 m 25
 200 0 l 1041
230 412 m 1
 321 737 451 1000 654 1000 c 0
 864 1000 915 821 915 626 c 0
 915 559 909 489 901 425 c 0
 893 360 887 292 887 227 c 0
 887 145 897 66 926 0 c 1024
EndSplineSet
Colour: ffff
EndChar

StartChar: k
Encoding: 107 107 345
Width: 1019
VWidth: 2426
Flags: HMW
LayerCount: 2
Fore
SplineSet
859 0 m 0
 638 130 397 346 230 537 c 1
 437 642 637 804 774 971 c 1024
260 1361 m 1
 200 4 l 1025
EndSplineSet
Colour: ffff
EndChar

StartChar: l
Encoding: 108 108 346
Width: 419
VWidth: 2426
Flags: HMW
LayerCount: 2
Fore
SplineSet
219 1350 m 17
 203 1007 200 394 200 0 c 1025
EndSplineSet
Colour: ffff
EndChar

StartChar: m
Encoding: 109 109 347
Width: 1582
VWidth: 2426
Flags: HMW
LayerCount: 2
Fore
SplineSet
219 988 m 0
 236 909 248 801 248 678 c 0
 248 629 246 578 242 525 c 2
 200 8 l 1025
247 605 m 1
 281 868 426 1001 550 1001 c 0
 786 1001 807 768 807 549 c 0
 807 381 795 168 781 0 c 1025
807 522 m 1
 820 769 971 1001 1142 1001 c 0
 1318 1001 1377 827 1377 651 c 0
 1377 583 1374 497 1370 410 c 0
 1366 323 1362 236 1362 169 c 0
 1362 108 1368 52 1382 0 c 1024
EndSplineSet
Colour: ffff
EndChar

StartChar: n
Encoding: 110 110 348
Width: 1126
VWidth: 2426
Flags: HMW
LayerCount: 2
Fore
SplineSet
213 1004 m 1
 242 969 253 872 253 746 c 0
 253 529 223 226 200 0 c 1025
237 412 m 1
 322 725 451 1000 681 1000 c 0
 877 1000 913 802 913 609 c 0
 913 552 908.621164192 488.827250108 901 425 c 0
 893 358 888 288 888 221 c 0
 888 142 897 66 926 0 c 1024
EndSplineSet
Colour: ffff
EndChar

StartChar: p
Encoding: 112 112 349
Width: 1187
VWidth: 2426
Flags: HMW
LayerCount: 2
Fore
SplineSet
436 15 m 0
 881 15 1027 331 1027 568 c 0
 1027 850 873 1001 698 1001 c 0
 477 1001 246 747 228 291 c 1024
193 -433 m 1
 225 253 l 1
 233 381 240 498 240 603 c 0
 240 746 224 882 180 971 c 1024
EndSplineSet
Colour: ffff
EndChar

StartChar: q
Encoding: 113 113 350
Width: 1163
VWidth: 2426
Flags: HMW
LayerCount: 2
Fore
SplineSet
780 885 m 0
 726 953 642 1001 532 1001 c 0
 280 1001 160 732 160 484 c 0
 160 229 253 14 506 14 c 0
 740 14 866 197 930 403 c 1025
963 977 m 1
 941 680 929 384 929 87 c 0
 929 -83 933 -254 940 -425 c 1024
EndSplineSet
Colour: ffff
EndChar

StartChar: r
Encoding: 114 114 351
Width: 905
VWidth: 2426
Flags: HMW
LayerCount: 2
Fore
SplineSet
745 991 m 0
 294 904 253 483 214 0 c 1
 229 143 241 343 241 532 c 0
 241 707 229 873 200 971 c 1024
EndSplineSet
Colour: ffff
EndChar

StartChar: u
Encoding: 117 117 352
Width: 1103
VWidth: 2426
Flags: HMW
LayerCount: 2
Fore
SplineSet
248 971 m 1
 223 857 200 627 200 392 c 0
 200 194 254 15 454 15 c 0
 706 15 803 221 854 590 c 1025
863 971 m 1
 857 862 854 751 854 639 c 0
 854 438 857 273 903 45 c 1033
EndSplineSet
Colour: ffff
EndChar

StartChar: asciitilde
Encoding: 126 126 353
Width: 870
VWidth: 2426
Flags: HMW
LayerCount: 2
Fore
SplineSet
115 1152 m 0
 142 1234 197 1291 279 1291 c 0
 349 1291 401 1261 450 1225 c 0
 495 1192 542 1164 602 1164 c 0
 663 1164 716 1212 762 1318 c 1024
EndSplineSet
Colour: ffff
EndChar

StartChar: cent
Encoding: 162 162 356
Width: 1031
VWidth: 1823
Flags: HMW
LayerCount: 2
Fore
SplineSet
547 -365 m 1
 547 15 l 1025
547 1001 m 1
 547 1316 l 1025
EndSplineSet
Refer: 1 99 N 1 0 0 1 0 0 2
Colour: ffff
EndChar

StartChar: sterling
Encoding: 163 163 357
Width: 1454
VWidth: 2426
Flags: HMW
LayerCount: 2
Fore
SplineSet
349 678 m 0
 420 660 499 653 578 653 c 0
 692 653 806 667 899 685 c 1024
726 1196 m 0
 726 1290 686 1346 621 1346 c 0
 516 1346 499 1153 499 939 c 0
 499 841 499 788 499 687 c 0
 499 372 470 67 225 67 c 0
 179 67 150 88 150 110 c 0
 150 128 172 144 219 144 c 0
 280 144 364.821289062 129.514648438 448 94 c 0
 537 56 682 15 828 15 c 0
 1049 15 1269 69 1304 255 c 1024
EndSplineSet
Colour: ffff
EndChar

StartChar: currency
Encoding: 164 164 358
Width: 1109
VWidth: 1823
Flags: HMW
LayerCount: 2
Fore
SplineSet
959 45 m 1
 838.780273438 183.440429688 l 1025
263.009765625 848 m 1
 150 970 l 1025
959 970 m 1
 858.349609375 856.3203125 l 1025
250.650390625 155.360351562 m 1
 151 45 l 1025
EndSplineSet
Refer: 5 111 N 1 0 0 1 0 0 2
Colour: ffff
EndChar

StartChar: brokenbar
Encoding: 166 166 360
Width: 419
VWidth: 2426
Flags: HMW
LayerCount: 2
Fore
SplineSet
204 1361 m 0
 204 1216 203 1058 200 895 c 1024
219 497 m 0
 215 317 209 146 201 0 c 1024
EndSplineSet
Colour: ffff
EndChar

StartChar: dieresis
Encoding: 168 168 361
Width: 688
VWidth: 1823
Flags: HMW
LayerCount: 2
Fore
SplineSet
538 1211 m 0
 538 1186 518 1169 493 1169 c 0
 468 1169 449 1193 449 1210 c 0
 449 1243 468 1258 486 1258 c 0
 518 1258 538 1236 538 1211 c 0
239 1223 m 0
 239 1189 219 1169 185 1169 c 0
 169 1169 150 1189 150 1214 c 0
 150 1239 169 1258 194 1258 c 0
 219 1258 239 1239 239 1223 c 0
EndSplineSet
Colour: ffff00
EndChar

StartChar: ordfeminine
Encoding: 170 170 363
Width: 936
VWidth: 2426
Flags: HMW
LayerCount: 2
Fore
SplineSet
394 896 m 0
 268 896 180 1006 180 1156 c 0
 180 1322 287 1459 437 1459 c 0
 553 1459 638 1397 638 1247 c 0
 638 1097 574 896 394 896 c 0
697 1459 m 0
 669 1401 632 1257 632 1134 c 0
 632 1024 662 896 756 896 c 1024
EndSplineSet
Colour: ffff00
EndChar

StartChar: logicalnot
Encoding: 172 172 364
Width: 975
VWidth: 1823
Flags: HMW
LayerCount: 2
Fore
SplineSet
150 661 m 1
 795 661 l 17
 795 388 l 1025
EndSplineSet
Colour: ffff
EndChar

StartChar: degree
Encoding: 176 176 368
Width: 830
VWidth: 2426
Flags: HMW
LayerCount: 2
Fore
SplineSet
650 1398 m 0
 650 1275 535 1169 400 1169 c 0
 284 1169 180 1273 180 1391 c 0
 180 1520 296 1639 414 1639 c 0
 544 1639 650 1521 650 1398 c 0
EndSplineSet
Colour: ffff00
EndChar

StartChar: acute
Encoding: 180 180 369
Width: 522
VWidth: 2426
Flags: HMW
LayerCount: 2
Fore
SplineSet
362 1481 m 1
 287 1387 218 1297 160 1169 c 1025
EndSplineSet
Colour: ffff
EndChar

StartChar: mu
Encoding: 181 181 370
Width: 1099
VWidth: 1823
Flags: HMW
LayerCount: 2
Fore
SplineSet
248 -447 m 0
 224 -207 200 91 200 367 c 0
 200 598 233 864 276 1015 c 1
 245 894 205 692 205 535 c 0
 205 283 231 15 511 15 c 0
 882 15 884 664 885 1015 c 1
 877 885 877 710 877 587 c 0
 877 405 881 224 899 48 c 1024
EndSplineSet
Colour: ffff
EndChar

StartChar: paragraph
Encoding: 182 182 371
Width: 1319
VWidth: 2426
Flags: HMW
LayerCount: 2
Fore
SplineSet
923 960 m 1
 923 -442 l 1025
1159 1147 m 0
 1056 1265 908 1346 715 1346 c 0
 417 1346 160 1109 160 811 c 0
 160 510 455 308 750 308 c 0
 828 308 906 322 980 350 c 1024
620 1020 m 1
 620 -382 l 1025
EndSplineSet
Colour: ffff
EndChar

StartChar: uni00B9
Encoding: 185 185 373
Width: 526
VWidth: 2426
Flags: HMW
LayerCount: 2
Fore
SplineSet
326 833 m 1
 366 1459 l 1
 307 1406 238 1360 160 1329 c 1024
EndSplineSet
Colour: ffff00
EndChar

StartChar: onequarter
Encoding: 188 188 375
Width: 2006
VWidth: 1839
Flags: HMW
LayerCount: 2
Fore
SplineSet
485 45 m 1
 845 427 1290 1014 1512 1414 c 1025
1524 764 m 0
 1406 473 1281 226 1106 -29 c 0
 1098 -40 1088 -58 1088 -78 c 0
 1088 -115 1123 -128 1155 -132 c 0
 1189 -137 1221 -138 1255 -138 c 0
 1454 -138 1659 -106 1846 -61 c 1024
1627 374 m 1
 1543 -365 l 1025
386 520 m 1
 456 1587 l 1
 421 1587 l 1
 344 1515 253 1443 160 1389 c 1025
EndSplineSet
Colour: ffff
EndChar

StartChar: onehalf
Encoding: 189 189 376
Width: 2060
VWidth: 2426
Flags: HMW
LayerCount: 2
Fore
SplineSet
1293 370 m 0
 1293 548 1413 705 1597 705 c 0
 1761 705 1860 582 1860 424 c 0
 1860 209 1727 70 1536 -74 c 2
 1249 -335 l 1
 1367 -323 1484 -318 1604 -318 c 0
 1700 -318 1801 -322 1900 -327 c 1024
485 45 m 1
 846 427 1290 1013 1512 1414 c 1025
386 520 m 1
 456 1587 l 1
 421 1587 l 1
 344 1515 253 1443 160 1389 c 1025
EndSplineSet
Colour: ffff
EndChar

StartChar: threequarters
Encoding: 190 190 377
Width: 2156
VWidth: 1839
Flags: HMW
LayerCount: 2
Fore
SplineSet
635 45 m 1
 995 427 1440 1014 1662 1414 c 1025
1674 764 m 0
 1556 473 1431 226 1256 -29 c 0
 1248 -40 1238 -58 1238 -78 c 0
 1238 -115 1273 -128 1305 -132 c 0
 1339 -137 1371 -138 1405 -138 c 0
 1604 -138 1809 -106 1996 -61 c 1024
1777 374 m 1
 1693 -365 l 1025
506 520 m 1025
214 1351 m 0
 243 1480 366 1559 479 1559 c 0
 590 1559 695 1484 695 1307 c 0
 695 1119 476 1052 307 1014 c 1
 353 1026 408 1040 464 1040 c 0
 605 1040 720 964 725 827 c 1
 725 646 578 538 402 538 c 0
 316 538 227 567 160 622 c 1024
EndSplineSet
Colour: ffff
EndChar

StartChar: Eth
Encoding: 208 208 394
Width: 1341
VWidth: 1823
Flags: HMW
LayerCount: 2
Fore
SplineSet
89 729 m 1
 307 746 489 742 643 729 c 1025
EndSplineSet
Refer: 16 68 N 1 0 0 1 150 0 2
Colour: ffff
EndChar

StartChar: multiply
Encoding: 215 215 401
Width: 872
VWidth: 1823
Flags: HMW
LayerCount: 2
Fore
SplineSet
160 914 m 0
 284 836 430 714 540 604 c 0
 622 522 685 444 712 390 c 1024
192 400 m 0
 290 524 390 635 498 743 c 0
 557 802 619 860 683 918 c 1024
EndSplineSet
Colour: ffff
EndChar

StartChar: germandbls
Encoding: 223 223 408
Width: 1124
VWidth: 2426
Flags: HMW
LayerCount: 2
Fore
SplineSet
200 4 m 0
 225 376 248 716 286 1011 c 0
 318 1258 424 1346 561 1346 c 0
 736 1346 832 1191 832 1060 c 0
 832 925 809 890 724 822 c 0
 663 773 611 700 611 619 c 0
 611 538 666 493 738 456 c 0
 843 403 964 325 964 182 c 0
 964 75 816 14 672 14 c 0
 607 14 543 25 493 53 c 1024
EndSplineSet
Colour: ffff
EndChar

StartChar: ae
Encoding: 230 230 415
Width: 1885
VWidth: 2426
Flags: HMW
LayerCount: 2
Fore
SplineSet
966 474 m 0
 991 604 1021 823 1038 955 c 1025
1725 181 m 0
 1629 94 1501 15 1372 15 c 0
 1142 15 972 200 967 419 c 1
 967 702 1171 1001 1457 1001 c 0
 1578 1001 1693 906 1693 784 c 0
 1693 561 1344 460 1153 460 c 0
 1092 460 1031 466 966 474 c 1
 928 276 815 15 529 15 c 0
 308 15 160 204 160 419 c 0
 160 677 342 1001 604 1001 c 0
 687 1001 772 968 833 914 c 1024
EndSplineSet
Colour: ffff
EndChar

StartChar: oslash
Encoding: 248 248 432
Width: 1144
VWidth: 1823
Flags: HMW
LayerCount: 2
Fore
SplineSet
160 0 m 1
 397 367 702 749 984 1017 c 1025
EndSplineSet
Refer: 5 111 N 1 0 0 1 26 0 2
Colour: ffff
EndChar

StartChar: thorn
Encoding: 254 254 438
Width: 1166
VWidth: 1823
Flags: HMW
LayerCount: 2
Fore
SplineSet
234 1361 m 25
 200 -365 l 1025
EndSplineSet
Refer: 5 111 N 1 0 0 1 57 0 2
Colour: ffff
EndChar

StartChar: OE
Encoding: 338 338 440
Width: 2327
VWidth: 2426
Flags: HMW
LayerCount: 2
Fore
SplineSet
1268 732 m 0
 1378 716 1540 704 1701 704 c 0
 1806 704 1910 709 2002 721 c 1024
1319 106 m 0
 1493 67 1674 48 1849 48 c 0
 1959 48 2066 56 2167 71 c 1024
1013 1181 m 0
 944 1275 838 1346 699 1346 c 0
 381 1346 160 991 160 643 c 0
 160 286 396 15 696 15 c 0
 1180 15 1290 492 1290 1065 c 0
 1290 1152 1287 1242 1283 1329 c 1
 1515 1298 1712 1272 1889 1272 c 0
 1980 1272 2065 1279 2148 1298 c 1024
EndSplineSet
Colour: ffff
EndChar

StartChar: dotlessi
Encoding: 305 305 442
Width: 415
VWidth: 2426
Flags: HMW
LayerCount: 2
Fore
SplineSet
215 971 m 1
 204 736 200 210 200 0 c 1025
EndSplineSet
Colour: ffff
EndChar

StartChar: uniE00A
Encoding: 57354 57354 443
Width: 645
VWidth: 1823
Flags: HMW
AnchorPoint: "Anchor-1" 342 0 basechar 0
AnchorPoint: "Anchor-3" 508 1631 basechar 0
LayerCount: 2
Fore
SplineSet
880 1699 m 0
 831 1613 778 1567 705 1567 c 0
 659 1567 605 1585 542 1621 c 0
 472 1661 412 1679 362 1679 c 0
 265 1679 151 1584 127 1477 c 1024
EndSplineSet
Refer: 80 1575 N 1 0 0 1 200 0 2
PairPos2: "'kern' Horizontal Kerning in Arabic lookup 2 per glyph data 0" uniFEDF dx=-120 dy=0 dh=-120 dv=0 dx=0 dy=0 dh=0 dv=0
PairPos2: "'kern' Horizontal Kerning in Arabic lookup 2 per glyph data 0" uni0622 dx=300 dy=0 dh=300 dv=0 dx=0 dy=0 dh=0 dv=0
PairPos2: "'kern' Horizontal Kerning in Arabic lookup 2 per glyph data 0" uniE00A dx=300 dy=0 dh=300 dv=0 dx=0 dy=0 dh=0 dv=0
Colour: ffff
EndChar

StartChar: uniE00C
Encoding: 57356 57356 445
Width: 1069
VWidth: 1823
Flags: HMW
LayerCount: 2
Fore
SplineSet
541 971 m 0
 810 971 936 756 936 508 c 0
 936 260 810 45 541 45 c 0
 272 45 147 260 147 508 c 0
 147 756 272 971 541 971 c 0
EndSplineSet
Colour: ffff
EndChar

StartChar: uniE00D
Encoding: 57357 57357 446
Width: 950
VWidth: 1823
Flags: HMW
LayerCount: 2
Fore
SplineSet
147 0 m 9
 147 584 l 17
 147 796 252 971 482 971 c 0
 712 971 817 796 817 584 c 9
 817 0 l 1041
EndSplineSet
Colour: ffff
EndChar

StartChar: uniE00E
Encoding: 57358 57358 447
Width: 850
VWidth: 1823
Flags: HMW
LayerCount: 2
Fore
SplineSet
147 0 m 25
 147 598 l 17
 147 810 238 971 432 971 c 0
 626 971 717 810 717 598 c 9
 717 0 l 1049
EndSplineSet
Colour: ffff
EndChar

StartChar: uniE010
Encoding: 57360 57360 450
Width: 435
VWidth: 2296
Flags: HW
AnchorPoint: "Anchor-1" 83 -394 basechar 0
AnchorPoint: "Anchor-3" 205 1361 basechar 0
LayerCount: 2
Fore
SplineSet
-250 -457 m 0
 89 -410 285 -214 285 181 c 0
 285 241.20703125 279.79296875 303.755859375 269.114257812 364 c 1024
343 741 m 0
 361 768 371 801 371 845 c 0
 371 952 285 1021 176 1021 c 0
 78 1021 -10 944 -10 849 c 0
 -10 754 44 703 101 651 c 1024
EndSplineSet
Colour: ffff
EndChar

StartChar: uniE011
Encoding: 57361 57361 451
Width: 593
VWidth: 2234
Flags: HW
AnchorPoint: "Anchor-1" 99 -394 basechar 0
AnchorPoint: "Anchor-3" 209 1361 basechar 0
LayerCount: 2
Fore
SplineSet
593 45 m 16
 307 45 236 202 177 384 c 1
 208 277 217 236 217 137 c 0
 217 -176 78 -376 -250 -457 c 1024
301 741 m 0
 319 768 329 801 329 845 c 0
 329 952 243 1021 134 1021 c 0
 36 1021 -52 944 -52 849 c 0
 -52 754 2 703 59 651 c 1024
EndSplineSet
Colour: ffff
EndChar

StartChar: uniE012
Encoding: 57362 57362 452
Width: 0
VWidth: 2280
Flags: HW
LayerCount: 2
Fore
SplineSet
380 1720.84960938 m 1
 244 1720.84960938 80 1630.65039062 80 1541.54980469 c 0
 80 1478.84960938 146 1449.04980469 222 1429.25 c 0
 299 1409.45019531 356 1378.54980469 356 1314.75 c 0
 356 1245.45019531 224 1166.15039062 14 1166.15039062 c 1025
EndSplineSet
Colour: ffff00
EndChar

StartChar: uni0237
Encoding: 567 567 453
Width: 404
VWidth: 2426
Flags: HW
LayerCount: 2
Fore
SplineSet
201 971 m 1
 204 860 204 692 204 581 c 0
 204 137 199 -414 -2 -414 c 0
 -17 -414 -34 -413 -50 -410 c 1025
EndSplineSet
Colour: ffff
EndChar

StartChar: uniE014
Encoding: 57364 57364 455
Width: 1693
VWidth: 1823
Flags: HMW
LayerCount: 2
Fore
SplineSet
160 616 m 0
 160 1072 494 1361 831 1361 c 0
 1250 1361 1533 1072 1533 760 c 0
 1533 315 1225 45 752 45 c 0
 468 45 160 315 160 616 c 0
EndSplineSet
Colour: ffff
EndChar

StartChar: uniE015
Encoding: 57365 57365 456
Width: 1693
VWidth: 1823
Flags: HW
LayerCount: 2
Fore
SplineSet
1044 985 m 0
 996 1027 938 1052 868 1052 c 0
 666 1052 517 861 517 667 c 0
 517 499 612 370 809 370 c 0
 910 370 987 399 1056 441 c 1024
EndSplineSet
Colour: ff00
EndChar

StartChar: uniE016
Encoding: 57366 57366 457
Width: 1667
VWidth: 1823
Flags: HW
LayerCount: 2
Fore
SplineSet
563 922 m 0
 616 993 703 1035 791 1035 c 0
 924 1035 1058 943 1058 809 c 0
 1058 686 957 600 803 600 c 1
 882 503 994 424 1104 363 c 1024
685 897 m 0
 677 718 662 528 644 356 c 1024
EndSplineSet
Colour: ff00
EndChar

StartChar: uniE01D
Encoding: 57373 57373 464
Width: 1478
VWidth: 1823
Flags: HMW
LayerCount: 2
Fore
SplineSet
1097 56 m 0
 999 56 923 151 923 263 c 0
 923 375 997 444 1109 444 c 0
 1221 444 1318 365 1318 253 c 0
 1318 141 1207 56 1097 56 c 0
160 1188 m 0
 160 1286 255 1361 367 1361 c 0
 479 1361 547 1287 547 1175 c 0
 547 1063 469 968 357 968 c 0
 245 968 160 1078 160 1188 c 0
EndSplineSet
Colour: ff00
EndChar

StartChar: uniFB00
Encoding: 64256 64256 469
Width: 1386
VWidth: 2426
Flags: HW
LayerCount: 2
Fore
SplineSet
160 830 m 16
 322 842 483 848 643 848 c 0
 838 848 1033 838 1226 816 c 1032
1225 1554 m 17
 1191 1592 1160 1609 1132 1609 c 0
 1048 1609 989 1465 976 1309 c 0
 945 963 936 348 936 -4 c 1025
612 1554 m 17
 578 1592 547 1609 519 1609 c 0
 435 1609 376 1465 363 1309 c 0
 332 963 323 348 323 -4 c 1025
EndSplineSet
LCarets2: 1 0
Ligature2: "'rlig' Required Ligatures in Latin lookup 8 subtable" f f
Colour: ffff
EndChar

StartChar: uniFB05
Encoding: 64261 64261 470
Width: 1325
VWidth: 2426
Flags: HW
LayerCount: 2
Fore
SplineSet
1165 820 m 0
 1005 840 828 848 651 848 c 0
 483 848 315 841 160 830 c 1032
952 1216 m 0
 919 931 893 647 893 355 c 0
 893 207 900 15 1088 15 c 0
 1110 15 1135 17 1162 22 c 1024
612 1554 m 17
 578 1592 547 1609 519 1609 c 0
 435 1609 376 1465 363 1309 c 0
 332 963 323 348 323 -4 c 1025
EndSplineSet
Ligature2: "'rlig' Required Ligatures in Latin lookup 8 subtable" f t
LCarets2: 1 0
Colour: ffff
EndChar

StartChar: uniE01E
Encoding: 57374 57374 475
Width: 1857
VWidth: 2370
Flags: HW
LayerCount: 2
Fore
SplineSet
1632 454 m 1
 1576 431 1511 415 1440 415 c 0
 1263 415 1155 488 1155 665 c 0
 1155 830 1236 1046 1423 1046 c 0
 1633 1046 1697 714 1697 399 c 0
 1697 128 1448 45 1005 45 c 1
 775 45 l 1
 1067 10 1201 -104 1201 -234 c 0
 1201 -378 1024 -510 703 -510 c 0
 315 -510 180 -323 180 -62 c 0
 180 82 221 249 283 419 c 1024
EndSplineSet
Colour: ffff
EndChar

StartChar: uniFD21
Encoding: 64801 64801 484
Width: 2690
VWidth: 2370
Flags: HW
AnchorPoint: "Anchor-0" 1832 -65 baselig 0
AnchorPoint: "Anchor-2" 2098 780 baselig 0
AnchorPoint: "Anchor-0" 690 -656 baselig 1
AnchorPoint: "Anchor-2" 464 511 baselig 1
LayerCount: 2
Fore
SplineSet
246 277 m 1
 207 137 180 -2 180 -126 c 0
 180 -440.341796875 363.130859375 -566.01953125 690.0078125 -566.01953125 c 0
 909.807617188 -566.01953125 1172 -494.529296875 1172 -300 c 0
 1172 -150 1052 -125 919 -99 c 0
 786 -73 643 -40 643 110 c 0
 643 344 915 487 1204 535 c 1
 1279 250 1495 25 1832 25 c 0
 2123 25 2378 152 2378 414 c 0
 2378 576 2260 690 2098 690 c 0
 1798 690 1542 250 1492.70800781 116.997070312 c 1025
2340 257 m 17
 2393 114 2485 45 2690 45 c 1025
EndSplineSet
LCarets2: 1 0
Ligature2: "'dlig' Discretionary Ligatures lookup 13 subtable" uniFEBC uniFBFD
Ligature2: "'dlig' Discretionary Ligatures lookup 13 subtable" uniFEBC uniFEF0
Colour: ffff
EndChar

StartChar: uniFD17
Encoding: 64791 64791 485
Width: 2681
VWidth: 2370
Flags: HW
AnchorPoint: "Anchor-2" 1856 531 baselig 0
AnchorPoint: "Anchor-0" 1830 0 baselig 0
AnchorPoint: "Anchor-2" 464 511 baselig 1
AnchorPoint: "Anchor-0" 690 -656 baselig 1
LayerCount: 2
Fore
SplineSet
246 277 m 1
 207 137 180 -2 180 -126 c 0
 180 -440.341796875 363.130859375 -566.01953125 690.0078125 -566.01953125 c 0
 909.807617188 -566.01953125 1172 -494.529296875 1172 -300 c 0
 1172 -150 1052 -125 919 -99 c 0
 786 -73 643 -40 643 110 c 0
 643 344 915 487 1204 535 c 1
 1279 250 1355 25 1542 25 c 0
 1762 25 1826 269 1857 489 c 1
 1855 459 1854 429 1854 398 c 0
 1854 286.552734375 1874.59277344 183.66015625 1925.40820312 115 c 0
 1964.87304688 61.67578125 2022.56640625 29 2103 29 c 0
 2180.41503906 29 2238.48242188 62.857421875 2279.24414062 119 c 0
 2331.15429688 190.495117188 2355 298.12890625 2355 418 c 0
 2355 439 2354 461 2353 482 c 2
 2348 568 l 1
 2396 129 2454 44 2681 44 c 1033
EndSplineSet
LCarets2: 1 0
Ligature2: "'dlig' Discretionary Ligatures lookup 13 subtable" uniFEB4 uniFEF0
Ligature2: "'dlig' Discretionary Ligatures lookup 13 subtable" uniFEB4 uniFBFD
Colour: ffff
EndChar

StartChar: uniFCFB
Encoding: 64763 64763 486
Width: 2443
VWidth: 2370
Flags: HW
AnchorPoint: "Anchor-0" 1800 0 baselig 0
AnchorPoint: "Anchor-2" 1812 531 baselig 0
AnchorPoint: "Anchor-0" 690 -656 baselig 1
AnchorPoint: "Anchor-2" 464 511 baselig 1
LayerCount: 2
Fore
SplineSet
246 277 m 1
 207 137 180 -2 180 -126 c 0
 180 -440.341796875 363.130859375 -566.01953125 690.0078125 -566.01953125 c 0
 909.807617188 -566.01953125 1172 -494.529296875 1172 -300 c 0
 1172 -150 1052 -125 919 -99 c 0
 786 -73 643 -40 643 110 c 0
 643 344 915 487 1204 535 c 1
 1279 250 1355 25 1542 25 c 0
 1721 25 1769 227 1813 488 c 1
 1805 438 1805 430 1805 387 c 0
 1805 259 1830 164 1878 104 c 0
 1918 53 1974 27 2046 27 c 0
 2216 27 2283 126 2283 286 c 0
 2283 403 2254 510 2222 619 c 1024
EndSplineSet
LCarets2: 1 0
Ligature2: "'dlig' Discretionary Ligatures lookup 13 subtable" uniFEB3 uniFEF0
Ligature2: "'dlig' Discretionary Ligatures lookup 13 subtable" uniFEB3 uniFBFD
Colour: ffff
EndChar

StartChar: uniFD05
Encoding: 64773 64773 487
Width: 2538
VWidth: 2370
Flags: HW
AnchorPoint: "Anchor-2" 464 511 baselig 1
AnchorPoint: "Anchor-0" 690 -656 baselig 1
AnchorPoint: "Anchor-2" 2098 780 baselig 0
AnchorPoint: "Anchor-0" 1832 -65 baselig 0
LayerCount: 2
Fore
SplineSet
246 277 m 1
 207 137 180 -2 180 -126 c 0
 180 -440.341796875 363.130859375 -566.01953125 690.0078125 -566.01953125 c 0
 909.807617188 -566.01953125 1172 -494.529296875 1172 -300 c 0
 1172 -150 1052 -125 919 -99 c 0
 786 -73 643 -40 643 110 c 0
 643 344 915 487 1204 535 c 1
 1279 250 1495 25 1832 25 c 0
 2123 25 2378 152 2378 414 c 0
 2378 576 2260 690 2098 690 c 0
 1798 690 1542 250 1426 -63 c 1025
EndSplineSet
LCarets2: 1 0
Ligature2: "'dlig' Discretionary Ligatures lookup 13 subtable" uniFEBB uniFBFD
Ligature2: "'dlig' Discretionary Ligatures lookup 13 subtable" uniFEBB uniFEF0
Colour: ffff
EndChar

StartChar: uniFC27
Encoding: 64551 64551 488
Width: 2048
VWidth: 2370
Flags: H
LayerCount: 2
Back
SplineSet
1218 1181 m 1
 1233 1050 1241 915 1241 717 c 0
 1241 439 1195 134 1071 -86 c 1
 1183 171 1436 689 1786 689 c 0
 1937 689 2060 585 2060 436 c 0
 2060 184 1773 22 1488 22 c 0
 1280 22 1065 122 973 322 c 1
 906 473 824 629 691 629 c 0
 542 629 364 432 364 247 c 1
 364 99 579 60 691 45 c 1
 562 70 459 88 345 88 c 0
 231 88 160 16 160 -184 c 1
 160 -363 171 -560 190 -754 c 1024
EndSplineSet
EndChar

StartChar: uniFD0F
Encoding: 64783 64783 501
Width: 2048
VWidth: 1424
Flags: H
LayerCount: 2
Back
SplineSet
-251 -457 m 0
 26 -350 206 -169 206 71 c 0
 206 189 189 310 160 408 c 1
 192 403 224 401 255 401 c 0
 395 401 522 448 621 532 c 1
 663 120 823 25 1141 25 c 1
 1432 25 1687 152 1687 414 c 0
 1687 576 1569 690 1407 690 c 0
 1107 690 808 194 744 0 c 1025
EndSplineSet
LCarets2: 1 0
EndChar

StartChar: uniE021
Encoding: 57377 57377 502
Width: 2243
VWidth: 2370
Flags: HW
LayerCount: 2
Fore
SplineSet
2243 45 m 1
 1712 45 l 18
 1386 45 1279 225 1204 510 c 1
 915 462 643 319 643 85 c 0
 643 -65 786 -98 919 -124 c 0
 1052 -150 1172 -175 1172 -325 c 0
 1172 -519.529296875 909.807617188 -591.01953125 690.0078125 -591.01953125 c 0
 363.130859375 -591.01953125 180 -465.341796875 180 -151 c 0
 180 -27 207 112 246 252 c 1025
EndSplineSet
Colour: ffff
EndChar

StartChar: uniE022
Encoding: 57378 57378 503
Width: 1712
VWidth: 2370
Flags: HW
LayerCount: 2
Fore
SplineSet
246 252 m 1
 207 112 180 -27 180 -151 c 0
 180 -465.341796875 363.130859375 -591.01953125 690.0078125 -591.01953125 c 0
 909.807617188 -591.01953125 1172 -519.529296875 1172 -325 c 0
 1172 -175 1052 -150 919 -124 c 0
 786 -98 643 -65 643 85 c 0
 643 319 915 462 1204 510 c 1
 1279 225 1386 45 1712 45 c 1033
EndSplineSet
Colour: ffff
EndChar

StartChar: uniE01F
Encoding: 57375 57375 504
Width: 1465
VWidth: 2370
Flags: HW
AnchorPoint: "Anchor-1" 813 -172 basechar 0
AnchorPoint: "Anchor-3" 709 840 basechar 0
LayerCount: 2
Fore
SplineSet
190 -698 m 1
 168 -382 160 -206 160 156 c 1
 160 422 216 568 609 592 c 1
 578 478 550 328 550 251 c 0
 550 94 625 15 815 15 c 0
 1023 15 1076 103 1076 205 c 0
 1076 307 938 536 710 702 c 1
 870 586 967.578125 453.125976562 1050 336 c 0
 1164 174 1259 45 1465 45 c 1025
EndSplineSet
Colour: ffff
EndChar

StartChar: uniFC37
Encoding: 64567 64567 505
Width: 1586
VWidth: 2370
Flags: HW
AnchorPoint: "Anchor-0" 337 0 baselig 1
AnchorPoint: "Anchor-2" 213 1211 baselig 1
AnchorPoint: "Anchor-0" 800 0 baselig 0
AnchorPoint: "Anchor-2" 1021 1197 baselig 0
LayerCount: 2
Fore
SplineSet
212 1211 m 0
 202 933 200 658 200 398 c 0
 200 278 213.544921875 194.57421875 265 140 c 0
 331 70 458 45 658 45 c 0
 806 45 925 68 1003 120 c 0
 1068 163 1104 226 1104 312 c 0
 1104 522 879 760 692 951 c 1
 1426 1311 l 1025
EndSplineSet
LCarets2: 1 0
Ligature2: "'rlig' Required Ligatures in Arabic lookup 7 subtable" uniFB90 uniFE8E
Ligature2: "'rlig' Required Ligatures in Arabic lookup 7 subtable" uniFEDB uniFE8E
Colour: ffff
EndChar

StartChar: uniFC80
Encoding: 64640 64640 509
Width: 1645
VWidth: 2370
Flags: HW
AnchorPoint: "Anchor-2" 1021 1197 baselig 0
AnchorPoint: "Anchor-0" 800 0 baselig 0
AnchorPoint: "Anchor-2" 213 1211 baselig 1
AnchorPoint: "Anchor-0" 337 0 baselig 1
LayerCount: 2
Fore
SplineSet
212 1211 m 0
 202 933 200 658 200 398 c 0
 200 278 213.544921875 194.57421875 265 140 c 0
 331 70 458 45 658 45 c 0
 806 45 925 68 1003 120 c 0
 1068 163 1104 226 1104 312 c 0
 1104 522 879 760 692 951 c 1
 1426 1311 l 1025
692 951 m 1
 861 779 1018 608 1086 427 c 0
 1219.02734375 72.9130859375 1313 45 1645 45 c 1025
EndSplineSet
LCarets2: 1 0
Ligature2: "'rlig' Required Ligatures in Arabic lookup 7 subtable" uniFEDC uniFE8E
Ligature2: "'rlig' Required Ligatures in Arabic lookup 7 subtable" uniFB91 uniFE8E
Colour: ffff
EndChar

StartChar: uniE025
Encoding: 57381 57381 510
Width: 1383
VWidth: 2370
Flags: HW
AnchorPoint: "Anchor-0" 337 0 baselig 1
AnchorPoint: "Anchor-2" 213 1211 baselig 1
AnchorPoint: "Anchor-0" 988 -4 baselig 0
AnchorPoint: "Anchor-2" 943 1249 baselig 0
LayerCount: 2
Fore
SplineSet
212 1211 m 0
 202 933 200 658 200 398 c 0
 200 278 214 195 265 140 c 0
 331 70 458 45 698 45 c 0
 852 45 998 71 1097 141 c 0
 1175 196 1223 279 1223 398 c 0
 1223 714 1159 1046 949 1046 c 0
 762 1046 681 830 681 665 c 0
 681 488 789 415 966 415 c 0
 1037 415 1102 431 1158 454 c 1025
EndSplineSet
Colour: ffff
EndChar

StartChar: uniFC3D
Encoding: 64573 64573 513
Width: 2206
VWidth: 2370
Flags: HW
AnchorPoint: "Anchor-0" 1485 -50 baselig 0
AnchorPoint: "Anchor-0" 690 -656 baselig 1
AnchorPoint: "Anchor-2" 464 511 baselig 1
AnchorPoint: "Anchor-2" 1641 1197 baselig 0
LayerCount: 2
Fore
SplineSet
283 419 m 0
 221 249 180 82 180 -62 c 0
 180 -323 315 -510 703 -510 c 0
 1024 -510 1201 -378 1201 -234 c 0
 1201 -104 1067 10 775 45 c 1
 1152 45 l 1
 1548 45 1724 123 1724 312 c 0
 1724 522 1499 760 1312 951 c 1
 2046 1311 l 1025
EndSplineSet
LCarets2: 1 0
Ligature2: "'rlig' Required Ligatures in Arabic lookup 7 subtable" uniFB90 uniFBFD
Ligature2: "'rlig' Required Ligatures in Arabic lookup 7 subtable" uniFB90 uniFEF0
Ligature2: "'rlig' Required Ligatures in Arabic lookup 7 subtable" uniFEDB uniFBFD
Ligature2: "'rlig' Required Ligatures in Arabic lookup 7 subtable" uniFEDB uniFEF0
Colour: ffff
EndChar

StartChar: uniFC83
Encoding: 64643 64643 515
Width: 2265
VWidth: 2370
Flags: HW
AnchorPoint: "Anchor-0" 1485 -50 baselig 0
AnchorPoint: "Anchor-0" 690 -656 baselig 1
AnchorPoint: "Anchor-2" 464 511 baselig 1
AnchorPoint: "Anchor-2" 1641 1197 baselig 0
LayerCount: 2
Fore
SplineSet
1312 951 m 1
 1481 779 1638 608 1706 427 c 0
 1839.02734375 72.9130859375 1933 45 2265 45 c 1025
283 419 m 0
 221 249 180 82 180 -62 c 0
 180 -323 315 -510 703 -510 c 0
 1024 -510 1201 -378 1201 -234 c 0
 1201 -104 1067 10 775 45 c 1
 1102 45 l 1
 1498 45 1724 123 1724 312 c 0
 1724 522 1499 760 1312 951 c 1
 2046 1311 l 1025
EndSplineSet
LCarets2: 1 0
Ligature2: "'rlig' Required Ligatures in Arabic lookup 7 subtable" uniFEDC uniFEF0
Ligature2: "'rlig' Required Ligatures in Arabic lookup 7 subtable" uniFEDC uniFBFD
Ligature2: "'rlig' Required Ligatures in Arabic lookup 7 subtable" uniFB91 uniFEF0
Ligature2: "'rlig' Required Ligatures in Arabic lookup 7 subtable" uniFB91 uniFBFD
Colour: ffff
EndChar

